<?xml version="1.0" encoding="UTF-8" standalone="no"?>
<svg
   xmlns:dc="http://purl.org/dc/elements/1.1/"
   xmlns:cc="http://creativecommons.org/ns#"
   xmlns:rdf="http://www.w3.org/1999/02/22-rdf-syntax-ns#"
   xmlns:svg="http://www.w3.org/2000/svg"
   xmlns="http://www.w3.org/2000/svg"
   xmlns:sodipodi="http://sodipodi.sourceforge.net/DTD/sodipodi-0.dtd"
   xmlns:inkscape="http://www.inkscape.org/namespaces/inkscape"
   width="663.5329"
   height="504.98929"
   viewBox="0 0 663.5329 504.98929"
   id="svg5564"
   version="1.1"
   inkscape:version="0.48.3.1 r9886"
   sodipodi:docname="missing-cell.svg">
  <metadata
     id="metadata5900">
    <rdf:RDF>
      <cc:Work
         rdf:about="">
        <dc:format>image/svg+xml</dc:format>
        <dc:type
           rdf:resource="http://purl.org/dc/dcmitype/StillImage" />
      </cc:Work>
    </rdf:RDF>
  </metadata>
  <sodipodi:namedview
     pagecolor="#ffffff"
     bordercolor="#666666"
     borderopacity="1"
     objecttolerance="10"
     gridtolerance="10"
     guidetolerance="10"
     inkscape:pageopacity="0"
     inkscape:pageshadow="2"
     inkscape:window-width="1301"
     inkscape:window-height="744"
     id="namedview5898"
     showgrid="false"
     inkscape:zoom="0.89162183"
     inkscape:cx="338.60588"
     inkscape:cy="159.9549"
     inkscape:window-x="65"
     inkscape:window-y="24"
     inkscape:window-maximized="1"
     inkscape:current-layer="layer1"
     fit-margin-top="20"
     fit-margin-left="20"
     fit-margin-right="20"
     fit-margin-bottom="20" />
  <title
     id="title5566">inverting-map</title>
  <desc
     id="desc5568">
Creator: GL2PS 1.3.6, (C) 1999-2011 C. Geuzaine
For: Gmsh
CreationDate: Sat Jun 14 02:46:14 2014
</desc>
  <defs
     id="defs5570">
    <inkscape:path-effect
       effect="spiro"
       id="path-effect3150"
       is_visible="true" />
    <inkscape:path-effect
       effect="spiro"
       id="path-effect3146"
       is_visible="true" />
    <inkscape:path-effect
       effect="spiro"
       id="path-effect3150-6"
       is_visible="true" />
    <inkscape:path-effect
       effect="spiro"
       id="path-effect3146-7"
       is_visible="true" />
  </defs>
  <g
     inkscape:groupmode="layer"
     id="layer3"
     inkscape:label="Background"
     transform="translate(-383.22274,-121.76914)"
     style="display:inline"
     sodipodi:insensitive="true">
    <g
       style="display:inline"
       shape-rendering="crispEdges"
       id="g5572">
      <polyline
         points="538.999,168.263 501.956,276.598 460.554,386.474"
         id="polyline5710"
         style="fill:none;stroke:#000000;stroke-width:1" />
      <polyline
         points="417.002,506.342 460.554,386.474"
         id="polyline5712"
         style="fill:none;stroke:#000000;stroke-width:1" />
      <polyline
         points="538.999,168.263 650.719,184.525"
         id="polyline5718"
         style="fill:none;stroke:#000000;stroke-width:1" />
      <polyline
         points="501.956,276.598 614.859,299.276"
         id="polyline5724"
         style="fill:none;stroke:#000000;stroke-width:1" />
      <polyline
         points="577.253,413.539 460.554,386.474"
         id="polyline5726"
         style="fill:none;stroke:#000000;stroke-width:1" />
      <polyline
         points="542.558,532.971 417.002,506.342"
         id="polyline5728"
         style="fill:none;stroke:#000000;stroke-width:1" />
      <polyline
         points="650.719,184.525 614.859,299.276 577.253,413.539"
         id="polyline5734"
         style="fill:none;stroke:#000000;stroke-width:1" />
      <polyline
         points="577.253,413.539 542.558,532.971"
         id="polyline5738"
         style="fill:none;stroke:#000000;stroke-width:1" />
      <polyline
         points="768.571,201.939 650.719,184.525"
         id="polyline5742"
         style="fill:none;stroke:#000000;stroke-width:1" />
      <polyline
         points="733.055,321.551 614.859,299.276"
         id="polyline5748"
         style="fill:none;stroke:#000000;stroke-width:1" />
      <polyline
         points="577.253,413.539 696.385,434.408"
         id="polyline5750"
         style="fill:none;stroke:#000000;stroke-width:1" />
      <polyline
         points="542.558,532.971 669.57,548.461"
         id="polyline5754"
         style="fill:none;stroke:#000000;stroke-width:1" />
      <polyline
         points="733.055,321.551 768.571,201.939"
         id="polyline5758"
         style="fill:none;stroke:#000000;stroke-width:1" />
      <polyline
         points="696.385,434.408 733.055,321.551"
         id="polyline5760"
         style="fill:none;stroke:#000000;stroke-width:1" />
      <polyline
         points="696.385,434.408 669.57,548.461"
         id="polyline5764"
         style="fill:none;stroke:#000000;stroke-width:1" />
      <polyline
         points="889.643,230.748 768.571,201.939"
         id="polyline5768"
         style="fill:none;stroke:#000000;stroke-width:1" />
      <polyline
         points="733.055,321.551 852.029,346.87"
         id="polyline5770"
         style="fill:none;stroke:#000000;stroke-width:1" />
      <polyline
         points="815.864,456.775 696.385,434.408"
         id="polyline5776"
         style="fill:none;stroke:#000000;stroke-width:1" />
      <polyline
         points="669.57,548.461 784.605,558.727"
         id="polyline5782"
         style="fill:none;stroke:#000000;stroke-width:1" />
      <polyline
         points="889.643,230.748 852.029,346.87"
         id="polyline5790"
         style="fill:none;stroke:#000000;stroke-width:1" />
      <polyline
         points="852.029,346.87 815.864,456.775"
         id="polyline5794"
         style="fill:none;stroke:#000000;stroke-width:1" />
      <polyline
         points="784.605,558.727 815.864,456.775"
         id="polyline5798"
         style="fill:none;stroke:#000000;stroke-width:1" />
      <polyline
         points="889.643,230.748 1006.12,261.319"
         id="polyline5806"
         style="fill:none;stroke:#000000;stroke-width:1" />
      <polyline
         points="852.029,346.87 968.698,376.484"
         id="polyline5810"
         style="fill:none;stroke:#000000;stroke-width:1" />
      <polyline
         points="931.509,486.393 815.864,456.775"
         id="polyline5812"
         style="fill:none;stroke:#000000;stroke-width:1" />
      <polyline
         points="889.574,584.542 784.605,558.727"
         id="polyline5814"
         style="fill:none;stroke:#000000;stroke-width:1" />
      <polyline
         points="968.698,376.484 1006.12,261.319"
         id="polyline5822"
         style="fill:none;stroke:#000000;stroke-width:1" />
      <polyline
         points="931.509,486.393 968.698,376.484"
         id="polyline5826"
         style="fill:none;stroke:#000000;stroke-width:1" />
      <path
         style="fill:#00c2c2;fill-opacity:1;fill-rule:nonzero;stroke:none"
         d="m 479.82374,518.39374 c -32.83388,-7.07095 -59.91314,-13.07145 -60.17615,-13.33446 -0.46206,-0.46206 40.98669,-115.35739 41.97027,-116.34097 0.3514,-0.35139 83.86592,18.63337 112.0071,25.46178 1.19245,0.28934 -1.10702,10.57122 -6.59512,29.48947 -4.63424,15.97489 -12.27927,42.29714 -16.98894,58.49389 -4.70968,16.19676 -9.00319,29.36718 -9.54113,29.2676 -0.53794,-0.0996 -27.84215,-5.96636 -60.67603,-13.03731 z"
         id="path5902"
         inkscape:connector-curvature="0" />
      <path
         style="fill:#00c2c2;fill-opacity:1;fill-rule:nonzero;stroke:none"
         d="m 519.35139,398.82244 c -30.61852,-7.10935 -55.90904,-13.11545 -56.20115,-13.34689 -0.68105,-0.53961 38.37924,-104.42349 39.80323,-105.85979 0.58767,-0.59274 25.39388,3.81373 55.12491,9.79218 49.3053,9.91451 54.00747,11.1401 53.4994,13.94421 -0.94239,5.20126 -34.37952,106.36804 -35.50187,107.41384 -0.57996,0.54039 -26.10599,-4.8342 -56.72452,-11.94355 z"
         id="path5904"
         inkscape:connector-curvature="0" />
      <path
         style="fill:#00c2c2;fill-opacity:1;fill-rule:nonzero;stroke:none"
         d="m 557.67498,286.60719 c -31.34893,-6.34316 -52.84621,-11.42393 -52.84621,-12.48993 0,-2.65137 33.98425,-101.31259 35.42301,-102.83811 0.96944,-1.02792 105.86901,12.93272 107.91245,14.3616 1.2782,0.89379 -34.43503,111.97849 -35.95206,111.82758 -0.93004,-0.0925 -25.47178,-4.98003 -54.53719,-10.86114 z"
         id="path5906"
         inkscape:connector-curvature="0" />
      <path
         style="fill:#00c2c2;fill-opacity:1;fill-rule:nonzero;stroke:none"
         d="m 673.85594,309.19263 c -36.53845,-6.97032 -56.07345,-11.37053 -56.07345,-12.6304 0,-2.3701 33.16306,-108.46697 34.24075,-109.54466 0.75399,-0.75399 112.85382,15.28076 113.97469,16.30293 0.90416,0.82455 -33.98637,116.92545 -35.08197,116.73794 -0.54261,-0.0929 -26.21962,-4.98248 -57.06002,-10.86581 z"
         id="path5908"
         inkscape:connector-curvature="0" />
      <path
         style="fill:#00ffff;fill-opacity:1;fill-rule:nonzero;stroke:none"
         d="m 636.74464,422.76934 c -30.83927,-5.5129 -56.33426,-10.32694 -56.65554,-10.69786 -0.32129,-0.37092 7.52532,-25.36286 17.43691,-55.53764 17.38766,-52.93489 18.1596,-54.84974 21.96261,-54.47928 5.38065,0.52413 110.30048,20.07659 110.99906,20.68535 0.98781,0.86081 -35.30228,110.44828 -36.5085,110.24699 -0.63973,-0.10676 -26.39527,-4.70466 -57.23454,-10.21756 z"
         id="path5910"
         inkscape:connector-curvature="0" />
      <path
         style="fill:#00c2c2;fill-opacity:1;fill-rule:nonzero;stroke:none"
         d="m 601.24981,538.94954 c -29.94908,-3.73209 -54.88768,-7.22044 -55.41913,-7.75189 -0.78578,-0.78578 30.98191,-113.70987 32.48897,-115.488 0.24627,-0.29057 26.53163,4.03874 58.41192,9.62067 l 57.96417,10.14898 -3.64155,15.3905 c -2.00285,8.46478 -7.83983,33.36225 -12.97106,55.32772 l -9.32951,39.9372 -6.52548,-0.19977 c -3.58901,-0.10988 -31.02926,-3.25331 -60.97833,-6.98541 z"
         id="path5912"
         inkscape:connector-curvature="0" />
      <path
         style="fill:#00c2c2;fill-opacity:1;fill-rule:nonzero;stroke:none"
         d="m 724.28171,552.21785 c -28.84354,-2.64248 -52.55267,-4.91066 -52.68695,-5.04041 -0.37378,-0.36116 25.45205,-109.88802 26.05295,-110.49006 0.28967,-0.29022 26.61607,4.36024 58.50309,10.33436 l 57.97641,10.86204 -7.00682,22.74494 c -3.85374,12.50973 -10.7498,34.90765 -15.32456,49.77316 -7.38288,23.99042 -8.69727,27.0053 -11.69453,26.82435 -1.85724,-0.11213 -26.97605,-2.3659 -55.81959,-5.00838 z"
         id="path5914"
         inkscape:connector-curvature="0" />
      <path
         style="fill:#00ffff;fill-opacity:1;fill-rule:nonzero;stroke:none"
         d="m 756.93928,444.42986 c -31.29423,-5.91121 -57.22819,-11.07723 -57.63102,-11.48006 -0.75551,-0.75551 33.50251,-107.26683 34.97445,-108.73877 0.73481,-0.7348 114.16815,22.83006 115.28831,23.95022 0.5197,0.51969 -34.23066,105.92521 -35.13918,106.58493 -0.32668,0.23722 -26.19834,-4.40512 -57.49256,-10.31632 z"
         id="path5916"
         inkscape:connector-curvature="0" />
      <path
         style="fill:#00c2c2;fill-opacity:1;fill-rule:nonzero;stroke:none"
         d="m 793.77822,333.10756 c -31.44516,-6.719 -57.39967,-12.91034 -57.67668,-13.75854 -0.53014,-1.62329 32.29437,-113.15967 33.72254,-114.58784 0.84516,-0.84516 115.54734,25.90613 116.90663,27.26542 0.53827,0.53827 -32.5618,105.60939 -35.42391,112.44779 -0.19556,0.46725 -26.08342,-4.64782 -57.52858,-11.36683 z"
         id="path5918"
         inkscape:connector-curvature="0" />
      <path
         style="fill:#00c2c2;fill-opacity:1;fill-rule:nonzero;stroke:none"
         d="m 933.24609,366.0696 c -18.63736,-4.67043 -44.1166,-11.15591 -56.62051,-14.41219 l -22.7344,-5.92049 18.11829,-55.85973 c 9.96507,-30.72285 18.75214,-56.07101 19.52683,-56.32924 1.6998,-0.5666 109.9692,27.73138 111.3378,29.09995 0.8539,0.85392 -32.23994,105.80167 -34.73778,110.16097 -0.67665,1.18092 -12.05507,-1.0169 -34.89023,-6.73927 z"
         id="path5920"
         inkscape:connector-curvature="0" />
      <path
         style="fill:#00c2c2;fill-opacity:1;fill-rule:nonzero;stroke:none"
         d="m 873.84659,470.31736 c -30.00725,-7.81293 -54.84238,-14.48909 -55.18919,-14.8359 -0.53752,-0.53751 32.8798,-104.28345 34.14872,-106.01665 0.70208,-0.95894 113.51737,27.50582 113.53448,28.64623 0.0383,2.55038 -36.06601,106.68894 -36.94336,106.5588 -0.54562,-0.0809 -25.54341,-6.53955 -55.55065,-14.35248 z"
         id="path5922"
         inkscape:connector-curvature="0" />
      <path
         style="fill:#00c2c2;fill-opacity:1;fill-rule:nonzero;stroke:none"
         d="m 838.53794,570.48533 c -27.23967,-6.73663 -50.00269,-12.74342 -50.58449,-13.34842 -0.88356,-0.91879 27.47428,-96.21511 29.12664,-97.87986 0.465,-0.46849 110.50831,27.12295 111.77831,28.02646 0.50477,0.35911 -36.04123,86.75117 -38.95076,92.07675 -1.82758,3.34519 -2.25848,3.27075 -51.3697,-8.87493 l 0,0 z"
         id="path5924"
         inkscape:connector-curvature="0" />
      <path
         transform="translate(-36.59962,107.97379)"
         style="fill:none;stroke:#000000;stroke-width:1;display:inline"
         d="M 925.34047,476.85981 968.698,376.484"
         id="polyline5826-1"
         inkscape:connector-curvature="0"
         sodipodi:nodetypes="cc" />
    </g>
  </g>
  <g
     transform="translate(-383.22274,-121.76914)"
     style="display:inline"
     inkscape:label="Nodes copy"
     id="g15249"
     inkscape:groupmode="layer">
    <g
       transform="matrix(7.9816531,0,0,7.9816531,-1221.079,-2175.1351)"
       id="g15251"
       style="stroke-width:0.3000026;stroke-miterlimit:4;stroke-dasharray:none;display:inline">
      <path
         transform="matrix(0.96619202,-0.03354246,0.02960379,0.92774794,231.14997,209.27338)"
         style="fill:#ffffff;fill-opacity:1;stroke:#000000;stroke-width:0.31669259;stroke-opacity:1"
         d="m 3.125,92.99794 c 0,1.402286 -1.136777,2.539063 -2.5390625,2.539063 -1.4022855,0 -2.5390625,-1.136777 -2.5390625,-2.539063 0,-1.402285 1.136777,-2.539062 2.5390625,-2.539062 1.4022855,0 2.5390625,1.136777 2.5390625,2.539062 z"
         id="path15253"
         inkscape:connector-curvature="0" />
      <g
         transform="matrix(2.4050141,0,0,2.269239,-329.60718,-371.65497)"
         style="font-size:1.2528733px;font-style:normal;font-weight:normal;line-height:125%;letter-spacing:0px;word-spacing:0px;fill:#000000;fill-opacity:1;stroke:none;font-family:Sans;-inkscape-font-specification:Sans"
         id="flowRoot15255">
        <path
           d="m 233.88617,294.3323 0.20188,0 0,-0.69679 -0.21962,0.044 0,-0.11256 0.21839,-0.0441 0.12358,0 0,0.80935 0.20188,0 0,0.104 -0.52611,0 0,-0.104"
           style="text-align:center;text-anchor:middle;-inkscape-font-specification:Sans"
           id="path15497"
           inkscape:connector-curvature="0" />
        <path
           d="m 234.63129,293.52295 0.58728,0 0,0.0526 -0.33157,0.86074 -0.12908,0 0.31199,-0.80935 -0.43862,0 0,-0.104"
           style="text-align:center;text-anchor:middle;-inkscape-font-specification:Sans"
           id="path15499"
           inkscape:connector-curvature="0" />
      </g>
    </g>
    <g
       transform="matrix(7.9816531,0,0,7.9816531,-1259.0845,-2064.2032)"
       id="g15263"
       style="stroke-width:0.3000026;stroke-miterlimit:4;stroke-dasharray:none;display:inline">
      <path
         transform="matrix(0.96619202,-0.03354246,0.02960379,0.92774794,231.14997,209.27338)"
         style="fill:#ffffff;fill-opacity:1;stroke:#000000;stroke-width:0.31669259;stroke-opacity:1"
         d="m 3.125,92.99794 c 0,1.402286 -1.136777,2.539063 -2.5390625,2.539063 -1.4022855,0 -2.5390625,-1.136777 -2.5390625,-2.539063 0,-1.402285 1.136777,-2.539062 2.5390625,-2.539062 1.4022855,0 2.5390625,1.136777 2.5390625,2.539062 z"
         id="path15265"
         inkscape:connector-curvature="0" />
      <g
         transform="matrix(2.4050141,0,0,2.269239,-329.60718,-371.65497)"
         style="font-size:1.2528733px;font-style:normal;font-weight:normal;line-height:125%;letter-spacing:0px;word-spacing:0px;fill:#000000;fill-opacity:1;stroke:none;font-family:Sans;-inkscape-font-specification:Sans"
         id="flowRoot15267">
        <path
           d="m 234.23242,293.52295 0.58729,0 0,0.0526 -0.33157,0.86074 -0.12908,0 0.31199,-0.80935 -0.43863,0 0,-0.104"
           style="text-align:center;text-anchor:middle;-inkscape-font-specification:Sans"
           id="path15503"
           inkscape:connector-curvature="0" />
      </g>
    </g>
    <g
       transform="matrix(7.9816531,0,0,7.9816531,-1297.2173,-1947.5619)"
       id="g15275"
       style="stroke-width:0.3000026;stroke-miterlimit:4;stroke-dasharray:none;display:inline">
      <path
         transform="matrix(0.96619202,-0.03354246,0.02960379,0.92774794,231.14997,209.27338)"
         style="fill:#ffffff;fill-opacity:1;stroke:#000000;stroke-width:0.31669259;stroke-opacity:1"
         d="m 3.125,92.99794 c 0,1.402286 -1.136777,2.539063 -2.5390625,2.539063 -1.4022855,0 -2.5390625,-1.136777 -2.5390625,-2.539063 0,-1.402285 1.136777,-2.539062 2.5390625,-2.539062 1.4022855,0 2.5390625,1.136777 2.5390625,2.539062 z"
         id="path15277"
         inkscape:connector-curvature="0" />
      <g
         transform="matrix(2.4050141,0,0,2.269239,-329.60718,-371.65497)"
         style="font-size:1.2528733px;font-style:normal;font-weight:normal;line-height:125%;letter-spacing:0px;word-spacing:0px;fill:#000000;fill-opacity:1;stroke:none;font-family:Sans;-inkscape-font-specification:Sans"
         id="flowRoot15279">
        <path
           d="m 233.88617,294.3323 0.20188,0 0,-0.69679 -0.21962,0.044 0,-0.11256 0.21839,-0.0441 0.12358,0 0,0.80935 0.20188,0 0,0.104 -0.52611,0 0,-0.104"
           style="text-align:center;text-anchor:middle;-inkscape-font-specification:Sans"
           id="path15507"
           inkscape:connector-curvature="0" />
        <path
           d="m 234.66616,294.41734 0,-0.11257 c 0.031,0.0147 0.0624,0.0259 0.0942,0.0336 0.0318,0.008 0.063,0.0116 0.0936,0.0116 0.0816,0 0.14377,-0.0273 0.18659,-0.082 0.0432,-0.0551 0.0679,-0.13846 0.074,-0.25021 -0.0236,0.0351 -0.0536,0.062 -0.0899,0.0808 -0.0363,0.0188 -0.0765,0.0281 -0.12051,0.0281 -0.0914,0 -0.16375,-0.0275 -0.21717,-0.0826 -0.053,-0.0555 -0.0795,-0.13112 -0.0795,-0.22697 0,-0.0938 0.0277,-0.16904 0.0832,-0.22573 0.0555,-0.0567 0.12928,-0.085 0.22145,-0.085 0.10563,0 0.18618,0.0406 0.24164,0.12174 0.0559,0.0807 0.0838,0.19821 0.0838,0.35237 0,0.14397 -0.0342,0.25898 -0.10277,0.34503 -0.0681,0.0856 -0.15987,0.12847 -0.27529,0.12847 -0.031,0 -0.0624,-0.003 -0.0942,-0.009 -0.0318,-0.006 -0.0649,-0.0153 -0.0991,-0.0275 m 0.24592,-0.38724 c 0.0555,0 0.0993,-0.019 0.13153,-0.0569 0.0326,-0.0379 0.0489,-0.0899 0.0489,-0.156 0,-0.0657 -0.0163,-0.11745 -0.0489,-0.15538 -0.0322,-0.0383 -0.0761,-0.0575 -0.13153,-0.0575 -0.0555,1e-5 -0.0995,0.0192 -0.13214,0.0575 -0.0322,0.0379 -0.0483,0.0897 -0.0483,0.15538 0,0.0661 0.0161,0.11807 0.0483,0.156 0.0326,0.0379 0.0767,0.0569 0.13214,0.0569"
           style="text-align:center;text-anchor:middle;-inkscape-font-specification:Sans"
           id="path15509"
           inkscape:connector-curvature="0" />
      </g>
    </g>
    <g
       transform="matrix(7.9816531,0,0,7.9816531,-1333.1069,-1833.1636)"
       id="g15287"
       style="stroke-width:0.3000026;stroke-miterlimit:4;stroke-dasharray:none;display:inline">
      <path
         transform="matrix(0.96619202,-0.03354246,0.02960379,0.92774794,231.14997,209.27338)"
         style="fill:#ffffff;fill-opacity:1;stroke:#000000;stroke-width:0.31669259;stroke-opacity:1"
         d="m 3.125,92.99794 c 0,1.402286 -1.136777,2.539063 -2.5390625,2.539063 -1.4022855,0 -2.5390625,-1.136777 -2.5390625,-2.539063 0,-1.402285 1.136777,-2.539062 2.5390625,-2.539062 1.4022855,0 2.5390625,1.136777 2.5390625,2.539062 z"
         id="path15289"
         inkscape:connector-curvature="0" />
      <g
         transform="matrix(2.4050141,0,0,2.269239,-329.60718,-371.65497)"
         style="font-size:1.2528733px;font-style:normal;font-weight:normal;line-height:125%;letter-spacing:0px;word-spacing:0px;fill:#000000;fill-opacity:1;stroke:none;font-family:Sans;-inkscape-font-specification:Sans"
         id="flowRoot15291">
        <path
           d="m 234.5279,293.60431 c -0.0636,10e-6 -0.11154,0.0314 -0.14376,0.0942 -0.0318,0.0624 -0.0477,0.15641 -0.0477,0.28202 0,0.12521 0.0159,0.21922 0.0477,0.28202 0.0322,0.0624 0.0801,0.0936 0.14376,0.0936 0.064,0 0.11195,-0.0312 0.14376,-0.0936 0.0322,-0.0628 0.0483,-0.15681 0.0483,-0.28202 0,-0.12561 -0.0161,-0.21962 -0.0483,-0.28202 -0.0318,-0.0628 -0.0797,-0.0942 -0.14376,-0.0942 m 0,-0.0979 c 0.10237,0 0.18047,0.0406 0.2343,0.12174 0.0542,0.0807 0.0814,0.19821 0.0814,0.35237 0,0.15376 -0.0271,0.27121 -0.0814,0.35237 -0.0538,0.0808 -0.13193,0.12113 -0.2343,0.12113 -0.10237,0 -0.18067,-0.0404 -0.23491,-0.12113 -0.0538,-0.0812 -0.0808,-0.19861 -0.0808,-0.35237 0,-0.15416 0.0269,-0.27162 0.0808,-0.35237 0.0542,-0.0812 0.13254,-0.12174 0.23491,-0.12174"
           style="text-align:center;text-anchor:middle;-inkscape-font-specification:Sans"
           id="path15513"
           inkscape:connector-curvature="0" />
      </g>
    </g>
    <g
       transform="matrix(7.9816531,0,0,7.9816531,-1332.049,-2197.0563)"
       id="g15299"
       style="stroke-width:0.3000026;stroke-miterlimit:4;stroke-dasharray:none;display:inline">
      <path
         transform="matrix(0.96619202,-0.03354246,0.02960379,0.92774794,231.14997,209.27338)"
         style="fill:#ffffff;fill-opacity:1;stroke:#000000;stroke-width:0.31669259;stroke-opacity:1"
         d="m 3.125,92.99794 c 0,1.402286 -1.136777,2.539063 -2.5390625,2.539063 -1.4022855,0 -2.5390625,-1.136777 -2.5390625,-2.539063 0,-1.402285 1.136777,-2.539062 2.5390625,-2.539062 1.4022855,0 2.5390625,1.136777 2.5390625,2.539062 z"
         id="path15301"
         inkscape:connector-curvature="0" />
      <g
         transform="matrix(2.4050141,0,0,2.269239,-329.60718,-371.65497)"
         style="font-size:1.2528733px;font-style:normal;font-weight:normal;line-height:125%;letter-spacing:0px;word-spacing:0px;fill:#000000;fill-opacity:1;stroke:none;font-family:Sans;-inkscape-font-specification:Sans"
         id="flowRoot15303">
        <path
           d="m 234.28503,294.3323 0.20188,0 0,-0.69679 -0.21962,0.044 0,-0.11256 0.2184,-0.0441 0.12357,0 0,0.80935 0.20188,0 0,0.104 -0.52611,0 0,-0.104"
           style="text-align:center;text-anchor:middle;-inkscape-font-specification:Sans"
           id="path15517"
           inkscape:connector-curvature="0" />
      </g>
    </g>
    <g
       transform="matrix(7.9816531,0,0,7.9816531,-1370.0545,-2086.1244)"
       id="g15311"
       style="stroke-width:0.3000026;stroke-miterlimit:4;stroke-dasharray:none;display:inline">
      <path
         transform="matrix(0.96619202,-0.03354246,0.02960379,0.92774794,231.14997,209.27338)"
         style="fill:#ffffff;fill-opacity:1;stroke:#000000;stroke-width:0.31669259;stroke-opacity:1"
         d="m 3.125,92.99794 c 0,1.402286 -1.136777,2.539063 -2.5390625,2.539063 -1.4022855,0 -2.5390625,-1.136777 -2.5390625,-2.539063 0,-1.402285 1.136777,-2.539062 2.5390625,-2.539062 1.4022855,0 2.5390625,1.136777 2.5390625,2.539062 z"
         id="path15313"
         inkscape:connector-curvature="0" />
      <g
         transform="matrix(2.4050141,0,0,2.269239,-329.60718,-371.65497)"
         style="font-size:1.2528733px;font-style:normal;font-weight:normal;line-height:125%;letter-spacing:0px;word-spacing:0px;fill:#000000;fill-opacity:1;stroke:none;font-family:Sans;-inkscape-font-specification:Sans"
         id="flowRoot15315">
        <path
           d="m 233.88617,294.3323 0.20188,0 0,-0.69679 -0.21962,0.044 0,-0.11256 0.21839,-0.0441 0.12358,0 0,0.80935 0.20188,0 0,0.104 -0.52611,0 0,-0.104"
           style="text-align:center;text-anchor:middle;-inkscape-font-specification:Sans"
           id="path15521"
           inkscape:connector-curvature="0" />
        <path
           d="m 234.92676,294.00257 c -0.0587,0 -0.10501,0.0157 -0.13887,0.0471 -0.0334,0.0314 -0.0502,0.0746 -0.0502,0.12969 0,0.0551 0.0167,0.0983 0.0502,0.1297 0.0339,0.0314 0.0801,0.0471 0.13887,0.0471 0.0587,0 0.10502,-0.0157 0.13887,-0.0471 0.0339,-0.0318 0.0508,-0.075 0.0508,-0.1297 0,-0.055 -0.0169,-0.0983 -0.0508,-0.12969 -0.0334,-0.0314 -0.0797,-0.0471 -0.13887,-0.0471 m -0.12357,-0.0526 c -0.053,-0.013 -0.0944,-0.0377 -0.12419,-0.074 -0.0294,-0.0363 -0.044,-0.0805 -0.044,-0.13275 0,-0.073 0.0259,-0.13071 0.0777,-0.17312 0.0522,-0.0424 0.12357,-0.0636 0.21411,-0.0636 0.0909,0 0.16232,0.0212 0.21412,0.0636 0.0518,0.0424 0.0777,0.10012 0.0777,0.17312 0,0.0522 -0.0149,0.0965 -0.0447,0.13275 -0.0294,0.0363 -0.0704,0.061 -0.12296,0.074 0.0595,0.0139 0.10583,0.041 0.13887,0.0814 0.0334,0.0404 0.0502,0.0897 0.0502,0.14804 0,0.0885 -0.0271,0.15641 -0.0814,0.20372 -0.0538,0.0473 -0.13112,0.071 -0.23186,0.071 -0.10073,0 -0.17822,-0.0237 -0.23246,-0.071 -0.0538,-0.0473 -0.0808,-0.11522 -0.0808,-0.20372 0,-0.0583 0.0167,-0.10766 0.0502,-0.14804 0.0334,-0.0404 0.0799,-0.0675 0.13948,-0.0814 m -0.0453,-0.19515 c 0,0.0473 0.0147,0.0842 0.044,0.11072 0.0298,0.0265 0.0714,0.0398 0.12479,0.0398 0.053,0 0.0944,-0.0133 0.12419,-0.0398 0.0302,-0.0265 0.0453,-0.0634 0.0453,-0.11072 0,-0.0473 -0.0151,-0.0842 -0.0453,-0.11073 -0.0298,-0.0265 -0.0712,-0.0398 -0.12419,-0.0398 -0.0534,1e-5 -0.095,0.0133 -0.12479,0.0398 -0.0294,0.0265 -0.044,0.0634 -0.044,0.11073"
           style="text-align:center;text-anchor:middle;-inkscape-font-specification:Sans"
           id="path15523"
           inkscape:connector-curvature="0" />
      </g>
    </g>
    <g
       transform="matrix(7.9816531,0,0,7.9816531,-1410.4304,-1972.8478)"
       id="g15323"
       style="stroke-width:0.3000026;stroke-miterlimit:4;stroke-dasharray:none;display:inline">
      <path
         transform="matrix(0.96619202,-0.03354246,0.02960379,0.92774794,231.14997,209.27338)"
         style="fill:#ffffff;fill-opacity:1;stroke:#000000;stroke-width:0.31669259;stroke-opacity:1"
         d="m 3.125,92.99794 c 0,1.402286 -1.136777,2.539063 -2.5390625,2.539063 -1.4022855,0 -2.5390625,-1.136777 -2.5390625,-2.539063 0,-1.402285 1.136777,-2.539062 2.5390625,-2.539062 1.4022855,0 2.5390625,1.136777 2.5390625,2.539062 z"
         id="path15325"
         inkscape:connector-curvature="0" />
      <g
         transform="matrix(2.4050141,0,0,2.269239,-329.60718,-371.65497)"
         style="font-size:1.2528733px;font-style:normal;font-weight:normal;line-height:125%;letter-spacing:0px;word-spacing:0px;fill:#000000;fill-opacity:1;stroke:none;font-family:Sans;-inkscape-font-specification:Sans"
         id="flowRoot15327">
        <path
           d="m 233.88617,294.3323 0.20188,0 0,-0.69679 -0.21962,0.044 0,-0.11256 0.21839,-0.0441 0.12358,0 0,0.80935 0.20188,0 0,0.104 -0.52611,0 0,-0.104"
           style="text-align:center;text-anchor:middle;-inkscape-font-specification:Sans"
           id="path15527"
           inkscape:connector-curvature="0" />
        <path
           d="m 234.92676,293.60431 c -0.0636,10e-6 -0.11154,0.0314 -0.14376,0.0942 -0.0318,0.0624 -0.0477,0.15641 -0.0477,0.28202 0,0.12521 0.0159,0.21922 0.0477,0.28202 0.0322,0.0624 0.0801,0.0936 0.14376,0.0936 0.064,0 0.11195,-0.0312 0.14377,-0.0936 0.0322,-0.0628 0.0483,-0.15681 0.0483,-0.28202 0,-0.12561 -0.0161,-0.21962 -0.0483,-0.28202 -0.0318,-0.0628 -0.0797,-0.0942 -0.14377,-0.0942 m 0,-0.0979 c 0.10237,0 0.18047,0.0406 0.23431,0.12174 0.0542,0.0807 0.0814,0.19821 0.0814,0.35237 0,0.15376 -0.0271,0.27121 -0.0814,0.35237 -0.0538,0.0808 -0.13194,0.12113 -0.23431,0.12113 -0.10236,0 -0.18067,-0.0404 -0.23491,-0.12113 -0.0538,-0.0812 -0.0807,-0.19861 -0.0807,-0.35237 0,-0.15416 0.0269,-0.27162 0.0807,-0.35237 0.0542,-0.0812 0.13255,-0.12174 0.23491,-0.12174"
           style="text-align:center;text-anchor:middle;-inkscape-font-specification:Sans"
           id="path15529"
           inkscape:connector-curvature="0" />
      </g>
    </g>
    <g
       transform="matrix(7.9816531,0,0,7.9816531,-1447.4416,-1856.2064)"
       id="g15335"
       style="stroke-width:0.3000026;stroke-miterlimit:4;stroke-dasharray:none;display:inline">
      <path
         transform="matrix(0.96619202,-0.03354246,0.02960379,0.92774794,231.14997,209.27338)"
         style="fill:#ffffff;fill-opacity:1;stroke:#000000;stroke-width:0.31669259;stroke-opacity:1"
         d="m 3.125,92.99794 c 0,1.402286 -1.136777,2.539063 -2.5390625,2.539063 -1.4022855,0 -2.5390625,-1.136777 -2.5390625,-2.539063 0,-1.402285 1.136777,-2.539062 2.5390625,-2.539062 1.4022855,0 2.5390625,1.136777 2.5390625,2.539062 z"
         id="path15337"
         inkscape:connector-curvature="0" />
      <g
         transform="matrix(2.4050141,0,0,2.269239,-329.60718,-371.65497)"
         style="font-size:1.2528733px;font-style:normal;font-weight:normal;line-height:125%;letter-spacing:0px;word-spacing:0px;fill:#000000;fill-opacity:1;stroke:none;font-family:Sans;-inkscape-font-specification:Sans"
         id="flowRoot15339">
        <path
           d="m 234.26729,294.41734 0,-0.11257 c 0.031,0.0147 0.0624,0.0259 0.0942,0.0336 0.0318,0.008 0.063,0.0116 0.0936,0.0116 0.0816,0 0.14376,-0.0273 0.18659,-0.082 0.0432,-0.0551 0.0679,-0.13846 0.074,-0.25021 -0.0237,0.0351 -0.0536,0.062 -0.0899,0.0808 -0.0363,0.0188 -0.0765,0.0281 -0.12052,0.0281 -0.0914,0 -0.16374,-0.0275 -0.21717,-0.0826 -0.053,-0.0555 -0.0795,-0.13112 -0.0795,-0.22697 0,-0.0938 0.0277,-0.16904 0.0832,-0.22573 0.0555,-0.0567 0.12929,-0.085 0.22146,-0.085 0.10563,0 0.18617,0.0406 0.24164,0.12174 0.0559,0.0807 0.0838,0.19821 0.0838,0.35237 0,0.14397 -0.0343,0.25898 -0.10277,0.34503 -0.0681,0.0856 -0.15988,0.12847 -0.27529,0.12847 -0.031,0 -0.0624,-0.003 -0.0942,-0.009 -0.0318,-0.006 -0.0649,-0.0153 -0.0991,-0.0275 m 0.24593,-0.38724 c 0.0555,0 0.0993,-0.019 0.13152,-0.0569 0.0326,-0.0379 0.0489,-0.0899 0.0489,-0.156 0,-0.0657 -0.0163,-0.11745 -0.0489,-0.15538 -0.0322,-0.0383 -0.0761,-0.0575 -0.13152,-0.0575 -0.0555,1e-5 -0.0995,0.0192 -0.13214,0.0575 -0.0322,0.0379 -0.0483,0.0897 -0.0483,0.15538 0,0.0661 0.0161,0.11807 0.0483,0.156 0.0326,0.0379 0.0767,0.0569 0.13214,0.0569"
           style="text-align:center;text-anchor:middle;-inkscape-font-specification:Sans"
           id="path15533"
           inkscape:connector-curvature="0" />
      </g>
    </g>
    <g
       transform="matrix(7.9816531,0,0,7.9816531,-1102.1309,-2151.0726)"
       id="g15347"
       style="stroke-width:0.3000026;stroke-miterlimit:4;stroke-dasharray:none;display:inline">
      <path
         transform="matrix(0.96619202,-0.03354246,0.02960379,0.92774794,231.14997,209.27338)"
         style="fill:#ffffff;fill-opacity:1;stroke:#000000;stroke-width:0.31669259;stroke-opacity:1"
         d="m 3.125,92.99794 c 0,1.402286 -1.136777,2.539063 -2.5390625,2.539063 -1.4022855,0 -2.5390625,-1.136777 -2.5390625,-2.539063 0,-1.402285 1.136777,-2.539062 2.5390625,-2.539062 1.4022855,0 2.5390625,1.136777 2.5390625,2.539062 z"
         id="path15349"
         inkscape:connector-curvature="0" />
      <g
         transform="matrix(2.4050141,0,0,2.269239,-329.60718,-371.65497)"
         style="font-size:1.2528733px;font-style:normal;font-weight:normal;line-height:125%;letter-spacing:0px;word-spacing:0px;fill:#000000;fill-opacity:1;stroke:none;font-family:Sans;-inkscape-font-specification:Sans"
         id="flowRoot15351">
        <path
           d="m 233.88617,294.3323 0.20188,0 0,-0.69679 -0.21962,0.044 0,-0.11256 0.21839,-0.0441 0.12358,0 0,0.80935 0.20188,0 0,0.104 -0.52611,0 0,-0.104"
           style="text-align:center;text-anchor:middle;-inkscape-font-specification:Sans"
           id="path15537"
           inkscape:connector-curvature="0" />
        <path
           d="m 235.03688,293.94384 c 0.0591,0.0126 0.10522,0.0389 0.13826,0.0789 0.0334,0.04 0.0502,0.0893 0.0502,0.14805 0,0.0901 -0.031,0.15987 -0.093,0.20922 -0.062,0.0494 -0.15008,0.074 -0.26428,0.074 -0.0383,0 -0.0779,-0.004 -0.11868,-0.0116 -0.0404,-0.007 -0.0822,-0.0186 -0.12541,-0.0337 l 0,-0.11929 c 0.0343,0.02 0.0718,0.0351 0.11257,0.0453 0.0408,0.0102 0.0834,0.0153 0.12785,0.0153 0.0775,0 0.13643,-0.0153 0.1768,-0.0459 0.0408,-0.0306 0.0612,-0.075 0.0612,-0.13336 0,-0.0538 -0.019,-0.0958 -0.0569,-0.12602 -0.0375,-0.0306 -0.0899,-0.0459 -0.15722,-0.0459 l -0.10644,0 0,-0.10156 0.11134,0 c 0.0608,10e-6 0.10726,-0.012 0.13948,-0.0361 0.0322,-0.0245 0.0483,-0.0595 0.0483,-0.10522 -1e-5,-0.0469 -0.0167,-0.0828 -0.0502,-0.10767 -0.033,-0.0253 -0.0805,-0.0379 -0.14254,-0.0379 -0.0339,0 -0.0701,0.004 -0.10889,0.011 -0.0387,0.007 -0.0814,0.0188 -0.12786,0.0343 l 0,-0.11011 c 0.0469,-0.0131 0.0908,-0.0228 0.13153,-0.0294 0.0412,-0.007 0.0799,-0.01 0.11623,-0.01 0.0938,0 0.16803,0.0214 0.22268,0.0642 0.0546,0.0424 0.082,0.0999 0.082,0.17251 0,0.0506 -0.0145,0.0934 -0.0434,0.12847 -0.029,0.0347 -0.0701,0.0587 -0.12357,0.0722"
           style="text-align:center;text-anchor:middle;-inkscape-font-specification:Sans"
           id="path15539"
           inkscape:connector-curvature="0" />
      </g>
    </g>
    <g
       transform="matrix(7.9816531,0,0,7.9816531,-1140.1364,-2040.1407)"
       id="g15359"
       style="stroke-width:0.3000026;stroke-miterlimit:4;stroke-dasharray:none;display:inline">
      <path
         transform="matrix(0.96619202,-0.03354246,0.02960379,0.92774794,231.14997,209.27338)"
         style="fill:#ffffff;fill-opacity:1;stroke:#000000;stroke-width:0.31669259;stroke-opacity:1"
         d="m 3.125,92.99794 c 0,1.402286 -1.136777,2.539063 -2.5390625,2.539063 -1.4022855,0 -2.5390625,-1.136777 -2.5390625,-2.539063 0,-1.402285 1.136777,-2.539062 2.5390625,-2.539062 1.4022855,0 2.5390625,1.136777 2.5390625,2.539062 z"
         id="path15361"
         inkscape:connector-curvature="0" />
      <g
         transform="matrix(2.4050141,0,0,2.269239,-329.60718,-371.65497)"
         style="font-size:1.2528733px;font-style:normal;font-weight:normal;line-height:125%;letter-spacing:0px;word-spacing:0px;fill:#000000;fill-opacity:1;stroke:none;font-family:Sans;-inkscape-font-specification:Sans"
         id="flowRoot15363">
        <path
           d="m 233.88617,294.3323 0.20188,0 0,-0.69679 -0.21962,0.044 0,-0.11256 0.21839,-0.0441 0.12358,0 0,0.80935 0.20188,0 0,0.104 -0.52611,0 0,-0.104"
           style="text-align:center;text-anchor:middle;-inkscape-font-specification:Sans"
           id="path15543"
           inkscape:connector-curvature="0" />
        <path
           d="m 234.94206,293.93038 c -0.0555,0 -0.0995,0.019 -0.13214,0.0569 -0.0322,0.0379 -0.0483,0.0899 -0.0483,0.156 0,0.0657 0.0161,0.11766 0.0483,0.156 0.0326,0.0379 0.0767,0.0569 0.13214,0.0569 0.0555,0 0.0993,-0.019 0.13152,-0.0569 0.0326,-0.0383 0.0489,-0.0903 0.0489,-0.156 0,-0.0661 -0.0163,-0.11807 -0.0489,-0.156 -0.0322,-0.0379 -0.0761,-0.0569 -0.13152,-0.0569 m 0.24531,-0.38724 0,0.11256 c -0.031,-0.0147 -0.0624,-0.0259 -0.0942,-0.0336 -0.0314,-0.008 -0.0626,-0.0116 -0.0936,-0.0116 -0.0816,0 -0.14396,0.0275 -0.18719,0.0826 -0.0428,0.0551 -0.0673,0.13826 -0.0734,0.24959 0.0241,-0.0355 0.0543,-0.0626 0.0905,-0.0814 0.0363,-0.0192 0.0763,-0.0288 0.11991,-0.0288 0.0918,0 0.16415,0.0279 0.21717,0.0838 0.0534,0.0555 0.0801,0.13112 0.0801,0.22696 0,0.0938 -0.0277,0.16905 -0.0832,0.22574 -0.0555,0.0567 -0.12928,0.085 -0.22145,0.085 -0.10563,0 -0.18638,-0.0404 -0.24226,-0.12113 -0.0559,-0.0812 -0.0838,-0.19861 -0.0838,-0.35237 0,-0.14437 0.0343,-0.25938 0.10278,-0.34503 0.0685,-0.0861 0.16048,-0.12908 0.2759,-0.12908 0.031,0 0.0622,0.003 0.0936,0.009 0.0318,0.006 0.0648,0.0153 0.0991,0.0275"
           style="text-align:center;text-anchor:middle;-inkscape-font-specification:Sans"
           id="path15545"
           inkscape:connector-curvature="0" />
      </g>
    </g>
    <g
       transform="matrix(7.9816531,0,0,7.9816531,-1178.2692,-1923.4994)"
       id="g15371"
       style="stroke-width:0.3000026;stroke-miterlimit:4;stroke-dasharray:none;display:inline">
      <path
         transform="matrix(0.96619202,-0.03354246,0.02960379,0.92774794,231.14997,209.27338)"
         style="fill:#ffffff;fill-opacity:1;stroke:#000000;stroke-width:0.31669259;stroke-opacity:1"
         d="m 3.125,92.99794 c 0,1.402286 -1.136777,2.539063 -2.5390625,2.539063 -1.4022855,0 -2.5390625,-1.136777 -2.5390625,-2.539063 0,-1.402285 1.136777,-2.539062 2.5390625,-2.539062 1.4022855,0 2.5390625,1.136777 2.5390625,2.539062 z"
         id="path15373"
         inkscape:connector-curvature="0" />
      <g
         transform="matrix(2.4050141,0,0,2.269239,-329.60718,-371.65497)"
         style="font-size:1.2528733px;font-style:normal;font-weight:normal;line-height:125%;letter-spacing:0px;word-spacing:0px;fill:#000000;fill-opacity:1;stroke:none;font-family:Sans;-inkscape-font-specification:Sans"
         id="flowRoot15375">
        <path
           d="m 234.5279,294.00257 c -0.0587,0 -0.10502,0.0157 -0.13887,0.0471 -0.0334,0.0314 -0.0502,0.0746 -0.0502,0.12969 0,0.0551 0.0167,0.0983 0.0502,0.1297 0.0339,0.0314 0.0801,0.0471 0.13887,0.0471 0.0587,0 0.10502,-0.0157 0.13887,-0.0471 0.0338,-0.0318 0.0508,-0.075 0.0508,-0.1297 0,-0.055 -0.0169,-0.0983 -0.0508,-0.12969 -0.0335,-0.0314 -0.0797,-0.0471 -0.13887,-0.0471 m -0.12358,-0.0526 c -0.053,-0.013 -0.0944,-0.0377 -0.12418,-0.074 -0.0294,-0.0363 -0.044,-0.0805 -0.044,-0.13275 0,-0.073 0.0259,-0.13071 0.0777,-0.17312 0.0522,-0.0424 0.12357,-0.0636 0.21411,-0.0636 0.091,0 0.16232,0.0212 0.21411,0.0636 0.0518,0.0424 0.0777,0.10012 0.0777,0.17312 0,0.0522 -0.0149,0.0965 -0.0447,0.13275 -0.0294,0.0363 -0.0703,0.061 -0.12296,0.074 0.0595,0.0139 0.10583,0.041 0.13886,0.0814 0.0334,0.0404 0.0502,0.0897 0.0502,0.14804 0,0.0885 -0.0271,0.15641 -0.0814,0.20372 -0.0538,0.0473 -0.13112,0.071 -0.23185,0.071 -0.10074,0 -0.17823,-0.0237 -0.23247,-0.071 -0.0538,-0.0473 -0.0808,-0.11522 -0.0808,-0.20372 0,-0.0583 0.0167,-0.10766 0.0502,-0.14804 0.0335,-0.0404 0.0799,-0.0675 0.13948,-0.0814 m -0.0453,-0.19515 c -10e-6,0.0473 0.0147,0.0842 0.044,0.11072 0.0298,0.0265 0.0714,0.0398 0.1248,0.0398 0.053,0 0.0944,-0.0133 0.12419,-0.0398 0.0302,-0.0265 0.0453,-0.0634 0.0453,-0.11072 -10e-6,-0.0473 -0.0151,-0.0842 -0.0453,-0.11073 -0.0298,-0.0265 -0.0712,-0.0398 -0.12419,-0.0398 -0.0534,1e-5 -0.095,0.0133 -0.1248,0.0398 -0.0294,0.0265 -0.044,0.0634 -0.044,0.11073"
           style="text-align:center;text-anchor:middle;-inkscape-font-specification:Sans"
           id="path15549"
           inkscape:connector-curvature="0" />
      </g>
    </g>
    <g
       transform="matrix(7.9816531,0,0,7.9816531,-1199.5786,-1809.1011)"
       id="g15383"
       style="stroke-width:0.3000026;stroke-miterlimit:4;stroke-dasharray:none;display:inline">
      <path
         transform="matrix(0.96619202,-0.03354246,0.02960379,0.92774794,231.14997,209.27338)"
         style="fill:#ffffff;fill-opacity:1;stroke:#000000;stroke-width:0.31669259;stroke-opacity:1"
         d="m 3.125,92.99794 c 0,1.402286 -1.136777,2.539063 -2.5390625,2.539063 -1.4022855,0 -2.5390625,-1.136777 -2.5390625,-2.539063 0,-1.402285 1.136777,-2.539062 2.5390625,-2.539062 1.4022855,0 2.5390625,1.136777 2.5390625,2.539062 z"
         id="path15385"
         inkscape:connector-curvature="0" />
      <g
         transform="matrix(2.4050141,0,0,2.269239,-329.60718,-371.65497)"
         style="font-size:1.2528733px;font-style:normal;font-weight:normal;line-height:125%;letter-spacing:0px;word-spacing:0px;fill:#000000;fill-opacity:1;stroke:none;font-family:Sans;-inkscape-font-specification:Sans"
         id="flowRoot15387">
        <path
           d="m 233.88617,294.3323 0.20188,0 0,-0.69679 -0.21962,0.044 0,-0.11256 0.21839,-0.0441 0.12358,0 0,0.80935 0.20188,0 0,0.104 -0.52611,0 0,-0.104"
           style="text-align:center;text-anchor:middle;-inkscape-font-specification:Sans"
           id="path15553"
           inkscape:connector-curvature="0" />
        <path
           d="m 234.76893,294.3323 0.43129,0 0,0.104 -0.57995,0 0,-0.104 c 0.0469,-0.0485 0.11073,-0.11358 0.19148,-0.19515 0.0812,-0.082 0.13214,-0.13479 0.15294,-0.15844 0.0396,-0.0445 0.0671,-0.082 0.0826,-0.11256 0.0159,-0.031 0.0239,-0.0614 0.0239,-0.0912 0,-0.0485 -0.0171,-0.0881 -0.0514,-0.11868 -0.0339,-0.0306 -0.0781,-0.0459 -0.13275,-0.0459 -0.0387,0 -0.0797,0.007 -0.12296,0.0202 -0.0428,0.0135 -0.0887,0.0338 -0.13765,0.0612 l 0,-0.1248 c 0.0498,-0.02 0.0963,-0.0351 0.13948,-0.0453 0.0432,-0.0102 0.0828,-0.0153 0.11868,-0.0153 0.0946,0 0.17007,0.0237 0.22635,0.071 0.0563,0.0473 0.0844,0.11052 0.0844,0.18964 0,0.0375 -0.007,0.0732 -0.0214,0.10706 -0.0139,0.0334 -0.0394,0.073 -0.0765,0.11868 -0.0102,0.0118 -0.0426,0.0461 -0.0973,0.10277 -0.0547,0.0563 -0.13173,0.1352 -0.23124,0.23675"
           style="text-align:center;text-anchor:middle;-inkscape-font-specification:Sans"
           id="path15555"
           inkscape:connector-curvature="0" />
      </g>
    </g>
    <g
       transform="matrix(7.9816531,0,0,7.9816531,-979.8818,-2128.6416)"
       id="g15395"
       style="stroke-width:0.3000026;stroke-miterlimit:4;stroke-dasharray:none;display:inline">
      <path
         transform="matrix(0.96619202,-0.03354246,0.02960379,0.92774794,231.14997,209.27338)"
         style="fill:#ffffff;fill-opacity:1;stroke:#000000;stroke-width:0.31669259;stroke-opacity:1"
         d="m 3.125,92.99794 c 0,1.402286 -1.136777,2.539063 -2.5390625,2.539063 -1.4022855,0 -2.5390625,-1.136777 -2.5390625,-2.539063 0,-1.402285 1.136777,-2.539062 2.5390625,-2.539062 1.4022855,0 2.5390625,1.136777 2.5390625,2.539062 z"
         id="path15397"
         inkscape:connector-curvature="0" />
      <g
         transform="matrix(2.4050141,0,0,2.269239,-329.60718,-371.65497)"
         style="font-size:1.2528733px;font-style:normal;font-weight:normal;line-height:125%;letter-spacing:0px;word-spacing:0px;fill:#000000;fill-opacity:1;stroke:none;font-family:Sans;-inkscape-font-specification:Sans"
         id="flowRoot15399">
        <path
           d="m 234.60315,293.63062 -0.312,0.48757 0.312,0 0,-0.48757 m -0.0324,-0.10767 0.15539,0 0,0.59524 0.1303,0 0,0.10277 -0.1303,0 0,0.21534 -0.12296,0 0,-0.21534 -0.41233,0 0,-0.11929 0.3799,-0.57872"
           style="text-align:center;text-anchor:middle;-inkscape-font-specification:Sans"
           id="path15559"
           inkscape:connector-curvature="0" />
      </g>
    </g>
    <g
       transform="matrix(7.9816531,0,0,7.9816531,-1017.8872,-2017.7097)"
       id="g15407"
       style="stroke-width:0.3000026;stroke-miterlimit:4;stroke-dasharray:none;display:inline">
      <path
         transform="matrix(0.96619202,-0.03354246,0.02960379,0.92774794,231.14997,209.27338)"
         style="fill:#ffffff;fill-opacity:1;stroke:#000000;stroke-width:0.31669259;stroke-opacity:1"
         d="m 3.125,92.99794 c 0,1.402286 -1.136777,2.539063 -2.5390625,2.539063 -1.4022855,0 -2.5390625,-1.136777 -2.5390625,-2.539063 0,-1.402285 1.136777,-2.539062 2.5390625,-2.539062 1.4022855,0 2.5390625,1.136777 2.5390625,2.539062 z"
         id="path15409"
         inkscape:connector-curvature="0" />
      <g
         transform="matrix(2.4050141,0,0,2.269239,-329.60718,-371.65497)"
         style="font-size:1.2528733px;font-style:normal;font-weight:normal;line-height:125%;letter-spacing:0px;word-spacing:0px;fill:#000000;fill-opacity:1;stroke:none;font-family:Sans;-inkscape-font-specification:Sans"
         id="flowRoot15411">
        <path
           d="m 233.88617,294.3323 0.20188,0 0,-0.69679 -0.21962,0.044 0,-0.11256 0.21839,-0.0441 0.12358,0 0,0.80935 0.20188,0 0,0.104 -0.52611,0 0,-0.104"
           style="text-align:center;text-anchor:middle;-inkscape-font-specification:Sans"
           id="path15563"
           inkscape:connector-curvature="0" />
        <path
           d="m 234.66371,293.52295 0.48512,0 0,0.104 -0.37195,0 0,0.2239 c 0.0179,-0.006 0.0359,-0.0106 0.0538,-0.0135 0.0179,-0.003 0.0359,-0.005 0.0538,-0.005 0.10196,0 0.18271,0.0279 0.24226,0.0838 0.0595,0.0559 0.0893,0.13153 0.0893,0.22696 0,0.0983 -0.0306,0.17476 -0.0918,0.22941 -0.0612,0.0542 -0.14743,0.0814 -0.25877,0.0814 -0.0383,0 -0.0775,-0.003 -0.11746,-0.01 -0.0396,-0.007 -0.0806,-0.0163 -0.12296,-0.0294 l 0,-0.12419 c 0.0367,0.02 0.0746,0.0349 0.11378,0.0447 0.0392,0.01 0.0806,0.0147 0.12419,0.0147 0.0706,0 0.12643,-0.0186 0.16762,-0.0557 0.0412,-0.0371 0.0618,-0.0875 0.0618,-0.1511 0,-0.0636 -0.0206,-0.11399 -0.0618,-0.1511 -0.0412,-0.0371 -0.0971,-0.0557 -0.16762,-0.0557 -0.033,0 -0.0661,0.004 -0.0991,0.011 -0.0326,0.007 -0.0661,0.0188 -0.10033,0.0343 l 0,-0.45882"
           style="text-align:center;text-anchor:middle;-inkscape-font-specification:Sans"
           id="path15565"
           inkscape:connector-curvature="0" />
      </g>
    </g>
    <g
       transform="matrix(7.9816531,0,0,7.9816531,-1056.02,-1901.0684)"
       id="g15419"
       style="stroke-width:0.3000026;stroke-miterlimit:4;stroke-dasharray:none;display:inline">
      <path
         transform="matrix(0.96619202,-0.03354246,0.02960379,0.92774794,231.14997,209.27338)"
         style="fill:#ffffff;fill-opacity:1;stroke:#000000;stroke-width:0.31669259;stroke-opacity:1"
         d="m 3.125,92.99794 c 0,1.402286 -1.136777,2.539063 -2.5390625,2.539063 -1.4022855,0 -2.5390625,-1.136777 -2.5390625,-2.539063 0,-1.402285 1.136777,-2.539062 2.5390625,-2.539062 1.4022855,0 2.5390625,1.136777 2.5390625,2.539062 z"
         id="path15421"
         inkscape:connector-curvature="0" />
      <g
         transform="matrix(2.4050141,0,0,2.269239,-329.60718,-371.65497)"
         style="font-size:1.2528733px;font-style:normal;font-weight:normal;line-height:125%;letter-spacing:0px;word-spacing:0px;fill:#000000;fill-opacity:1;stroke:none;font-family:Sans;-inkscape-font-specification:Sans"
         id="flowRoot15423">
        <path
           d="m 234.54319,293.93038 c -0.0555,0 -0.0995,0.019 -0.13214,0.0569 -0.0322,0.0379 -0.0483,0.0899 -0.0483,0.156 0,0.0657 0.0161,0.11766 0.0483,0.156 0.0326,0.0379 0.0767,0.0569 0.13214,0.0569 0.0555,0 0.0993,-0.019 0.13153,-0.0569 0.0326,-0.0383 0.0489,-0.0903 0.0489,-0.156 0,-0.0661 -0.0163,-0.11807 -0.0489,-0.156 -0.0322,-0.0379 -0.0761,-0.0569 -0.13153,-0.0569 m 0.24532,-0.38724 0,0.11256 c -0.031,-0.0147 -0.0624,-0.0259 -0.0942,-0.0336 -0.0314,-0.008 -0.0626,-0.0116 -0.0936,-0.0116 -0.0816,0 -0.14397,0.0275 -0.1872,0.0826 -0.0428,0.0551 -0.0673,0.13826 -0.0734,0.24959 0.0241,-0.0355 0.0542,-0.0626 0.0905,-0.0814 0.0363,-0.0192 0.0763,-0.0288 0.1199,-0.0288 0.0918,0 0.16416,0.0279 0.21718,0.0838 0.0534,0.0555 0.0801,0.13112 0.0801,0.22696 0,0.0938 -0.0277,0.16905 -0.0832,0.22574 -0.0555,0.0567 -0.12929,0.085 -0.22146,0.085 -0.10563,0 -0.18638,-0.0404 -0.24225,-0.12113 -0.0559,-0.0812 -0.0838,-0.19861 -0.0838,-0.35237 0,-0.14437 0.0343,-0.25938 0.10277,-0.34503 0.0685,-0.0861 0.16049,-0.12908 0.2759,-0.12908 0.031,0 0.0622,0.003 0.0936,0.009 0.0318,0.006 0.0649,0.0153 0.0991,0.0275"
           style="text-align:center;text-anchor:middle;-inkscape-font-specification:Sans"
           id="path15569"
           inkscape:connector-curvature="0" />
      </g>
    </g>
    <g
       transform="matrix(7.9816531,0,0,7.9816531,-1086.3018,-1800.1287)"
       id="g15431"
       style="stroke-width:0.3000026;stroke-miterlimit:4;stroke-dasharray:none;display:inline">
      <path
         transform="matrix(0.96619202,-0.03354246,0.02960379,0.92774794,231.14997,209.27338)"
         style="fill:#ffffff;fill-opacity:1;stroke:#000000;stroke-width:0.31669259;stroke-opacity:1"
         d="m 3.125,92.99794 c 0,1.402286 -1.136777,2.539063 -2.5390625,2.539063 -1.4022855,0 -2.5390625,-1.136777 -2.5390625,-2.539063 0,-1.402285 1.136777,-2.539062 2.5390625,-2.539062 1.4022855,0 2.5390625,1.136777 2.5390625,2.539062 z"
         id="path15433"
         inkscape:connector-curvature="0" />
      <g
         transform="matrix(2.4050141,0,0,2.269239,-329.60718,-371.65497)"
         style="font-size:1.2528733px;font-style:normal;font-weight:normal;line-height:125%;letter-spacing:0px;word-spacing:0px;fill:#000000;fill-opacity:1;stroke:none;font-family:Sans;-inkscape-font-specification:Sans"
         id="flowRoot15435">
        <path
           d="m 233.88617,294.3323 0.20188,0 0,-0.69679 -0.21962,0.044 0,-0.11256 0.21839,-0.0441 0.12358,0 0,0.80935 0.20188,0 0,0.104 -0.52611,0 0,-0.104"
           style="text-align:center;text-anchor:middle;-inkscape-font-specification:Sans"
           id="path15573"
           inkscape:connector-curvature="0" />
        <path
           d="m 235.00201,293.63062 -0.312,0.48757 0.312,0 0,-0.48757 m -0.0324,-0.10767 0.15538,0 0,0.59524 0.13031,0 0,0.10277 -0.13031,0 0,0.21534 -0.12296,0 0,-0.21534 -0.41232,0 0,-0.11929 0.3799,-0.57872"
           style="text-align:center;text-anchor:middle;-inkscape-font-specification:Sans"
           id="path15575"
           inkscape:connector-curvature="0" />
      </g>
    </g>
    <g
       transform="matrix(7.9816531,0,0,7.9816531,-865.4835,-2096.1166)"
       id="g15443"
       style="stroke-width:0.3000026;stroke-miterlimit:4;stroke-dasharray:none;display:inline">
      <path
         transform="matrix(0.96619202,-0.03354246,0.02960379,0.92774794,231.14997,209.27338)"
         style="fill:#ffffff;fill-opacity:1;stroke:#000000;stroke-width:0.31669259;stroke-opacity:1"
         d="m 3.125,92.99794 c 0,1.402286 -1.136777,2.539063 -2.5390625,2.539063 -1.4022855,0 -2.5390625,-1.136777 -2.5390625,-2.539063 0,-1.402285 1.136777,-2.539062 2.5390625,-2.539062 1.4022855,0 2.5390625,1.136777 2.5390625,2.539062 z"
         id="path15445"
         inkscape:connector-curvature="0" />
      <g
         transform="matrix(2.4050141,0,0,2.269239,-329.60718,-371.65497)"
         style="font-size:1.2528733px;font-style:normal;font-weight:normal;line-height:125%;letter-spacing:0px;word-spacing:0px;fill:#000000;fill-opacity:1;stroke:none;font-family:Sans;-inkscape-font-specification:Sans"
         id="flowRoot15447">
        <path
           d="m 234.26484,293.52295 0.48513,0 0,0.104 -0.37195,0 0,0.2239 c 0.0179,-0.006 0.0359,-0.0106 0.0538,-0.0135 0.018,-0.003 0.0359,-0.005 0.0538,-0.005 0.10196,0 0.18271,0.0279 0.24225,0.0838 0.0596,0.0559 0.0893,0.13153 0.0893,0.22696 0,0.0983 -0.0306,0.17476 -0.0918,0.22941 -0.0612,0.0542 -0.14744,0.0814 -0.25878,0.0814 -0.0383,0 -0.0775,-0.003 -0.11745,-0.01 -0.0396,-0.007 -0.0805,-0.0163 -0.12297,-0.0294 l 0,-0.12419 c 0.0367,0.02 0.0746,0.0349 0.11379,0.0447 0.0392,0.01 0.0805,0.0147 0.12419,0.0147 0.0705,0 0.12643,-0.0186 0.16762,-0.0557 0.0412,-0.0371 0.0618,-0.0875 0.0618,-0.1511 0,-0.0636 -0.0206,-0.11399 -0.0618,-0.1511 -0.0412,-0.0371 -0.0971,-0.0557 -0.16762,-0.0557 -0.033,0 -0.0661,0.004 -0.0991,0.011 -0.0326,0.007 -0.0661,0.0188 -0.10033,0.0343 l 0,-0.45882"
           style="text-align:center;text-anchor:middle;-inkscape-font-specification:Sans"
           id="path15493"
           inkscape:connector-curvature="0" />
      </g>
    </g>
    <g
       transform="matrix(7.9816531,0,0,7.9816531,-903.489,-1985.1847)"
       id="g15455"
       style="stroke-width:0.3000026;stroke-miterlimit:4;stroke-dasharray:none;display:inline">
      <path
         transform="matrix(0.96619202,-0.03354246,0.02960379,0.92774794,231.14997,209.27338)"
         style="fill:#ffffff;fill-opacity:1;stroke:#000000;stroke-width:0.31669259;stroke-opacity:1"
         d="m 3.125,92.99794 c 0,1.402286 -1.136777,2.539063 -2.5390625,2.539063 -1.4022855,0 -2.5390625,-1.136777 -2.5390625,-2.539063 0,-1.402285 1.136777,-2.539062 2.5390625,-2.539062 1.4022855,0 2.5390625,1.136777 2.5390625,2.539062 z"
         id="path15457"
         inkscape:connector-curvature="0" />
      <g
         transform="matrix(2.4050141,0,0,2.269239,-329.60718,-371.65497)"
         style="font-size:1.2528733px;font-style:normal;font-weight:normal;line-height:125%;letter-spacing:0px;word-spacing:0px;fill:#000000;fill-opacity:1;stroke:none;font-family:Sans;-inkscape-font-specification:Sans"
         id="flowRoot15459">
        <path
           d="m 234.63802,293.94384 c 0.0591,0.0126 0.10522,0.0389 0.13825,0.0789 0.0334,0.04 0.0502,0.0893 0.0502,0.14805 -1e-5,0.0901 -0.031,0.15987 -0.093,0.20922 -0.062,0.0494 -0.15009,0.074 -0.26428,0.074 -0.0383,0 -0.0779,-0.004 -0.11868,-0.0116 -0.0404,-0.007 -0.0822,-0.0186 -0.12541,-0.0337 l 0,-0.11929 c 0.0343,0.02 0.0718,0.0351 0.11256,0.0453 0.0408,0.0102 0.0834,0.0153 0.12786,0.0153 0.0775,0 0.13642,-0.0153 0.1768,-0.0459 0.0408,-0.0306 0.0612,-0.075 0.0612,-0.13336 0,-0.0538 -0.019,-0.0958 -0.0569,-0.12602 -0.0375,-0.0306 -0.0899,-0.0459 -0.15722,-0.0459 l -0.10645,0 0,-0.10156 0.11134,0 c 0.0608,10e-6 0.10726,-0.012 0.13948,-0.0361 0.0322,-0.0245 0.0483,-0.0595 0.0483,-0.10522 0,-0.0469 -0.0167,-0.0828 -0.0502,-0.10767 -0.033,-0.0253 -0.0805,-0.0379 -0.14254,-0.0379 -0.0339,0 -0.0702,0.004 -0.10889,0.011 -0.0387,0.007 -0.0814,0.0188 -0.12786,0.0343 l 0,-0.11011 c 0.0469,-0.0131 0.0907,-0.0228 0.13153,-0.0294 0.0412,-0.007 0.0799,-0.01 0.11623,-0.01 0.0938,0 0.16803,0.0214 0.22268,0.0642 0.0547,0.0424 0.082,0.0999 0.082,0.17251 0,0.0506 -0.0145,0.0934 -0.0434,0.12847 -0.029,0.0347 -0.0702,0.0587 -0.12357,0.0722"
           style="text-align:center;text-anchor:middle;-inkscape-font-specification:Sans"
           id="path15579"
           inkscape:connector-curvature="0" />
      </g>
    </g>
    <g
       transform="matrix(7.9816531,0,0,7.9816531,-941.6218,-1868.5434)"
       id="g15467"
       style="stroke-width:0.3000026;stroke-miterlimit:4;stroke-dasharray:none;display:inline">
      <path
         transform="matrix(0.96619202,-0.03354246,0.02960379,0.92774794,231.14997,209.27338)"
         style="fill:#ffffff;fill-opacity:1;stroke:#000000;stroke-width:0.31669259;stroke-opacity:1"
         d="m 3.125,92.99794 c 0,1.402286 -1.136777,2.539063 -2.5390625,2.539063 -1.4022855,0 -2.5390625,-1.136777 -2.5390625,-2.539063 0,-1.402285 1.136777,-2.539062 2.5390625,-2.539062 1.4022855,0 2.5390625,1.136777 2.5390625,2.539062 z"
         id="path15469"
         inkscape:connector-curvature="0" />
      <g
         transform="matrix(2.4050141,0,0,2.269239,-329.60718,-371.65497)"
         style="font-size:1.2528733px;font-style:normal;font-weight:normal;line-height:125%;letter-spacing:0px;word-spacing:0px;fill:#000000;fill-opacity:1;stroke:none;font-family:Sans;-inkscape-font-specification:Sans"
         id="flowRoot15471">
        <path
           d="m 234.37007,294.3323 0.43128,0 0,0.104 -0.57994,0 0,-0.104 c 0.0469,-0.0485 0.11073,-0.11358 0.19148,-0.19515 0.0812,-0.082 0.13214,-0.13479 0.15294,-0.15844 0.0396,-0.0445 0.0671,-0.082 0.0826,-0.11256 0.0159,-0.031 0.0239,-0.0614 0.0239,-0.0912 0,-0.0485 -0.0171,-0.0881 -0.0514,-0.11868 -0.0339,-0.0306 -0.0781,-0.0459 -0.13275,-0.0459 -0.0387,0 -0.0797,0.007 -0.12297,0.0202 -0.0428,0.0135 -0.0887,0.0338 -0.13764,0.0612 l 0,-0.1248 c 0.0497,-0.02 0.0962,-0.0351 0.13948,-0.0453 0.0432,-0.0102 0.0828,-0.0153 0.11868,-0.0153 0.0946,0 0.17007,0.0237 0.22635,0.071 0.0563,0.0473 0.0844,0.11052 0.0844,0.18964 0,0.0375 -0.007,0.0732 -0.0214,0.10706 -0.0139,0.0334 -0.0394,0.073 -0.0765,0.11868 -0.0102,0.0118 -0.0426,0.0461 -0.0973,0.10277 -0.0547,0.0563 -0.13173,0.1352 -0.23124,0.23675"
           style="text-align:center;text-anchor:middle;-inkscape-font-specification:Sans"
           id="path15583"
           inkscape:connector-curvature="0" />
      </g>
    </g>
    <g
       transform="matrix(7.9816531,0,0,7.9816531,-986.4838,-1772.0899)"
       id="g15479"
       style="stroke-width:0.3000026;stroke-miterlimit:4;stroke-dasharray:none;display:inline">
      <path
         transform="matrix(0.96619202,-0.03354246,0.02960379,0.92774794,231.14997,209.27338)"
         style="fill:#ffffff;fill-opacity:1;stroke:#000000;stroke-width:0.31669259;stroke-opacity:1"
         d="m 3.125,92.99794 c 0,1.402286 -1.136777,2.539063 -2.5390625,2.539063 -1.4022855,0 -2.5390625,-1.136777 -2.5390625,-2.539063 0,-1.402285 1.136777,-2.539062 2.5390625,-2.539062 1.4022855,0 2.5390625,1.136777 2.5390625,2.539062 z"
         id="path15481"
         inkscape:connector-curvature="0" />
      <g
         transform="matrix(2.4050141,0,0,2.269239,-329.60718,-371.65497)"
         style="font-size:1.2528733px;font-style:normal;font-weight:normal;line-height:125%;letter-spacing:0px;word-spacing:0px;fill:#000000;fill-opacity:1;stroke:none;font-family:Sans;-inkscape-font-specification:Sans"
         id="flowRoot15483">
        <path
           d="m 233.88617,294.3323 0.20188,0 0,-0.69679 -0.21962,0.044 0,-0.11256 0.21839,-0.0441 0.12358,0 0,0.80935 0.20188,0 0,0.104 -0.52611,0 0,-0.104"
           style="text-align:center;text-anchor:middle;-inkscape-font-specification:Sans"
           id="path15587"
           inkscape:connector-curvature="0" />
        <path
           d="m 234.6839,294.3323 0.20188,0 0,-0.69679 -0.21962,0.044 0,-0.11256 0.21839,-0.0441 0.12358,0 0,0.80935 0.20188,0 0,0.104 -0.52611,0 0,-0.104"
           style="text-align:center;text-anchor:middle;-inkscape-font-specification:Sans"
           id="path15589"
           inkscape:connector-curvature="0" />
      </g>
    </g>
  </g>
  <g
     style="display:inline"
     transform="translate(-383.22274,-121.76914)"
     inkscape:label="Cells copy"
     id="g15159"
     inkscape:groupmode="layer">
    <g
       style="font-size:40px;font-style:normal;font-weight:normal;line-height:125%;letter-spacing:0px;word-spacing:0px;fill:#000000;fill-opacity:1;stroke:none;font-family:Sans"
       id="text15161">
      <path
         d="m 567.41345,243.55832 0,-3.59375 c 0.98958,0.46875 1.99218,0.82683 3.00781,1.07422 1.01562,0.2474 2.01171,0.37109 2.98829,0.37109 2.60415,0 4.58982,-0.87239 5.95703,-2.61719 1.38019,-1.7578 2.16795,-4.42056 2.36328,-7.98828 -0.75523,1.11981 -1.71226,1.97918 -2.8711,2.57813 -1.15886,0.59897 -2.44142,0.89845 -3.84765,0.89844 -2.91668,1e-5 -5.22787,-0.8789 -6.9336,-2.63672 -1.69271,-1.77082 -2.53906,-4.18618 -2.53906,-7.2461 0,-2.99477 0.88542,-5.39711 2.65625,-7.20703 1.77083,-1.80987 4.1276,-2.71481 7.07031,-2.71484 3.37238,3e-5 5.944,1.2956 7.71485,3.88672 1.78383,2.57814 2.67576,6.32814 2.67578,11.25 -2e-5,4.59636 -1.09377,8.26823 -3.28125,11.01562 -2.1745,2.73438 -5.10418,4.10156 -8.78906,4.10156 -0.9896,0 -1.9922,-0.0976 -3.00782,-0.29296 -1.01563,-0.19532 -2.07031,-0.48829 -3.16406,-0.87891 m 7.85156,-12.36328 c 1.77082,1e-5 3.17056,-0.60546 4.19922,-1.81641 1.04165,-1.21092 1.56249,-2.87107 1.5625,-4.98047 -1e-5,-2.09633 -0.52085,-3.74997 -1.5625,-4.96093 -1.02866,-1.22394 -2.4284,-1.83592 -4.19922,-1.83594 -1.77084,2e-5 -3.17709,0.612 -4.21875,1.83594 -1.02865,1.21096 -1.54297,2.8646 -1.54296,4.96093 -10e-6,2.1094 0.51431,3.76955 1.54296,4.98047 1.04166,1.21095 2.44791,1.81642 4.21875,1.81641"
         id="path15247"
         inkscape:connector-curvature="0" />
    </g>
    <g
       style="font-size:40px;font-style:normal;font-weight:normal;line-height:125%;letter-spacing:0px;word-spacing:0px;fill:#000000;fill-opacity:1;stroke:none;font-family:Sans"
       id="text15165">
      <path
         d="m 678.12793,234.05038 15.48828,0 0,3.32032 -11.875,0 0,7.14843 c 0.57291,-0.19529 1.14583,-0.33852 1.71875,-0.42968 0.57291,-0.10415 1.14582,-0.15623 1.71875,-0.15625 3.25519,2e-5 5.83332,0.89194 7.73438,2.67578 1.90102,1.78387 2.85154,4.19923 2.85156,7.24609 -2e-5,3.13803 -0.97659,5.57943 -2.92969,7.32422 -1.95314,1.73177 -4.70704,2.59766 -8.26172,2.59766 -1.22397,0 -2.47396,-0.10417 -3.75,-0.3125 -1.26302,-0.20834 -2.57162,-0.52084 -3.92578,-0.9375 l 0,-3.96485 c 1.17187,0.63803 2.38281,1.11329 3.63281,1.42578 1.25,0.31251 2.57161,0.46876 3.96485,0.46875 2.25259,10e-6 4.03644,-0.59244 5.35156,-1.77734 1.31509,-1.18489 1.97264,-2.79296 1.97266,-4.82422 -2e-5,-2.03124 -0.65757,-3.63931 -1.97266,-4.82422 -1.31512,-1.18488 -3.09897,-1.77732 -5.35156,-1.77734 -1.0547,2e-5 -2.10939,0.1172 -3.16407,0.35156 -1.04167,0.23439 -2.10938,0.59898 -3.20312,1.09375 l 0,-14.64844"
         id="path15244"
         inkscape:connector-curvature="0" />
    </g>
    <g
       style="font-size:40px;font-style:normal;font-weight:normal;line-height:125%;letter-spacing:0px;word-spacing:0px;fill:#000000;fill-opacity:1;stroke:none;font-family:Sans"
       id="text15169">
      <path
         d="m 785.31989,286.80746 6.44531,0 0,-22.24609 -7.01172,1.40625 0,-3.59375 6.97266,-1.40625 3.94531,0 0,25.83984 6.44531,0 0,3.32032 -16.79687,0 0,-3.32032"
         id="path15239"
         inkscape:connector-curvature="0" />
      <path
         d="m 810.78864,286.80746 6.44531,0 0,-22.24609 -7.01172,1.40625 0,-3.59375 6.97266,-1.40625 3.94531,0 0,25.83984 6.44531,0 0,3.32032 -16.79687,0 0,-3.32032"
         id="path15241"
         inkscape:connector-curvature="0" />
    </g>
    <g
       style="font-size:40px;font-style:normal;font-weight:normal;line-height:125%;letter-spacing:0px;word-spacing:0px;fill:#000000;fill-opacity:1;stroke:none;font-family:Sans"
       id="text15173">
      <path
         d="m 928.78156,302.07584 c -1.87502,10e-6 -3.35288,0.50131 -4.4336,1.5039 -1.06771,1.00262 -1.60157,2.38282 -1.60156,4.14063 -10e-6,1.75782 0.53385,3.13802 1.60156,4.14062 1.08072,1.00261 2.55858,1.50391 4.4336,1.50391 1.87498,0 3.35284,-0.5013 4.43359,-1.50391 1.08071,-1.01562 1.62107,-2.39582 1.62109,-4.14062 -2e-5,-1.75781 -0.54038,-3.13801 -1.62109,-4.14063 -1.06773,-1.00259 -2.54559,-1.50389 -4.43359,-1.5039 m -3.94532,-1.67969 c -1.69271,-0.41665 -3.01433,-1.20441 -3.96484,-2.36328 -0.9375,-1.15884 -1.40625,-2.5716 -1.40625,-4.23828 0,-2.33071 0.82682,-4.17315 2.48047,-5.52735 1.66666,-1.35414 3.9453,-2.03122 6.83594,-2.03125 2.90363,3e-5 5.18227,0.67711 6.83593,2.03125 1.65363,1.3542 2.48045,3.19664 2.48047,5.52735 -2e-5,1.66668 -0.47528,3.07944 -1.42578,4.23828 -0.93752,1.15887 -2.24611,1.94663 -3.92578,2.36328 1.90102,0.44272 3.37889,1.30861 4.43359,2.59765 1.06769,1.28908 1.60154,2.8646 1.60157,4.72657 -3e-5,2.82552 -0.86591,4.99349 -2.59766,6.5039 -1.71877,1.51042 -4.18621,2.26563 -7.40234,2.26563 -3.21616,0 -5.69012,-0.75521 -7.42188,-2.26563 -1.71875,-1.51041 -2.57813,-3.67838 -2.57812,-6.5039 -10e-6,-1.86197 0.53385,-3.43749 1.60156,-4.72657 1.0677,-1.28904 2.55207,-2.15493 4.45312,-2.59765 m -1.44531,-6.23047 c -10e-6,1.51044 0.46874,2.68882 1.40625,3.53516 0.95051,0.84637 2.27864,1.26954 3.98438,1.26953 1.69269,10e-6 3.0143,-0.42316 3.96484,-1.26953 0.96352,-0.84634 1.44529,-2.02472 1.44531,-3.53516 -2e-5,-1.51039 -0.48179,-2.68878 -1.44531,-3.53516 -0.95054,-0.84632 -2.27215,-1.2695 -3.96484,-1.26953 -1.70574,3e-5 -3.03387,0.42321 -3.98438,1.26953 -0.93751,0.84638 -1.40626,2.02477 -1.40625,3.53516"
         id="path15236"
         inkscape:connector-curvature="0" />
    </g>
    <g
       style="font-size:40px;font-style:normal;font-weight:normal;line-height:125%;letter-spacing:0px;word-spacing:0px;fill:#000000;fill-opacity:1;stroke:none;font-family:Sans"
       id="text15177">
      <path
         d="m 535.27612,332.81979 -9.96093,15.56641 9.96093,0 0,-15.56641 m -1.03515,-3.4375 4.96093,0 0,19.00391 4.16016,0 0,3.28125 -4.16016,0 0,6.875 -3.92578,0 0,-6.875 -13.16406,0 0,-3.80859 12.12891,-18.47657"
         id="path15233"
         inkscape:connector-curvature="0" />
    </g>
    <g
       style="font-size:40px;font-style:normal;font-weight:normal;line-height:125%;letter-spacing:0px;word-spacing:0px;fill:#000000;fill-opacity:1;stroke:none;font-family:Sans"
       id="text15181">
      <path
         d="m 651.125,361.45648 c -1.77084,2e-5 -3.17709,0.60549 -4.21875,1.81641 -1.02865,1.21095 -1.54298,2.8711 -1.54297,4.98047 -10e-6,2.09636 0.51432,3.75651 1.54297,4.98047 1.04166,1.21094 2.44791,1.8164 4.21875,1.8164 1.77082,0 3.17056,-0.60546 4.19922,-1.8164 1.04165,-1.22396 1.56248,-2.88411 1.5625,-4.98047 -2e-5,-2.10937 -0.52085,-3.76952 -1.5625,-4.98047 -1.02866,-1.21092 -2.4284,-1.81639 -4.19922,-1.81641 m 7.83203,-12.36328 0,3.59375 c -0.9896,-0.46872 -1.99221,-0.8268 -3.00781,-1.07422 -1.00262,-0.24737 -1.99872,-0.37107 -2.98828,-0.37109 -2.60418,2e-5 -4.59637,0.87893 -5.97657,2.63672 -1.36719,1.75783 -2.14844,4.41408 -2.34375,7.96875 0.76823,-1.1328 1.73177,-1.99868 2.89063,-2.59766 1.15884,-0.61196 2.43488,-0.91795 3.82812,-0.91797 2.92968,2e-5 5.24087,0.89195 6.9336,2.67578 1.70571,1.77085 2.55857,4.18621 2.55859,7.2461 -2e-5,2.99479 -0.88544,5.39714 -2.65625,7.20703 -1.77085,1.80989 -4.12762,2.71484 -7.07031,2.71484 -3.37241,0 -5.95053,-1.28906 -7.73438,-3.86719 -1.78385,-2.59114 -2.67578,-6.34113 -2.67578,-11.25 0,-4.60935 1.09375,-8.28122 3.28125,-11.01562 2.1875,-2.74737 5.12369,-4.12106 8.8086,-4.12109 0.98956,3e-5 1.98566,0.0977 2.98828,0.29296 1.0156,0.19535 2.07029,0.48831 3.16406,0.87891"
         id="path15230"
         inkscape:connector-curvature="0" />
    </g>
    <g
       style="font-size:40px;font-style:normal;font-weight:normal;line-height:125%;letter-spacing:0px;word-spacing:0px;fill:#000000;fill-opacity:1;stroke:none;font-family:Sans"
       id="text15185">
      <path
         d="m 771.27808,375.32822 c -2.03126,2e-5 -3.56121,1.00263 -4.58985,3.00781 -1.01563,1.99221 -1.52344,4.99351 -1.52344,9.00391 0,3.9974 0.50781,6.9987 1.52344,9.0039 1.02864,1.99219 2.55859,2.98829 4.58985,2.98828 2.04425,1e-5 3.5742,-0.99609 4.58984,-2.98828 1.02863,-2.0052 1.54295,-5.0065 1.54297,-9.0039 -2e-5,-4.0104 -0.51434,-7.0117 -1.54297,-9.00391 -1.01564,-2.00518 -2.54559,-3.00779 -4.58984,-3.00781 m 0,-3.125 c 3.26821,3e-5 5.7617,1.2956 7.48046,3.88672 1.73175,2.57814 2.59764,6.32814 2.59766,11.25 -2e-5,4.90886 -0.86591,8.65886 -2.59766,11.25 -1.71876,2.57812 -4.21225,3.86718 -7.48046,3.86718 -3.26824,0 -5.76824,-1.28906 -7.5,-3.86718 -1.71876,-2.59114 -2.57813,-6.34114 -2.57813,-11.25 0,-4.92186 0.85937,-8.67186 2.57813,-11.25 1.73176,-2.59112 4.23176,-3.88669 7.5,-3.88672"
         id="path15227"
         inkscape:connector-curvature="0" />
    </g>
    <g
       style="font-size:40px;font-style:normal;font-weight:normal;line-height:125%;letter-spacing:0px;word-spacing:0px;fill:#000000;fill-opacity:1;stroke:none;font-family:Sans"
       id="text15189">
      <path
         d="m 889.67822,417.96375 c 1.88801,0.40366 3.35936,1.2435 4.41407,2.51953 1.06768,1.27605 1.60154,2.85157 1.60156,4.72656 -2e-5,2.87761 -0.98961,5.10417 -2.96875,6.67969 -1.97919,1.57552 -4.79168,2.36328 -8.4375,2.36328 -1.22397,0 -2.48699,-0.1237 -3.78906,-0.3711 -1.28907,-0.23437 -2.62371,-0.59244 -4.00391,-1.07421 l 0,-3.8086 c 1.09374,0.63803 2.29166,1.1198 3.59375,1.44531 1.30207,0.32553 2.66275,0.48829 4.08203,0.48829 2.47395,0 4.35545,-0.48828 5.64453,-1.46485 1.30207,-0.97656 1.95311,-2.39583 1.95313,-4.25781 -2e-5,-1.71874 -0.60549,-3.05989 -1.81641,-4.02344 -1.19793,-0.97655 -2.87111,-1.46483 -5.01953,-1.46484 l -3.39844,0 0,-3.24219 3.55469,0 c 1.94009,2e-5 3.42446,-0.3841 4.45312,-1.15234 1.02863,-0.78123 1.54296,-1.90103 1.54297,-3.35938 -10e-6,-1.49737 -0.53387,-2.6432 -1.60156,-3.4375 -1.0547,-0.80726 -2.57163,-1.21091 -4.55078,-1.21094 -1.08074,3e-5 -2.23959,0.11722 -3.47656,0.35157 -1.23699,0.2344 -2.59767,0.59898 -4.08203,1.09375 l 0,-3.51563 c 1.49739,-0.41664 2.89712,-0.72914 4.19921,-0.9375 1.3151,-0.2083 2.55208,-0.31247 3.71094,-0.3125 2.99478,3e-5 5.36457,0.68362 7.10938,2.05078 1.74477,1.3542 2.61716,3.19013 2.61718,5.50782 -2e-5,1.6146 -0.46226,2.98179 -1.38671,4.10156 -0.9245,1.10679 -2.23961,1.87501 -3.94532,2.30469"
         id="path15224"
         inkscape:connector-curvature="0" />
    </g>
    <g
       style="font-size:40px;font-style:normal;font-weight:normal;line-height:125%;letter-spacing:0px;word-spacing:0px;fill:#000000;fill-opacity:1;stroke:none;font-family:Sans"
       id="text15193">
      <path
         d="m 490.35178,465.13419 6.44531,0 0,-22.2461 -7.01172,1.40625 0,-3.59375 6.97266,-1.40625 3.94531,0 0,25.83985 6.44531,0 0,3.32031 -16.79687,0 0,-3.32031"
         id="path15221"
         inkscape:connector-curvature="0" />
    </g>
    <g
       style="font-size:40px;font-style:normal;font-weight:normal;line-height:125%;letter-spacing:0px;word-spacing:0px;fill:#000000;fill-opacity:1;stroke:none;font-family:Sans"
       id="text15197">
      <path
         d="m 602.75006,490.9299 6.44531,0 0,-22.24609 -7.01172,1.40625 0,-3.59375 6.97266,-1.40625 3.94531,0 0,25.83984 6.44532,0 0,3.32031 -16.79688,0 0,-3.32031"
         id="path15216"
         inkscape:connector-curvature="0" />
      <path
         d="m 635.97272,467.68771 c -2.03126,3e-5 -3.56121,1.00263 -4.58985,3.00782 -1.01563,1.99221 -1.52344,4.9935 -1.52343,9.0039 -10e-6,3.99741 0.5078,6.99871 1.52343,9.00391 1.02864,1.99219 2.55859,2.98828 4.58985,2.98828 2.04425,0 3.5742,-0.99609 4.58984,-2.98828 1.02863,-2.0052 1.54295,-5.0065 1.54297,-9.00391 -2e-5,-4.0104 -0.51434,-7.01169 -1.54297,-9.0039 -1.01564,-2.00519 -2.54559,-3.00779 -4.58984,-3.00782 m 0,-3.125 c 3.26821,3e-5 5.7617,1.2956 7.48047,3.88672 1.73174,2.57815 2.59763,6.32815 2.59765,11.25 -2e-5,4.90887 -0.86591,8.65886 -2.59765,11.25 -1.71877,2.57813 -4.21226,3.86719 -7.48047,3.86719 -3.26824,0 -5.76824,-1.28906 -7.5,-3.86719 -1.71876,-2.59114 -2.57813,-6.34113 -2.57813,-11.25 0,-4.92185 0.85937,-8.67185 2.57813,-11.25 1.73176,-2.59112 4.23176,-3.88669 7.5,-3.88672"
         id="path15218"
         inkscape:connector-curvature="0" />
    </g>
    <g
       style="font-size:40px;font-style:normal;font-weight:normal;line-height:125%;letter-spacing:0px;word-spacing:0px;fill:#000000;fill-opacity:1;stroke:none;font-family:Sans"
       id="text15201">
      <path
         d="m 733.47095,507.604 13.76953,0 0,3.32032 -18.51563,0 0,-3.32032 c 1.49739,-1.54947 3.53515,-3.62629 6.11328,-6.23046 2.59114,-2.61718 4.21874,-4.30338 4.88282,-5.0586 1.263,-1.41925 2.14191,-2.61717 2.63672,-3.59375 0.50779,-0.98956 0.7617,-1.95961 0.76171,-2.91015 -10e-6,-1.54946 -0.54689,-2.81248 -1.64062,-3.78907 -1.08074,-0.97653 -2.4935,-1.46481 -4.23828,-1.46484 -1.23699,3e-5 -2.54558,0.21487 -3.92578,0.64453 -1.3672,0.42971 -2.83204,1.08075 -4.39453,1.95313 l 0,-3.98438 c 1.58853,-0.63799 3.07291,-1.11976 4.45312,-1.44531 1.3802,-0.32549 2.64322,-0.48825 3.78906,-0.48828 3.02082,3e-5 5.42967,0.75523 7.22657,2.26562 1.79685,1.51044 2.69529,3.52867 2.69531,6.05469 -2e-5,1.19794 -0.22789,2.33726 -0.6836,3.41797 -0.44272,1.06772 -1.25653,2.33074 -2.4414,3.78906 -0.32554,0.37762 -1.3607,1.47137 -3.10547,3.28125 -1.74481,1.79688 -4.20574,4.31641 -7.38281,7.55859"
         id="path15213"
         inkscape:connector-curvature="0" />
    </g>
    <g
       style="font-size:40px;font-style:normal;font-weight:normal;line-height:125%;letter-spacing:0px;word-spacing:0px;fill:#000000;fill-opacity:1;stroke:none;font-family:Sans"
       id="text15205">
      <path
         d="m 842.20398,503.95209 18.75,0 0,1.67968 -10.58594,27.48047 -4.12109,0 9.96094,-25.83984 -14.00391,0 0,-3.32031"
         id="path15210"
         inkscape:connector-curvature="0" />
    </g>
  </g>
  <g
     inkscape:groupmode="layer"
     id="layer1"
     inkscape:label="Cross">
    <path
       style="font-size:40px;font-style:normal;font-weight:normal;line-height:125%;letter-spacing:0px;word-spacing:0px;fill:none;stroke:#ff0000;stroke-width:3.79999995;stroke-linecap:butt;stroke-linejoin:miter;stroke-miterlimit:4;stroke-opacity:1;stroke-dasharray:none;display:inline;font-family:Sans"
       d="m 237.91705,210.79992 61.85843,66.61677"
       id="path3144"
       inkscape:path-effect="#path-effect3146-7"
       inkscape:original-d="m 237.91705,210.79992 c 24.10042,18.85927 50.84325,44.5864 61.85843,66.61677"
       inkscape:connector-curvature="0" />
    <path
       style="font-size:40px;font-style:normal;font-weight:normal;line-height:125%;letter-spacing:0px;word-spacing:0px;fill:none;stroke:#ff0000;stroke-width:3.79999995;stroke-linecap:butt;stroke-linejoin:miter;stroke-miterlimit:4;stroke-opacity:1;stroke-dasharray:none;display:inline;font-family:Sans"
       d="m 236.33094,269.48613 c 3.37371,-1.13117 6.58752,-2.73808 9.51668,-4.75835 7.40269,-5.10573 12.73128,-12.61837 19.03336,-19.03336 9.23951,-9.40505 20.77019,-16.54309 33.30839,-20.61948"
       id="path3148"
       inkscape:path-effect="#path-effect3150-6"
       inkscape:original-d="m 236.33094,269.48613 c 2.277,-2.95492 6.79206,-2.48783 9.51668,-4.75835 6.52739,-5.43949 11.89006,-14.27116 19.03336,-19.03336 10.04819,-6.69879 28.47126,-10.94521 33.30839,-20.61948"
       inkscape:connector-curvature="0" />
  </g>
</svg>
