<?xml version="1.0" encoding="UTF-8" standalone="no"?>
<!-- Created with Inkscape (http://www.inkscape.org/) -->

<svg
   xmlns:dc="http://purl.org/dc/elements/1.1/"
   xmlns:cc="http://creativecommons.org/ns#"
   xmlns:rdf="http://www.w3.org/1999/02/22-rdf-syntax-ns#"
   xmlns:svg="http://www.w3.org/2000/svg"
   xmlns="http://www.w3.org/2000/svg"
   xmlns:sodipodi="http://sodipodi.sourceforge.net/DTD/sodipodi-0.dtd"
   xmlns:inkscape="http://www.inkscape.org/namespaces/inkscape"
   width="154.25647"
   height="29.394449"
   id="svg22340"
   version="1.1"
   inkscape:version="0.48.3.1 r9886"
   sodipodi:docname="append-prepend-detection.svg">
  <defs
     id="defs22342" />
  <sodipodi:namedview
     id="base"
     pagecolor="#ffffff"
     bordercolor="#666666"
     borderopacity="1.0"
     inkscape:pageopacity="0.0"
     inkscape:pageshadow="2"
     inkscape:zoom="1.979899"
     inkscape:cx="29.908751"
     inkscape:cy="-31.761406"
     inkscape:document-units="px"
     inkscape:current-layer="layer1"
     showgrid="false"
     units="mm"
     fit-margin-top="0"
     fit-margin-left="0"
     fit-margin-right="0"
     fit-margin-bottom="0"
     inkscape:window-width="1301"
     inkscape:window-height="744"
     inkscape:window-x="65"
     inkscape:window-y="24"
     inkscape:window-maximized="1" />
  <metadata
     id="metadata22345">
    <rdf:RDF>
      <cc:Work
         rdf:about="">
        <dc:format>image/svg+xml</dc:format>
        <dc:type
           rdf:resource="http://purl.org/dc/dcmitype/StillImage" />
        <dc:title />
      </cc:Work>
    </rdf:RDF>
  </metadata>
  <g
     inkscape:label="Layer 1"
     inkscape:groupmode="layer"
     id="layer1"
     transform="translate(-99.076067,-53.890967)">
    <path
       style="fill:#ff0000;fill-opacity:1;fill-rule:nonzero;stroke:none"
       d="m 162.2628,68.876617 0,-14.142135 14.14213,0 14.14214,0 0,14.142135 0,14.142136 -14.14214,0 -14.14213,0 0,-14.142136 z"
       id="path22408"
       inkscape:connector-curvature="0" />
    <path
       style="fill:#ff0000;fill-opacity:1;fill-rule:nonzero;stroke:none"
       d="m 131.27006,68.745374 0,-14.144221 14.3968,0 14.39679,0 -0.0652,14.079001 -0.0653,14.079001 -14.33154,0.06522 -14.33154,0.06522 0,-14.144219 z"
       id="path22410"
       inkscape:connector-curvature="0" />
    <path
       style="fill:#ff0000;fill-opacity:1;fill-rule:nonzero;stroke:none"
       d="m 193.25553,69.009949 0,-14.142135 14.39468,0 14.39467,0 0,14.142135 0,14.142136 -14.39467,0 -14.39468,0 0,-14.142136 z"
       id="path22412"
       inkscape:connector-curvature="0" />
    <path
       style="fill:#ffd5d5;fill-opacity:1;fill-rule:nonzero;stroke:#000000;stroke-width:0.80000001;stroke-miterlimit:4.0999999;stroke-opacity:1;stroke-dasharray:2.40000004, 2.40000004;stroke-dashoffset:0"
       d="m 224.81662,82.717056 c -0.0926,-0.09259 -0.16836,-6.456557 -0.16836,-14.142135 l 0,-13.973776 14.14213,0 14.14214,0 0,14.142135 0,14.142136 -13.97378,0 c -7.68558,0 -14.04954,-0.07576 -14.14213,-0.16836 z"
       id="path22414"
       inkscape:connector-curvature="0" />
    <path
       style="fill:#ffd5d5;fill-opacity:1;fill-rule:nonzero;stroke:#000000;stroke-width:0.80000001;stroke-miterlimit:4.0999999;stroke-opacity:1;stroke-dasharray:2.40000004, 2.40000004;stroke-dashoffset:0"
       d="m 99.644427,82.406887 c -0.0926,-0.0926 -0.16836,-6.45656 -0.16836,-14.14214 l 0,-13.97378 14.142133,0 14.14214,0 0,14.14214 0,14.14214 -13.97378,0 c -7.68558,0 -14.049543,-0.0758 -14.142133,-0.16836 z"
       id="path22414-0"
       inkscape:connector-curvature="0" />
  </g>
</svg>
