<?xml version="1.0" encoding="UTF-8" standalone="no"?>
<!-- Created with Inkscape (http://www.inkscape.org/) -->

<svg
   xmlns:dc="http://purl.org/dc/elements/1.1/"
   xmlns:cc="http://creativecommons.org/ns#"
   xmlns:rdf="http://www.w3.org/1999/02/22-rdf-syntax-ns#"
   xmlns:svg="http://www.w3.org/2000/svg"
   xmlns="http://www.w3.org/2000/svg"
   xmlns:sodipodi="http://sodipodi.sourceforge.net/DTD/sodipodi-0.dtd"
   xmlns:inkscape="http://www.inkscape.org/namespaces/inkscape"
   width="153.63188"
   height="29.08427"
   id="svg22340"
   version="1.1"
   inkscape:version="0.48.3.1 r9886"
   sodipodi:docname="append-detection.svg">
  <defs
     id="defs22342" />
  <sodipodi:namedview
     id="base"
     pagecolor="#ffffff"
     bordercolor="#666666"
     borderopacity="1.0"
     inkscape:pageopacity="0.0"
     inkscape:pageshadow="2"
     inkscape:zoom="1.979899"
     inkscape:cx="-18.698101"
     inkscape:cy="-31.760381"
     inkscape:document-units="px"
     inkscape:current-layer="layer1"
     showgrid="false"
     units="mm"
     fit-margin-top="0"
     fit-margin-left="0"
     fit-margin-right="0"
     fit-margin-bottom="0"
     inkscape:window-width="1301"
     inkscape:window-height="744"
     inkscape:window-x="65"
     inkscape:window-y="24"
     inkscape:window-maximized="1" />
  <metadata
     id="metadata22345">
    <rdf:RDF>
      <cc:Work
         rdf:about="">
        <dc:format>image/svg+xml</dc:format>
        <dc:type
           rdf:resource="http://purl.org/dc/dcmitype/StillImage" />
        <dc:title />
      </cc:Work>
    </rdf:RDF>
  </metadata>
  <g
     inkscape:label="Layer 1"
     inkscape:groupmode="layer"
     id="layer1"
     transform="translate(-99.700669,-54.20217)">
    <path
       style="fill:#aebee2;fill-opacity:1;fill-rule:nonzero;stroke:none"
       d="m 162.3018,68.744305 0,-14.142135 14.14213,0 14.14214,0 0,14.142135 0,14.142136 -14.14214,0 -14.14213,0 0,-14.142136 z"
       id="path22408"
       inkscape:connector-curvature="0" />
    <path
       style="fill:#aebee2;fill-opacity:1;fill-rule:nonzero;stroke:none"
       d="m 130.87391,68.744305 0,-14.144221 14.3968,0 14.39679,0 -0.0652,14.079001 -0.0653,14.079002 -14.33154,0.06522 -14.33154,0.06522 0,-14.144219 z"
       id="path22410"
       inkscape:connector-curvature="0" />
    <path
       style="fill:#aebee2;fill-opacity:1;fill-rule:nonzero;stroke:none"
       d="m 193.22251,68.744305 0,-14.142135 14.39468,0 14.39467,0 0,14.142135 0,14.142136 -14.39467,0 -14.39468,0 0,-14.142136 z"
       id="path22412"
       inkscape:connector-curvature="0" />
    <path
       style="fill:none;fill-opacity:1;fill-rule:nonzero;stroke:#000000;stroke-width:0.80000000999999998;stroke-miterlimit:4.09999990000000025;stroke-opacity:1;stroke-dasharray:2.40000004000000011, 2.40000004000000011;stroke-dashoffset:0"
       d="m 224.81664,82.718081 c -0.0926,-0.09259 -0.16836,-6.456557 -0.16836,-14.142135 l 0,-13.973776 14.14213,0 14.14214,0 0,14.142135 0,14.142136 -13.97378,0 c -7.68558,0 -14.04954,-0.07576 -14.14213,-0.16836 z"
       id="path22414"
       inkscape:connector-curvature="0" />
    <path
       style="fill:#aebee2;fill-opacity:1;fill-rule:nonzero;stroke:none"
       d="m 99.700669,68.74433 0,-14.14423 14.396801,0 14.39679,0 -0.0652,14.07901 -0.0653,14.079 -14.33154,0.0652 -14.331541,0.0652 0,-14.14422 z"
       id="path22410-7"
       inkscape:connector-curvature="0" />
  </g>
</svg>
