<?xml version="1.0" encoding="UTF-8" standalone="no"?>
<svg
   xmlns:dc="http://purl.org/dc/elements/1.1/"
   xmlns:cc="http://creativecommons.org/ns#"
   xmlns:rdf="http://www.w3.org/1999/02/22-rdf-syntax-ns#"
   xmlns:svg="http://www.w3.org/2000/svg"
   xmlns="http://www.w3.org/2000/svg"
   xmlns:sodipodi="http://sodipodi.sourceforge.net/DTD/sodipodi-0.dtd"
   xmlns:inkscape="http://www.inkscape.org/namespaces/inkscape"
   width="1052"
   height="458.51599"
   viewBox="0 0 1052 458.51599"
   id="svg3720"
   version="1.1"
   inkscape:version="0.48.3.1 r9886"
   sodipodi:docname="compatible-blobs.svg">
  <metadata
     id="metadata4434">
    <rdf:RDF>
      <cc:Work
         rdf:about="">
        <dc:format>image/svg+xml</dc:format>
        <dc:type
           rdf:resource="http://purl.org/dc/dcmitype/StillImage" />
      </cc:Work>
    </rdf:RDF>
  </metadata>
  <sodipodi:namedview
     pagecolor="#ffffff"
     bordercolor="#666666"
     borderopacity="1"
     objecttolerance="10"
     gridtolerance="10"
     guidetolerance="10"
     inkscape:pageopacity="0"
     inkscape:pageshadow="2"
     inkscape:window-width="1301"
     inkscape:window-height="744"
     id="namedview4432"
     showgrid="false"
     fit-margin-top="-100"
     fit-margin-left="0"
     fit-margin-right="-250"
     fit-margin-bottom="-100"
     showborder="true"
     inkscape:zoom="0.83379888"
     inkscape:cx="800.60357"
     inkscape:cy="311.49382"
     inkscape:window-x="65"
     inkscape:window-y="24"
     inkscape:window-maximized="1"
     inkscape:current-layer="g3728" />
  <title
     id="title3722">compatible-blobs</title>
  <desc
     id="desc3724">
Creator: GL2PS 1.3.6, (C) 1999-2011 C. Geuzaine
For: Gmsh
CreationDate: Mon Jun  2 20:08:27 2014
</desc>
  <defs
     id="defs3726" />
  <g
     shape-rendering="crispEdges"
     id="g3728"
     transform="translate(0.5,-99.500001)">
    <polyline
       points="1297.21,553.245 1301,569.338"
       id="polyline3734"
       style="fill:none;stroke:#3e3e3e;stroke-width:1" />
    <polyline
       points="1301,552.486 1297.21,553.245 1284.23,499.898 1301,496.831"
       id="polyline3736"
       style="fill:none;stroke:#3e3e3e;stroke-width:1" />
    <polyline
       points="1270.14,442.916 1301,438.337"
       id="polyline3742"
       style="fill:none;stroke:#3e3e3e;stroke-width:1" />
    <polyline
       points="1295.1,197.821 1301,231.706"
       id="polyline3746"
       style="fill:none;stroke:#3e3e3e;stroke-width:1" />
    <polyline
       points="1295.1,197.821 1301,193.668"
       id="polyline3748"
       style="fill:none;stroke:#3e3e3e;stroke-width:1" />
    <polyline
       points="1247.19,568.567 1297.21,553.245"
       id="polyline3750"
       style="fill:none;stroke:#3e3e3e;stroke-width:1" />
    <polyline
       points="1270.14,442.916 1284.23,499.898"
       id="polyline3752"
       style="fill:none;stroke:#3e3e3e;stroke-width:1" />
    <polyline
       points="1294.62,108.121 1301,115.583"
       id="polyline3754"
       style="fill:none;stroke:#3e3e3e;stroke-width:1" />
    <polyline
       points="1301,102.874 1294.62,108.121"
       id="polyline3756"
       style="fill:none;stroke:#3e3e3e;stroke-width:1" />
    <polyline
       points="1256.65,383.396 1301,376.346"
       id="polyline3760"
       style="fill:none;stroke:#3e3e3e;stroke-width:1" />
    <polyline
       points="1264.63,619.071 1247.19,568.567"
       id="polyline3762"
       style="fill:none;stroke:#3e3e3e;stroke-width:1" />
    <polyline
       points="1301,310.255 1243.21,319.971"
       id="polyline3764"
       style="fill:none;stroke:#3e3e3e;stroke-width:1" />
    <polyline
       points="1284.23,499.898 1230.66,515.384"
       id="polyline3766"
       style="fill:none;stroke:#3e3e3e;stroke-width:1" />
    <polyline
       points="1270.14,442.916 1256.65,383.396"
       id="polyline3768"
       style="fill:none;stroke:#3e3e3e;stroke-width:1" />
    <polyline
       points="1234.17,256.3 1301,246.006"
       id="polyline3770"
       style="fill:none;stroke:#3e3e3e;stroke-width:1" />
    <polyline
       points="1230.66,515.384 1247.19,568.567"
       id="polyline3778"
       style="fill:none;stroke:#3e3e3e;stroke-width:1" />
    <polyline
       points="1228.6,179.223 1295.1,197.821"
       id="polyline3780"
       style="fill:none;stroke:#3e3e3e;stroke-width:1" />
    <polyline
       points="1243.21,319.971 1256.65,383.396"
       id="polyline3782"
       style="fill:none;stroke:#3e3e3e;stroke-width:1" />
    <polyline
       points="1294.62,108.121 1239.35,39.9156"
       id="polyline3784"
       style="fill:none;stroke:#3e3e3e;stroke-width:1" />
    <polyline
       points="1301,1.82269 1239.35,39.9156"
       id="polyline3786"
       style="fill:none;stroke:#3e3e3e;stroke-width:1" />
    <polyline
       points="1211.68,459.082 1270.14,442.916"
       id="polyline3788"
       style="fill:none;stroke:#3e3e3e;stroke-width:1" />
    <polyline
       points="1228.6,179.223 1294.62,108.121"
       id="polyline3790"
       style="fill:none;stroke:#3e3e3e;stroke-width:1" />
    <polyline
       points="1247.19,568.567 1199.36,586.222"
       id="polyline3796"
       style="fill:none;stroke:#3e3e3e;stroke-width:1" />
    <polyline
       points="1243.21,319.971 1234.17,256.3"
       id="polyline3798"
       style="fill:none;stroke:#3e3e3e;stroke-width:1" />
    <polyline
       points="1230.66,515.384 1211.68,459.082"
       id="polyline3802"
       style="fill:none;stroke:#3e3e3e;stroke-width:1" />
    <polyline
       points="1256.65,383.396 1190.48,399.127"
       id="polyline3806"
       style="fill:none;stroke:#3e3e3e;stroke-width:1" />
    <polyline
       points="1234.17,256.3 1228.6,179.223"
       id="polyline3810"
       style="fill:none;stroke:#3e3e3e;stroke-width:1" />
    <polyline
       points="1180.39,535.597 1230.66,515.384"
       id="polyline3812"
       style="fill:none;stroke:#3e3e3e;stroke-width:1" />
    <polyline
       points="1190.48,399.127 1211.68,459.082"
       id="polyline3816"
       style="fill:none;stroke:#3e3e3e;stroke-width:1" />
    <polyline
       points="1243.21,319.971 1172.01,333.136"
       id="polyline3818"
       style="fill:none;stroke:#3e3e3e;stroke-width:1" />
    <polyline
       points="1216.27,0 1239.35,39.9156"
       id="polyline3820"
       style="fill:none;stroke:#3e3e3e;stroke-width:1" />
    <polyline
       points="1199.36,586.222 1180.39,535.597"
       id="polyline3822"
       style="fill:none;stroke:#3e3e3e;stroke-width:1" />
    <polyline
       points="1165.07,264.487 1234.17,256.3"
       id="polyline3830"
       style="fill:none;stroke:#3e3e3e;stroke-width:1" />
    <polyline
       points="1211.68,459.082 1156.72,482.419"
       id="polyline3832"
       style="fill:none;stroke:#3e3e3e;stroke-width:1" />
    <polyline
       points="1228.6,179.223 1163.22,210.971"
       id="polyline3836"
       style="fill:none;stroke:#3e3e3e;stroke-width:1" />
    <polyline
       points="1190.48,399.127 1172.01,333.136"
       id="polyline3840"
       style="fill:none;stroke:#3e3e3e;stroke-width:1" />
    <polyline
       points="1156.72,482.419 1180.39,535.597"
       id="polyline3842"
       style="fill:none;stroke:#3e3e3e;stroke-width:1" />
    <polyline
       points="1239.35,39.9156 1145.19,105.146"
       id="polyline3846"
       style="fill:none;stroke:#3e3e3e;stroke-width:1" />
    <polyline
       points="1180.39,535.597 1138.53,565.989"
       id="polyline3848"
       style="fill:none;stroke:#3e3e3e;stroke-width:1" />
    <polyline
       points="1145.19,105.146 1228.6,179.223"
       id="polyline3850"
       style="fill:none;stroke:#3e3e3e;stroke-width:1" />
    <polyline
       points="1138.53,565.989 1164.18,598.291"
       id="polyline3852"
       style="fill:none;stroke:#3e3e3e;stroke-width:1" />
    <polyline
       points="1172.01,333.136 1165.07,264.487"
       id="polyline3854"
       style="fill:none;stroke:#3e3e3e;stroke-width:1" />
    <polyline
       points="1130.53,425.45 1190.48,399.127"
       id="polyline3856"
       style="fill:none;stroke:#3e3e3e;stroke-width:1" />
    <polyline
       points="1163.22,210.971 1165.07,264.487"
       id="polyline3858"
       style="fill:none;stroke:#3e3e3e;stroke-width:1" />
    <polyline
       points="1156.72,482.419 1130.53,425.45"
       id="polyline3860"
       style="fill:none;stroke:#3e3e3e;stroke-width:1" />
    <polyline
       points="1138.53,565.989 1106.28,608.088"
       id="polyline3866"
       style="fill:none;stroke:#3e3e3e;stroke-width:1" />
    <polyline
       points="1094.91,512.405 1156.72,482.419"
       id="polyline3870"
       style="fill:none;stroke:#3e3e3e;stroke-width:1" />
    <polyline
       points="1138.53,565.989 1094.91,512.405"
       id="polyline3872"
       style="fill:none;stroke:#3e3e3e;stroke-width:1" />
    <polyline
       points="1172.01,333.136 1086.25,355.446"
       id="polyline3874"
       style="fill:none;stroke:#3e3e3e;stroke-width:1" />
    <polyline
       points="1110.42,192.378 1163.22,210.971"
       id="polyline3876"
       style="fill:none;stroke:#3e3e3e;stroke-width:1" />
    <polyline
       points="1090.76,263.786 1165.07,264.487"
       id="polyline3878"
       style="fill:none;stroke:#3e3e3e;stroke-width:1" />
    <polyline
       points="1130.53,425.45 1089.5,450.803"
       id="polyline3880"
       style="fill:none;stroke:#3e3e3e;stroke-width:1" />
    <polyline
       points="1110.42,192.378 1145.19,105.146"
       id="polyline3884"
       style="fill:none;stroke:#3e3e3e;stroke-width:1" />
    <polyline
       points="1086.25,355.446 1130.53,425.45"
       id="polyline3886"
       style="fill:none;stroke:#3e3e3e;stroke-width:1" />
    <polyline
       points="1145.19,105.146 1099.11,5.03015"
       id="polyline3892"
       style="fill:none;stroke:#3e3e3e;stroke-width:1" />
    <polyline
       points="1094.91,512.405 1089.5,450.803"
       id="polyline3896"
       style="fill:none;stroke:#3e3e3e;stroke-width:1" />
    <polyline
       points="1094.91,512.405 1063.62,577.347"
       id="polyline3898"
       style="fill:none;stroke:#3e3e3e;stroke-width:1" />
    <polyline
       points="1090.76,263.786 1110.42,192.378"
       id="polyline3900"
       style="fill:none;stroke:#3e3e3e;stroke-width:1" />
    <polyline
       points="1145.19,105.146 1059.3,111.933"
       id="polyline3902"
       style="fill:none;stroke:#3e3e3e;stroke-width:1" />
    <polyline
       points="1090.76,263.786 1086.25,355.446"
       id="polyline3904"
       style="fill:none;stroke:#3e3e3e;stroke-width:1" />
    <polyline
       points="1099.11,5.03015 1108.43,0"
       id="polyline3906"
       style="fill:none;stroke:#3e3e3e;stroke-width:1" />
    <polyline
       points="1096.12,0 1099.11,5.03015"
       id="polyline3912"
       style="fill:none;stroke:#3e3e3e;stroke-width:1" />
    <polyline
       points="1089.5,450.803 1045.33,429.57"
       id="polyline3914"
       style="fill:none;stroke:#3e3e3e;stroke-width:1" />
    <polyline
       points="1027.21,493.438 1094.91,512.405"
       id="polyline3920"
       style="fill:none;stroke:#3e3e3e;stroke-width:1" />
    <polyline
       points="1045.33,429.57 1086.25,355.446"
       id="polyline3922"
       style="fill:none;stroke:#3e3e3e;stroke-width:1" />
    <polyline
       points="1034.52,169.919 1110.42,192.378"
       id="polyline3924"
       style="fill:none;stroke:#3e3e3e;stroke-width:1" />
    <polyline
       points="1063.62,577.347 1012.38,555.926"
       id="polyline3926"
       style="fill:none;stroke:#3e3e3e;stroke-width:1" />
    <polyline
       points="1012.71,249.026 1090.76,263.786"
       id="polyline3928"
       style="fill:none;stroke:#3e3e3e;stroke-width:1" />
    <polyline
       points="1045.33,429.57 1027.21,493.438"
       id="polyline3932"
       style="fill:none;stroke:#3e3e3e;stroke-width:1" />
    <polyline
       points="1086.25,355.446 996.368,330.536"
       id="polyline3934"
       style="fill:none;stroke:#3e3e3e;stroke-width:1" />
    <polyline
       points="1099.11,5.03015 1016.98,57.7802"
       id="polyline3938"
       style="fill:none;stroke:#3e3e3e;stroke-width:1" />
    <polyline
       points="1059.3,111.933 1034.52,169.919"
       id="polyline3942"
       style="fill:none;stroke:#3e3e3e;stroke-width:1" />
    <polyline
       points="1027.21,493.438 1012.38,555.926"
       id="polyline3944"
       style="fill:none;stroke:#3e3e3e;stroke-width:1" />
    <polyline
       points="1016.98,57.7802 1059.3,111.933"
       id="polyline3950"
       style="fill:none;stroke:#3e3e3e;stroke-width:1" />
    <polyline
       points="992.49,627.949 1012.38,555.926"
       id="polyline3952"
       style="fill:none;stroke:#3e3e3e;stroke-width:1" />
    <polyline
       points="979.198,406.73 1045.33,429.57"
       id="polyline3954"
       style="fill:none;stroke:#3e3e3e;stroke-width:1" />
    <polyline
       points="1012.71,249.026 1034.52,169.919"
       id="polyline3958"
       style="fill:none;stroke:#3e3e3e;stroke-width:1" />
    <polyline
       points="966.54,475.488 1027.21,493.438"
       id="polyline3962"
       style="fill:none;stroke:#3e3e3e;stroke-width:1" />
    <polyline
       points="996.368,330.536 1012.71,249.026"
       id="polyline3964"
       style="fill:none;stroke:#3e3e3e;stroke-width:1" />
    <polyline
       points="1012.38,555.926 958.249,539.389"
       id="polyline3966"
       style="fill:none;stroke:#3e3e3e;stroke-width:1" />
    <polyline
       points="996.368,330.536 979.198,406.73"
       id="polyline3970"
       style="fill:none;stroke:#3e3e3e;stroke-width:1" />
    <polyline
       points="979.198,406.73 966.54,475.488"
       id="polyline3974"
       style="fill:none;stroke:#3e3e3e;stroke-width:1" />
    <polyline
       points="1034.52,169.919 941.015,133.318"
       id="polyline3978"
       style="fill:none;stroke:#3e3e3e;stroke-width:1" />
    <polyline
       points="958.249,539.389 966.54,475.488"
       id="polyline3980"
       style="fill:none;stroke:#3e3e3e;stroke-width:1" />
    <polyline
       points="1016.98,57.7802 971.487,0"
       id="polyline3982"
       style="fill:none;stroke:#3e3e3e;stroke-width:1" />
    <polyline
       points="951.801,582.738 958.249,539.389"
       id="polyline3986"
       style="fill:none;stroke:#3e3e3e;stroke-width:1" />
    <polyline
       points="930.25,232.104 1012.71,249.026"
       id="polyline3988"
       style="fill:none;stroke:#3e3e3e;stroke-width:1" />
    <polyline
       points="941.015,133.318 1016.98,57.7802"
       id="polyline3990"
       style="fill:none;stroke:#3e3e3e;stroke-width:1" />
    <polyline
       points="917.239,313.358 996.368,330.536"
       id="polyline3994"
       style="fill:none;stroke:#3e3e3e;stroke-width:1" />
    <polyline
       points="907.957,389.836 979.198,406.73"
       id="polyline3998"
       style="fill:none;stroke:#3e3e3e;stroke-width:1" />
    <polyline
       points="902.35,460.798 966.54,475.488"
       id="polyline4002"
       style="fill:none;stroke:#3e3e3e;stroke-width:1" />
    <polyline
       points="958.249,539.389 900.716,526.228"
       id="polyline4004"
       style="fill:none;stroke:#3e3e3e;stroke-width:1" />
    <polyline
       points="941.015,133.318 930.25,232.104"
       id="polyline4010"
       style="fill:none;stroke:#3e3e3e;stroke-width:1" />
    <polyline
       points="900.716,526.228 909.409,586.639"
       id="polyline4014"
       style="fill:none;stroke:#3e3e3e;stroke-width:1" />
    <polyline
       points="930.25,232.104 917.239,313.358 907.957,389.836"
       id="polyline4016"
       style="fill:none;stroke:#3e3e3e;stroke-width:1" />
    <polyline
       points="900.716,526.228 902.35,460.798 907.957,389.836"
       id="polyline4018"
       style="fill:none;stroke:#3e3e3e;stroke-width:1" />
    <polyline
       points="941.015,133.318 875.218,45.7187"
       id="polyline4022"
       style="fill:none;stroke:#3e3e3e;stroke-width:1" />
    <polyline
       points="862.648,155.707 941.015,133.318"
       id="polyline4026"
       style="fill:none;stroke:#3e3e3e;stroke-width:1" />
    <polyline
       points="850.381,217.552 930.25,232.104"
       id="polyline4028"
       style="fill:none;stroke:#3e3e3e;stroke-width:1" />
    <polyline
       points="900.716,526.228 839.062,516.992"
       id="polyline4030"
       style="fill:none;stroke:#3e3e3e;stroke-width:1" />
    <polyline
       points="929.108,0 875.218,45.7187"
       id="polyline4032"
       style="fill:none;stroke:#3e3e3e;stroke-width:1" />
    <polyline
       points="902.35,460.798 836.834,448.124"
       id="polyline4034"
       style="fill:none;stroke:#3e3e3e;stroke-width:1" />
    <polyline
       points="839.352,298.694 917.239,313.358"
       id="polyline4036"
       style="fill:none;stroke:#3e3e3e;stroke-width:1" />
    <polyline
       points="907.957,389.836 836.754,376.221"
       id="polyline4040"
       style="fill:none;stroke:#3e3e3e;stroke-width:1" />
    <polyline
       points="839.062,516.992 839.262,588.365"
       id="polyline4044"
       style="fill:none;stroke:#3e3e3e;stroke-width:1" />
    <polyline
       points="839.062,516.992 836.834,448.124"
       id="polyline4046"
       style="fill:none;stroke:#3e3e3e;stroke-width:1" />
    <polyline
       points="850.381,217.552 862.648,155.707"
       id="polyline4048"
       style="fill:none;stroke:#3e3e3e;stroke-width:1" />
    <polyline
       points="836.834,448.124 836.754,376.221"
       id="polyline4050"
       style="fill:none;stroke:#3e3e3e;stroke-width:1" />
    <polyline
       points="839.352,298.694 850.381,217.552"
       id="polyline4052"
       style="fill:none;stroke:#3e3e3e;stroke-width:1" />
    <polyline
       points="836.754,376.221 839.352,298.694"
       id="polyline4054"
       style="fill:none;stroke:#3e3e3e;stroke-width:1" />
    <polyline
       points="875.218,45.7187 825.823,0"
       id="polyline4058"
       style="fill:none;stroke:#3e3e3e;stroke-width:1" />
    <polyline
       points="839.262,588.365 784.088,555.995"
       id="polyline4060"
       style="fill:none;stroke:#3e3e3e;stroke-width:1" />
    <polyline
       points="875.218,45.7187 813.371,113.028 862.648,155.707"
       id="polyline4062"
       style="fill:none;stroke:#3e3e3e;stroke-width:1" />
    <polyline
       points="839.062,516.992 776.39,506.989"
       id="polyline4064"
       style="fill:none;stroke:#3e3e3e;stroke-width:1" />
    <polyline
       points="769.475,437.688 836.834,448.124"
       id="polyline4068"
       style="fill:none;stroke:#3e3e3e;stroke-width:1" />
    <polyline
       points="766.456,365.617 836.754,376.221"
       id="polyline4070"
       style="fill:none;stroke:#3e3e3e;stroke-width:1" />
    <polyline
       points="839.352,298.694 763.883,290.073"
       id="polyline4076"
       style="fill:none;stroke:#3e3e3e;stroke-width:1" />
    <polyline
       points="756.01,192.664 850.381,217.552"
       id="polyline4078"
       style="fill:none;stroke:#3e3e3e;stroke-width:1" />
    <polyline
       points="784.088,555.995 776.39,506.989"
       id="polyline4080"
       style="fill:none;stroke:#3e3e3e;stroke-width:1" />
    <polyline
       points="776.39,506.989 769.475,437.688"
       id="polyline4086"
       style="fill:none;stroke:#3e3e3e;stroke-width:1" />
    <polyline
       points="738.547,581.051 784.088,555.995"
       id="polyline4088"
       style="fill:none;stroke:#3e3e3e;stroke-width:1" />
    <polyline
       points="756.01,192.664 813.371,113.028"
       id="polyline4090"
       style="fill:none;stroke:#3e3e3e;stroke-width:1" />
    <polyline
       points="769.475,437.688 766.456,365.617"
       id="polyline4092"
       style="fill:none;stroke:#3e3e3e;stroke-width:1" />
    <polyline
       points="763.883,290.073 766.456,365.617"
       id="polyline4098"
       style="fill:none;stroke:#3e3e3e;stroke-width:1" />
    <polyline
       points="813.371,113.028 743.119,64.2029"
       id="polyline4100"
       style="fill:none;stroke:#3e3e3e;stroke-width:1" />
    <polyline
       points="711.351,504.091 776.39,506.989"
       id="polyline4104"
       style="fill:none;stroke:#3e3e3e;stroke-width:1" />
    <polyline
       points="763.883,290.073 756.01,192.664"
       id="polyline4106"
       style="fill:none;stroke:#3e3e3e;stroke-width:1" />
    <polyline
       points="769.475,437.688 698.447,427.805"
       id="polyline4110"
       style="fill:none;stroke:#3e3e3e;stroke-width:1" />
    <polyline
       points="711.351,504.091 738.547,581.051"
       id="polyline4112"
       style="fill:none;stroke:#3e3e3e;stroke-width:1" />
    <polyline
       points="743.119,64.2029 770.923,0"
       id="polyline4114"
       style="fill:none;stroke:#3e3e3e;stroke-width:1" />
    <polyline
       points="766.456,365.617 698.476,350.802"
       id="polyline4118"
       style="fill:none;stroke:#3e3e3e;stroke-width:1" />
    <polyline
       points="763.883,290.073 708.151,292.959"
       id="polyline4120"
       style="fill:none;stroke:#3e3e3e;stroke-width:1" />
    <polyline
       points="709.436,124.093 756.01,192.664"
       id="polyline4124"
       style="fill:none;stroke:#3e3e3e;stroke-width:1" />
    <polyline
       points="698.447,427.805 711.351,504.091"
       id="polyline4128"
       style="fill:none;stroke:#3e3e3e;stroke-width:1" />
    <polyline
       points="709.436,124.093 743.119,64.2029"
       id="polyline4132"
       style="fill:none;stroke:#3e3e3e;stroke-width:1" />
    <polyline
       points="698.476,350.802 708.151,292.959"
       id="polyline4134"
       style="fill:none;stroke:#3e3e3e;stroke-width:1" />
    <polyline
       points="698.476,350.802 698.447,427.805"
       id="polyline4136"
       style="fill:none;stroke:#3e3e3e;stroke-width:1" />
    <polyline
       points="652.836,233.893 756.01,192.664"
       id="polyline4138"
       style="fill:none;stroke:#3e3e3e;stroke-width:1" />
    <polyline
       points="667.693,24.3024 743.119,64.2029"
       id="polyline4142"
       style="fill:none;stroke:#3e3e3e;stroke-width:1" />
    <polyline
       points="711.351,504.091 629.176,514.315"
       id="polyline4144"
       style="fill:none;stroke:#3e3e3e;stroke-width:1" />
    <polyline
       points="708.151,292.959 652.836,233.893"
       id="polyline4146"
       style="fill:none;stroke:#3e3e3e;stroke-width:1" />
    <path
       style="font-size:medium;font-style:normal;font-variant:normal;font-weight:normal;font-stretch:normal;text-indent:0;text-align:start;text-decoration:none;line-height:normal;letter-spacing:normal;word-spacing:normal;text-transform:none;direction:ltr;block-progression:tb;writing-mode:lr-tb;text-anchor:start;baseline-shift:baseline;color:#000000;fill:#3e3e3e;fill-opacity:1;stroke:none;stroke-width:1;marker:none;visibility:visible;display:inline;overflow:visible;enable-background:accumulate;font-family:Sans;-inkscape-font-specification:Sans"
       d="m 629.5625,514 -0.78125,0.625 -30.87453,72.7568 0.78125,-0.625 z"
       id="polyline4148"
       inkscape:connector-curvature="0"
       sodipodi:nodetypes="ccccc" />
    <polyline
       points="698.447,427.805 621.261,413.804"
       id="polyline4150"
       style="fill:none;stroke:#3e3e3e;stroke-width:1" />
    <polyline
       points="626.41,327.85 698.476,350.802"
       id="polyline4152"
       style="fill:none;stroke:#3e3e3e;stroke-width:1" />
    <polyline
       points="626.139,114.749 709.436,124.093"
       id="polyline4156"
       style="fill:none;stroke:#3e3e3e;stroke-width:1" />
    <polyline
       points="680.438,0 667.693,24.3024"
       id="polyline4158"
       style="fill:none;stroke:#3e3e3e;stroke-width:1" />
    <polyline
       points="652.836,233.893 626.41,327.85"
       id="polyline4164"
       style="fill:none;stroke:#3e3e3e;stroke-width:1" />
    <polyline
       points="629.176,514.315 621.261,413.804"
       id="polyline4166"
       style="fill:none;stroke:#3e3e3e;stroke-width:1" />
    <polyline
       points="667.693,24.3024 626.139,114.749"
       id="polyline4168"
       style="fill:none;stroke:#3e3e3e;stroke-width:1" />
    <polyline
       points="652.836,233.893 626.139,114.749"
       id="polyline4170"
       style="fill:none;stroke:#3e3e3e;stroke-width:1" />
    <polyline
       points="628.046,0 667.693,24.3024"
       id="polyline4172"
       style="fill:none;stroke:#3e3e3e;stroke-width:1" />
    <polyline
       points="621.261,413.804 626.41,327.85"
       id="polyline4174"
       style="fill:none;stroke:#3e3e3e;stroke-width:1" />
    <polyline
       points="552.306,215.637 652.836,233.893"
       id="polyline4182"
       style="fill:none;stroke:#3e3e3e;stroke-width:1" />
    <polyline
       points="530.322,483.365 629.176,514.315"
       id="polyline4184"
       style="fill:none;stroke:#3e3e3e;stroke-width:1" />
    <polyline
       points="542.751,303.387 626.41,327.85"
       id="polyline4190"
       style="fill:none;stroke:#3e3e3e;stroke-width:1" />
    <polyline
       points="621.261,413.804 534.691,394.076"
       id="polyline4192"
       style="fill:none;stroke:#3e3e3e;stroke-width:1" />
    <polyline
       points="626.139,114.749 556.762,150.561"
       id="polyline4194"
       style="fill:none;stroke:#3e3e3e;stroke-width:1" />
    <polyline
       points="592.553,586.405 526.014,559.069"
       id="polyline4196"
       style="fill:none;stroke:#3e3e3e;stroke-width:1" />
    <polyline
       points="626.139,114.749 543.2,45.9877"
       id="polyline4198"
       style="fill:none;stroke:#3e3e3e;stroke-width:1" />
    <polyline
       points="556.762,150.561 552.306,215.637"
       id="polyline4206"
       style="fill:none;stroke:#3e3e3e;stroke-width:1" />
    <polyline
       points="542.751,303.387 552.306,215.637"
       id="polyline4208"
       style="fill:none;stroke:#3e3e3e;stroke-width:1" />
    <polyline
       points="526.014,559.069 530.322,483.365"
       id="polyline4210"
       style="fill:none;stroke:#3e3e3e;stroke-width:1" />
    <polyline
       points="522.056,604.656 526.014,559.069"
       id="polyline4212"
       style="fill:none;stroke:#3e3e3e;stroke-width:1" />
    <polyline
       points="534.691,394.076 542.751,303.387"
       id="polyline4216"
       style="fill:none;stroke:#3e3e3e;stroke-width:1" />
    <polyline
       points="534.691,394.076 530.322,483.365"
       id="polyline4218"
       style="fill:none;stroke:#3e3e3e;stroke-width:1" />
    <polyline
       points="543.2,45.9877 576.552,0"
       id="polyline4220"
       style="fill:none;stroke:#3e3e3e;stroke-width:1" />
    <polyline
       points="556.762,150.561 496.611,112.098"
       id="polyline4226"
       style="fill:none;stroke:#3e3e3e;stroke-width:1" />
    <polyline
       points="526.014,559.069 459.724,556.624"
       id="polyline4230"
       style="fill:none;stroke:#3e3e3e;stroke-width:1" />
    <polyline
       points="496.611,112.098 543.2,45.9877"
       id="polyline4232"
       style="fill:none;stroke:#3e3e3e;stroke-width:1" />
    <polyline
       points="467.545,190.317 552.306,215.637"
       id="polyline4234"
       style="fill:none;stroke:#3e3e3e;stroke-width:1" />
    <polyline
       points="454.363,280.516 542.751,303.387"
       id="polyline4238"
       style="fill:none;stroke:#3e3e3e;stroke-width:1" />
    <polyline
       points="483.172,0 543.2,45.9877"
       id="polyline4240"
       style="fill:none;stroke:#3e3e3e;stroke-width:1" />
    <polyline
       points="443.417,372.245 534.691,394.076"
       id="polyline4242"
       style="fill:none;stroke:#3e3e3e;stroke-width:1" />
    <polyline
       points="530.322,483.365 427.807,473.966"
       id="polyline4244"
       style="fill:none;stroke:#3e3e3e;stroke-width:1" />
    <polyline
       points="459.724,556.624 478.796,617.194"
       id="polyline4246"
       style="fill:none;stroke:#3e3e3e;stroke-width:1" />
    <polyline
       points="496.611,112.098 467.545,190.317"
       id="polyline4252"
       style="fill:none;stroke:#3e3e3e;stroke-width:1" />
    <polyline
       points="427.807,473.966 459.724,556.624"
       id="polyline4258"
       style="fill:none;stroke:#3e3e3e;stroke-width:1" />
    <polyline
       points="467.545,190.317 454.363,280.516 443.417,372.245"
       id="polyline4260"
       style="fill:none;stroke:#3e3e3e;stroke-width:1" />
    <polyline
       points="459.724,556.624 394.875,576.181"
       id="polyline4262"
       style="fill:none;stroke:#3e3e3e;stroke-width:1" />
    <polyline
       points="427.807,473.966 443.417,372.245"
       id="polyline4264"
       style="fill:none;stroke:#3e3e3e;stroke-width:1" />
    <polyline
       points="398.712,43.0574 496.611,112.098"
       id="polyline4266"
       style="fill:none;stroke:#3e3e3e;stroke-width:1" />
    <polyline
       points="479.358,0 398.712,43.0574"
       id="polyline4270"
       style="fill:none;stroke:#3e3e3e;stroke-width:1" />
    <polyline
       points="427.807,473.966 374.866,524.02"
       id="polyline4274"
       style="fill:none;stroke:#3e3e3e;stroke-width:1" />
    <polyline
       points="376.439,161.722 467.545,190.317"
       id="polyline4276"
       style="fill:none;stroke:#3e3e3e;stroke-width:1" />
    <polyline
       points="454.363,280.516 363.515,258.333"
       id="polyline4278"
       style="fill:none;stroke:#3e3e3e;stroke-width:1" />
    <polyline
       points="443.417,372.245 355.577,349.975"
       id="polyline4282"
       style="fill:none;stroke:#3e3e3e;stroke-width:1" />
    <polyline
       points="394.875,576.181 374.866,524.02"
       id="polyline4284"
       style="fill:none;stroke:#3e3e3e;stroke-width:1" />
    <polyline
       points="337.638,430.67 427.807,473.966"
       id="polyline4286"
       style="fill:none;stroke:#3e3e3e;stroke-width:1" />
    <polyline
       points="390.104,0 398.712,43.0574"
       id="polyline4290"
       style="fill:none;stroke:#3e3e3e;stroke-width:1" />
    <polyline
       points="376.439,161.722 398.712,43.0574"
       id="polyline4292"
       style="fill:none;stroke:#3e3e3e;stroke-width:1" />
    <polyline
       points="363.515,258.333 376.439,161.722"
       id="polyline4296"
       style="fill:none;stroke:#3e3e3e;stroke-width:1" />
    <polyline
       points="363.515,258.333 355.577,349.975"
       id="polyline4298"
       style="fill:none;stroke:#3e3e3e;stroke-width:1" />
    <polyline
       points="355.577,349.975 337.638,430.67"
       id="polyline4302"
       style="fill:none;stroke:#3e3e3e;stroke-width:1" />
    <polyline
       points="374.866,524.02 300.779,514.5 328.848,602.475"
       id="polyline4304"
       style="fill:none;stroke:#3e3e3e;stroke-width:1" />
    <polyline
       points="337.638,430.67 300.779,514.5"
       id="polyline4306"
       style="fill:none;stroke:#3e3e3e;stroke-width:1" />
    <polyline
       points="398.712,43.0574 291.516,51.1495"
       id="polyline4310"
       style="fill:none;stroke:#3e3e3e;stroke-width:1" />
    <polyline
       points="355.577,349.975 270.993,341.693"
       id="polyline4314"
       style="fill:none;stroke:#3e3e3e;stroke-width:1" />
    <polyline
       points="278.955,406.385 337.638,430.67"
       id="polyline4316"
       style="fill:none;stroke:#3e3e3e;stroke-width:1" />
    <polyline
       points="275.88,138.838 376.439,161.722"
       id="polyline4318"
       style="fill:none;stroke:#3e3e3e;stroke-width:1" />
    <polyline
       points="268.552,245.311 363.515,258.333"
       id="polyline4322"
       style="fill:none;stroke:#3e3e3e;stroke-width:1" />
    <polyline
       points="278.955,406.385 270.993,341.693"
       id="polyline4326"
       style="fill:none;stroke:#3e3e3e;stroke-width:1" />
    <polyline
       points="300.779,514.5 231.843,443.885"
       id="polyline4328"
       style="fill:none;stroke:#3e3e3e;stroke-width:1" />
    <polyline
       points="300.779,514.5 218.109,563.798"
       id="polyline4330"
       style="fill:none;stroke:#3e3e3e;stroke-width:1" />
    <polyline
       points="291.516,51.1495 275.88,138.838"
       id="polyline4332"
       style="fill:none;stroke:#3e3e3e;stroke-width:1" />
    <polyline
       points="270.993,341.693 268.552,245.311 275.88,138.838"
       id="polyline4334"
       style="fill:none;stroke:#3e3e3e;stroke-width:1" />
    <polyline
       points="231.843,443.885 278.955,406.385"
       id="polyline4336"
       style="fill:none;stroke:#3e3e3e;stroke-width:1" />
    <polyline
       points="218.109,563.798 260.011,635.612"
       id="polyline4338"
       style="fill:none;stroke:#3e3e3e;stroke-width:1" />
    <polyline
       points="291.516,51.1495 224.825,0"
       id="polyline4342"
       style="fill:none;stroke:#3e3e3e;stroke-width:1" />
    <polyline
       points="270.993,341.693 171.151,360.626"
       id="polyline4346"
       style="fill:none;stroke:#3e3e3e;stroke-width:1" />
    <polyline
       points="167.307,246.067 268.552,245.311"
       id="polyline4348"
       style="fill:none;stroke:#3e3e3e;stroke-width:1" />
    <polyline
       points="170.747,493.777 231.843,443.885"
       id="polyline4350"
       style="fill:none;stroke:#3e3e3e;stroke-width:1" />
    <polyline
       points="218.109,563.798 170.747,493.777"
       id="polyline4352"
       style="fill:none;stroke:#3e3e3e;stroke-width:1" />
    <polyline
       points="275.88,138.838 164.696,128.654"
       id="polyline4354"
       style="fill:none;stroke:#3e3e3e;stroke-width:1" />
    <polyline
       points="171.151,360.626 231.843,443.885"
       id="polyline4356"
       style="fill:none;stroke:#3e3e3e;stroke-width:1" />
    <polyline
       points="150.321,604.361 218.109,563.798"
       id="polyline4358"
       style="fill:none;stroke:#3e3e3e;stroke-width:1" />
    <polyline
       points="167.307,246.067 171.151,360.626"
       id="polyline4366"
       style="fill:none;stroke:#3e3e3e;stroke-width:1" />
    <polyline
       points="167.307,246.067 164.696,128.654"
       id="polyline4368"
       style="fill:none;stroke:#3e3e3e;stroke-width:1" />
    <polyline
       points="182.884,0 164.696,128.654"
       id="polyline4370"
       style="fill:none;stroke:#3e3e3e;stroke-width:1" />
    <polyline
       points="108.823,535.005 170.747,493.777 115.145,437.744"
       id="polyline4372"
       style="fill:none;stroke:#3e3e3e;stroke-width:1" />
    <polyline
       points="171.151,360.626 115.145,437.744"
       id="polyline4374"
       style="fill:none;stroke:#3e3e3e;stroke-width:1" />
    <polyline
       points="108.823,535.005 150.321,604.361"
       id="polyline4376"
       style="fill:none;stroke:#3e3e3e;stroke-width:1" />
    <polyline
       points="171.151,360.626 85.2785,337.47"
       id="polyline4382"
       style="fill:none;stroke:#3e3e3e;stroke-width:1" />
    <polyline
       points="61.7378,262.951 167.307,246.067"
       id="polyline4384"
       style="fill:none;stroke:#3e3e3e;stroke-width:1" />
    <polyline
       points="81.8593,482.479 108.823,535.005"
       id="polyline4386"
       style="fill:none;stroke:#3e3e3e;stroke-width:1" />
    <polyline
       points="115.145,437.744 81.8593,482.479"
       id="polyline4388"
       style="fill:none;stroke:#3e3e3e;stroke-width:1" />
    <polyline
       points="164.696,128.654 39.5748,146.073"
       id="polyline4392"
       style="fill:none;stroke:#3e3e3e;stroke-width:1" />
    <polyline
       points="39.1296,558.135 108.823,535.005"
       id="polyline4394"
       style="fill:none;stroke:#3e3e3e;stroke-width:1" />
    <polyline
       points="45.1766,393.94 115.145,437.744"
       id="polyline4396"
       style="fill:none;stroke:#3e3e3e;stroke-width:1" />
    <polyline
       points="76.3345,657.516 39.1296,558.135"
       id="polyline4398"
       style="fill:none;stroke:#3e3e3e;stroke-width:1" />
    <polyline
       points="61.7378,262.951 85.2785,337.47 45.1766,393.94"
       id="polyline4400"
       style="fill:none;stroke:#3e3e3e;stroke-width:1" />
    <polyline
       points="81.8593,482.479 25.0386,473.72"
       id="polyline4402"
       style="fill:none;stroke:#3e3e3e;stroke-width:1" />
    <polyline
       points="39.1296,558.135 25.0386,473.72"
       id="polyline4406"
       style="fill:none;stroke:#3e3e3e;stroke-width:1" />
    <polyline
       points="39.5748,146.073 61.7378,262.951"
       id="polyline4408"
       style="fill:none;stroke:#3e3e3e;stroke-width:1" />
    <polyline
       points="25.0386,473.72 45.1766,393.94"
       id="polyline4410"
       style="fill:none;stroke:#3e3e3e;stroke-width:1" />
    <polyline
       points="0,564.103 39.1296,558.135"
       id="polyline4412"
       style="fill:none;stroke:#3e3e3e;stroke-width:1" />
    <polyline
       points="0,293.329 61.7378,262.951"
       id="polyline4414"
       style="fill:none;stroke:#3e3e3e;stroke-width:1" />
    <polyline
       points="45.1766,393.94 0,369.383"
       id="polyline4416"
       style="fill:none;stroke:#3e3e3e;stroke-width:1" />
    <polyline
       points="25.0386,473.72 0,472.896"
       id="polyline4418"
       style="fill:none;stroke:#3e3e3e;stroke-width:1" />
    <polyline
       points="60.1389,0 12.0959,10.9915 39.5748,146.073 0,155.151"
       id="polyline4420"
       style="fill:none;stroke:#3e3e3e;stroke-width:1" />
    <polyline
       points="12.0959,10.9915 7.13446,0"
       id="polyline4422"
       style="fill:none;stroke:#3e3e3e;stroke-width:1" />
    <polyline
       points="12.0959,10.9915 0,15.8171"
       id="polyline4424"
       style="fill:none;stroke:#3e3e3e;stroke-width:1" />
  </g>
  <path
     style="fill:#ff0000;fill-opacity:1;stroke:none"
     d="m 408.62967,169.22223 c -23.70207,-5.87757 -43.25807,-10.84989 -43.45777,-11.0496 -0.19971,-0.19971 2.44932,-21.55243 5.88673,-47.45049 l 6.24985,-47.087391 3.62669,0.8799 c 1.99468,0.48394 5.05932,0.93177 6.81032,0.99518 1.75099,0.0634 2.88092,0.60509 2.51095,1.20372 -0.36998,0.59863 0.49185,0.78388 1.91517,0.41168 1.65828,-0.43365 2.30449,-0.21825 1.799,0.59966 -0.5055,0.81791 0.14072,1.03332 1.79899,0.59967 1.42333,-0.37221 2.32707,-0.25477 2.00832,0.26097 -0.82938,1.34197 9.68684,4.07662 11.46076,2.98028 1.01378,-0.62655 1.17331,-0.41907 0.50687,0.65925 -0.72451,1.17228 -0.31258,1.40098 1.61534,0.89682 1.65828,-0.43365 2.30449,-0.21825 1.799,0.59966 -0.5055,0.81791 0.14072,1.03332 1.79899,0.59967 1.65828,-0.43365 2.30449,-0.21825 1.799,0.59966 -0.5055,0.81791 0.14072,1.03332 1.79899,0.59967 1.42333,-0.37221 2.32707,-0.25477 2.00832,0.26097 -0.82938,1.34197 9.68684,4.07662 11.46076,2.98028 1.01378,-0.62656 1.17331,-0.41907 0.50687,0.65925 -0.72451,1.17228 -0.31258,1.40098 1.61534,0.89682 1.65828,-0.43365 2.30449,-0.21825 1.799,0.59966 -0.5055,0.81791 0.14072,1.03332 1.79899,0.59967 1.42333,-0.37221 2.32707,-0.25477 2.00832,0.26097 -0.82938,1.34197 9.68684,4.07662 11.46076,2.98028 0.89665,-0.55416 1.17344,-0.41929 0.7027,0.34239 -0.92116,1.49047 4.71377,3.15607 6.64318,1.96362 0.86099,-0.53212 0.98678,-0.26716 0.35697,0.7519 -0.72451,1.17228 -0.31258,1.40098 1.61534,0.89682 1.42333,-0.37221 2.32334,-0.24873 2.00003,0.27439 -0.32331,0.52312 0.42242,1.21531 1.65716,1.53821 1.61584,0.42255 2.3745,1.94498 2.70708,5.43245 0.25414,2.66496 -0.0161,4.549851 -0.60053,4.188651 -0.58443,-0.361201 -0.85428,1.52774 -0.59966,4.19765 0.25462,2.66991 -0.0152,4.55886 -0.59967,4.19766 -0.58443,-0.3612 -0.85428,1.52774 -0.59966,4.19765 0.25462,2.66991 0.12837,4.6476 -0.28056,4.39488 -1.05816,-0.65399 -5.07684,29.12576 -4.22869,31.336 0.44135,1.15013 0.20925,1.52666 -0.62371,1.01186 -0.91154,-0.56336 -1.18178,0.69897 -0.86369,4.03448 0.25462,2.66991 -0.0152,4.55886 -0.59967,4.19766 -0.58443,-0.3612 -0.85428,1.52774 -0.59966,4.19765 0.25462,2.66991 -0.0152,4.55886 -0.59967,4.19766 -0.58443,-0.3612 -0.85428,1.52774 -0.59966,4.19765 0.25462,2.66991 0.0482,4.59808 -0.45863,4.28482 -0.50686,-0.31326 -0.92157,0.81154 -0.92157,2.49954 0,1.72305 -0.65751,3.01376 -1.49916,2.9429 -0.82454,-0.0694 -20.89176,-4.93513 -44.59383,-10.8127 z"
     id="path26256"
     inkscape:connector-curvature="0" />
  <path
     style="fill:#ff0000;fill-opacity:1;stroke:none"
     d="m 316.9217,151.74273 c -25.32871,-3.47494 -46.30256,-6.56841 -46.60854,-6.87439 -0.55672,-0.55672 5.1948,-90.419621 6.38877,-99.819341 l 0.63318,-4.98484 4.29634,1.18628 c 2.36298,0.65245 5.30658,0.92209 6.54132,0.5992 1.37554,-0.35972 1.94308,-0.0986 1.46542,0.67429 -0.50022,0.80937 0.34572,1.04626 2.36071,0.66107 1.90094,-0.36339 2.85071,-0.13176 2.40655,0.5869 -0.44811,0.72506 0.70853,0.97553 2.97128,0.64343 2.19998,-0.32289 3.41474,-0.0741 2.99044,0.61242 -0.42073,0.68075 0.57677,0.90935 2.4257,0.55591 1.72716,-0.33017 2.88447,-0.1864 2.57182,0.31949 -0.77788,1.25864 8.59736,2.74457 10.37699,1.6447 0.95774,-0.59191 1.11115,-0.36924 0.46542,0.67557 -0.72483,1.17281 -0.18603,1.40996 2.17706,0.95823 1.90094,-0.36339 2.85071,-0.13176 2.40655,0.5869 -0.44811,0.72506 0.70852,0.97553 2.97128,0.64343 2.19998,-0.32289 3.41474,-0.0741 2.99044,0.61242 -0.42073,0.68075 0.57677,0.90935 2.4257,0.55591 1.72716,-0.33017 2.88447,-0.1864 2.57182,0.31949 -0.77789,1.25864 8.59736,2.74457 10.37698,1.6447 0.95775,-0.59191 1.11116,-0.36923 0.46543,0.67557 -0.72483,1.17281 -0.18603,1.40996 2.17706,0.95823 1.90094,-0.36339 2.85071,-0.13176 2.40655,0.5869 -0.44811,0.72506 0.70852,0.97553 2.97128,0.64343 2.19998,-0.32289 3.41474,-0.0741 2.99044,0.61242 -0.42073,0.68075 0.57677,0.90935 2.4257,0.55591 1.72716,-0.33017 2.88447,-0.1864 2.57182,0.31949 -0.77789,1.25864 8.59736,2.74457 10.37698,1.6447 0.95775,-0.59191 1.11116,-0.36924 0.46543,0.67557 -0.72483,1.17281 -0.18603,1.40996 2.17706,0.95823 1.72716,-0.33017 2.8834,-0.18466 2.56944,0.32334 -0.31396,0.508 0.0874,1.14307 0.89202,1.41126 1.1006,0.36687 0.0341,11.30703 -4.30685,44.177811 -3.17334,24.02961 -6.12198,45.32892 -6.55254,47.33181 l -0.78283,3.64162 -46.05222,-6.31806 z"
     id="path26258"
     inkscape:connector-curvature="0" />
  <path
     style="fill:#ff0000;fill-opacity:1;stroke:none"
     d="m 168.05981,132.48777 c -0.0126,-7.09103 -0.55234,-32.816671 -1.19932,-57.168071 -0.64698,-24.35141 -0.93225,-44.51936 -0.63393,-44.81768 0.29831,-0.29831 13.79391,0.66332 29.99021,2.13696 16.1963,1.47364 30.52482,2.3977 31.84116,2.05347 1.42347,-0.37225 2.09251,-0.13914 1.651,0.57525 -0.47429,0.76742 1.86675,1.05182 6.48355,0.78764 3.97424,-0.2274 6.94258,0.0425 6.59632,0.59967 -0.34626,0.55722 2.62208,0.82707 6.59631,0.59966 3.97424,-0.2274 6.94258,0.0425 6.59632,0.59967 -0.34626,0.55722 2.62208,0.82707 6.59631,0.59966 3.97424,-0.2274 6.97418,-0.009 6.66655,0.48603 -0.30764,0.49473 1.05261,0.8995 3.02278,0.8995 l 3.58211,0 -0.55804,6.29648 c -0.93231,10.5195 -6.46463,92.778691 -6.46463,96.121601 l 0,3.12296 -50.37186,0 -50.37186,0 -0.023,-12.8928 z"
     id="path26260"
     inkscape:connector-curvature="0" />
  <path
     style="fill:#ff0000;fill-opacity:1;stroke:none"
     d="M 61.477451,155.99905 C 55.997577,128.63859 41.026039,47.762839 41.376187,47.412689 42.09467,46.694209 163.41883,29.978469 163.96331,30.522949 c 0.53134,0.53134 2.87434,84.663751 2.90314,104.245721 l 0.017,11.57571 -7.19412,0.83497 c -3.95676,0.45923 -6.96295,1.20897 -6.68044,1.66611 0.28253,0.45712 -1.41107,0.60643 -3.76353,0.33179 -2.9369,-0.34286 -4.01849,-0.0807 -3.45158,0.83658 0.52333,0.84676 0.14693,1.07547 -1.02795,0.62463 -2.23928,-0.8593 -22.36614,1.9915 -21.69757,3.07327 0.25908,0.4192 -1.45369,0.53748 -3.80615,0.26284 -2.9369,-0.34286 -4.01849,-0.0807 -3.45158,0.83658 0.52333,0.84676 0.14693,1.07547 -1.02795,0.62463 -2.23928,-0.8593 -22.366139,1.9915 -21.69757,3.07327 0.259082,0.4192 -1.453687,0.53748 -3.806154,0.26284 -2.352466,-0.27463 -3.985241,-0.027 -3.628388,0.55048 0.356855,0.57741 -1.593357,1.06647 -4.333802,1.08683 -2.740443,0.0204 -8.036013,0.48107 -11.76793,1.02383 l -6.785304,0.98684 -1.285991,-6.42082 0,0 z"
     id="path26262"
     inkscape:connector-curvature="0" />
  <path
     style="fill:#ff0000;fill-opacity:1;stroke:none"
     d="m 311.76411,245.65024 c -20.90944,-2.09021 -38.40426,-4.18747 -38.87737,-4.66058 -0.92299,-0.92299 -3.52276,-92.94834 -2.65049,-93.82061 0.28682,-0.28682 21.27012,2.3389 46.62958,5.83492 l 46.10809,6.35641 -0.26755,4.70356 c -0.14715,2.58696 -1.40837,17.88905 -2.80272,34.00464 -1.39434,16.1156 -2.31608,30.79388 -2.04829,32.61841 0.26778,1.82453 -0.004,3.01396 -0.60388,2.6432 -0.62725,-0.38767 -0.91726,2.65003 -0.68248,7.14857 0.22455,4.30249 0.003,7.57084 -0.49123,7.263 -0.49472,-0.30784 -0.8995,0.0119 -0.8995,0.71041 0,1.59914 1.7269,1.71059 -43.41416,-2.80193 l 0,0 z"
     id="path26264"
     inkscape:connector-curvature="0" />
  <path
     style="fill:#ff0000;fill-opacity:1;stroke:none"
     d="m 397.75449,260.55741 -40.77722,-10.40566 0.4191,-6.51122 c 0.99415,-15.44494 7.16517,-82.85707 7.62717,-83.31908 0.40252,-0.40252 78.45817,18.16891 86.28825,20.53017 1.41177,0.42574 2.10541,2.28741 2.39866,6.43776 0.2269,3.21135 0.093,5.64056 -0.29751,5.39824 -1.03059,-0.63947 -3.90313,26.63732 -3.04162,28.88237 0.39923,1.04039 0.29334,1.62429 -0.23531,1.29756 -0.52866,-0.32672 -2.23299,10.43922 -3.78741,23.92431 -2.6813,23.2611 -2.95418,24.50946 -5.32156,24.34478 -1.37243,-0.0955 -20.84508,-4.85612 -43.27255,-10.57923 z"
     id="path26266"
     inkscape:connector-curvature="0" />
  <path
     style="fill:#ff0000;fill-opacity:1;stroke:none"
     d="m 498.02024,191.69963 c -22.75728,-5.93708 -41.58005,-10.9883 -41.82837,-11.22492 -0.24832,-0.23662 2.31538,-19.4763 5.69711,-42.75484 3.38172,-23.27854 6.14846,-42.974111 6.1483,-43.767931 -1.9e-4,-0.943 1.8271,-1.35874 5.27139,-1.19933 2.89942,0.13419 4.97382,0.73377 4.60978,1.33241 -0.36404,0.59863 0.50264,0.78388 1.92596,0.41168 1.42332,-0.37221 2.31255,-0.23129 1.97607,0.31315 -0.8164,1.32096 6.16062,2.80068 7.9605,1.68829 0.94703,-0.5853 1.09278,-0.35425 0.44138,0.69973 -0.72451,1.17228 -0.31258,1.40098 1.61535,0.89682 1.42332,-0.37221 2.31255,-0.23129 1.97607,0.31315 -0.8164,1.32096 6.16062,2.800681 7.9605,1.688291 0.94703,-0.585301 1.09278,-0.354251 0.44138,0.69973 -0.72451,1.17228 -0.31258,1.40098 1.61535,0.89682 1.42332,-0.37221 2.31255,-0.23129 1.97607,0.31315 -0.81641,1.32096 6.16062,2.80068 7.9605,1.68829 0.94703,-0.5853 1.09278,-0.35425 0.44138,0.69973 -0.72451,1.17228 -0.31258,1.40098 1.61535,0.89682 1.42332,-0.37221 2.31255,-0.23129 1.97607,0.31315 -0.81641,1.32096 6.16062,2.80068 7.9605,1.68829 0.94703,-0.5853 1.09278,-0.35425 0.44138,0.69973 -0.72451,1.17228 -0.31258,1.40098 1.61535,0.89682 1.64125,-0.4292 2.3027,-0.21535 1.80828,0.58463 -0.50022,0.80937 0.34572,1.04626 2.36071,0.66107 1.94532,-0.37187 2.85454,-0.13796 2.38937,0.61469 -0.46024,0.74468 0.25084,0.95304 1.83695,0.53827 1.65827,-0.43365 2.30449,-0.21825 1.79899,0.59966 -0.50549,0.81791 0.14072,1.03331 1.799,0.59967 1.64125,-0.4292 2.3027,-0.21535 1.80828,0.58463 -0.50022,0.80937 0.34572,1.04626 2.36071,0.66107 1.94532,-0.37187 2.85454,-0.13796 2.38937,0.61469 -0.46024,0.74468 0.25084,0.95304 1.83695,0.53827 1.42332,-0.37221 2.28541,-0.18738 1.91575,0.41074 -0.36965,0.59811 -0.13321,1.08748 0.52544,1.08748 0.7152,0 1.10601,3.81194 0.97028,9.46409 -0.12499,5.20525 -0.54632,9.27412 -0.93627,9.04193 -1.0258,-0.6108 -3.91832,30.21556 -3.04802,32.48353 0.46117,1.20178 0.24691,1.60623 -0.58013,1.09509 -0.90204,-0.55749 -1.17852,1.07245 -0.88576,5.2219 0.23408,3.31781 0.0896,5.82393 -0.3211,5.56915 -0.41068,-0.25477 -1.1139,3.97865 -1.5627,9.4076 -0.96584,11.68324 -1.5691,14.10931 -3.46824,13.94798 -0.78009,-0.0663 -20.03794,-4.97809 -42.79523,-10.91517 z"
     id="path26270"
     inkscape:connector-curvature="0" />
  <path
     style="fill:#ff0000;fill-opacity:1;stroke:none"
     d="m 492.62326,283.81542 c -22.42747,-5.42632 -42.26139,-10.24823 -44.07538,-10.71536 -4.11315,-1.05921 -4.109,-0.73141 -0.38962,-30.78688 1.59178,-12.86282 3.85161,-31.61734 5.02186,-41.67672 1.17024,-10.05938 2.62668,-18.28978 3.23654,-18.28978 0.60985,0 19.87116,4.85729 42.80291,10.79397 22.93176,5.93668 41.97316,10.79397 42.31423,10.79397 0.34107,0 0.80939,2.37713 1.04072,5.28251 0.23133,2.90538 -0.0353,5.00072 -0.59253,4.65631 -0.55723,-0.34441 -0.82708,2.62544 -0.59967,6.59968 0.22741,3.97423 0.0951,7.0276 -0.29396,6.78525 -1.01556,-0.63255 -3.94408,37.32813 -3.05788,39.63753 0.40673,1.05991 0.26469,1.63367 -0.31565,1.275 -0.58033,-0.35867 -1.44268,5.28013 -1.91633,12.53067 -0.47366,7.25054 -1.20698,13.13714 -1.62961,13.08134 -0.42262,-0.0558 -19.11816,-4.54117 -41.54563,-9.96749 z"
     id="path26272"
     inkscape:connector-curvature="0" />
  <path
     style="fill:#5892d4;fill-opacity:1;fill-rule:nonzero;stroke:none"
     d="m 659.33013,320.61621 c -19.78895,-3.64566 -36.17987,-6.80924 -36.42428,-7.03017 -0.45513,-0.41143 2.89517,-62.02637 4.13631,-76.07018 0.67117,-7.59459 0.77642,-7.79565 4.0808,-7.79565 1.86552,0 3.08914,0.48979 2.71917,1.08842 -0.36998,0.59863 0.49185,0.78389 1.91518,0.41168 1.65827,-0.43364 2.30448,-0.21824 1.79899,0.59967 -0.50549,0.81791 0.14072,1.03331 1.79899,0.59966 1.65828,-0.43364 2.30449,-0.21824 1.799,0.59967 -0.50549,0.81791 0.14072,1.03331 1.79899,0.59966 1.65828,-0.43364 2.30449,-0.21824 1.799,0.59967 -0.50549,0.81791 0.14072,1.03331 1.79899,0.59966 1.65828,-0.43364 2.30449,-0.21824 1.799,0.59967 -0.50549,0.81791 0.14072,1.03331 1.79899,0.59966 1.42333,-0.3722 2.32707,-0.25476 2.00832,0.26098 -0.82938,1.34196 9.68684,4.07662 11.46076,2.98028 1.01378,-0.62656 1.17331,-0.41908 0.50687,0.65924 -0.72451,1.17229 -0.31258,1.40099 1.61534,0.89682 1.65828,-0.43364 2.30449,-0.21824 1.799,0.59967 -0.5055,0.81791 0.14072,1.03331 1.79899,0.59966 1.65828,-0.43364 2.30449,-0.21824 1.799,0.59967 -0.5055,0.81791 0.14072,1.03331 1.79899,0.59966 1.65828,-0.43364 2.30449,-0.21824 1.799,0.59967 -0.5055,0.81791 0.14072,1.03331 1.79899,0.59966 1.42333,-0.3722 2.32707,-0.25476 2.00832,0.26098 -0.82938,1.34196 9.68684,4.07662 11.46076,2.98028 1.01378,-0.62656 1.17331,-0.41908 0.50687,0.65924 -0.72451,1.17229 -0.31258,1.40099 1.61534,0.89682 1.65828,-0.43364 2.30449,-0.21824 1.799,0.59967 -0.50272,0.81341 0.12693,1.03692 1.73585,0.61618 l 2.52471,-0.66023 0.0906,38.84986 c 0.0717,30.77603 -0.22704,38.82691 -1.43767,38.7394 -0.84052,-0.0607 -17.71918,-3.09327 -37.50812,-6.73893 z"
     id="path26280"
     inkscape:connector-curvature="0" />
  <path
     style="fill:#5892d4;fill-opacity:1;fill-rule:nonzero;stroke:none"
     d="m 731.28993,332.21786 c -17.15042,-2.50565 -31.31751,-4.59995 -31.48242,-4.65399 -0.1649,-0.054 -0.29983,-17.13513 -0.29983,-37.95798 0,-35.5037 0.13061,-37.81946 2.09883,-37.21296 1.15435,0.35572 16.13099,3.6851 33.28141,7.39864 17.15041,3.71353 31.24484,6.83198 31.32095,6.92987 0.19883,0.25577 2.89415,63.0952 2.87552,67.04065 -0.0196,4.15211 1.66704,4.22103 -37.79446,-1.54423 z"
     id="path26286"
     inkscape:connector-curvature="0" />
  <path
     style="fill:#5892d4;fill-opacity:1;fill-rule:nonzero;stroke:none"
     d="m 739.68524,405.28398 c -10.55411,-0.5395 -21.06169,-1.13391 -23.35018,-1.32091 l -4.16089,-0.34001 -6.19946,-37.17923 c -3.4097,-20.44857 -6.12473,-37.22788 -6.03341,-37.28734 0.40116,-0.26121 68.5753,9.42652 68.98816,9.8034 0.25317,0.23111 1.71003,12.98592 3.23745,28.34403 1.52743,15.35811 3.0929,30.4874 3.47883,33.62065 l 0.70168,5.69682 -8.73645,-0.17826 c -4.80505,-0.098 -17.37163,-0.61966 -27.92573,-1.15915 z"
     id="path26288"
     inkscape:connector-curvature="0" />
  <path
     style="fill:#5892d4;fill-opacity:1;fill-rule:nonzero;stroke:none"
     d="m 800.06611,270.65571 -31.96753,-4.91854 -0.68625,-8.41384 c -0.37744,-4.62761 -1.03973,-21.23168 -1.47175,-36.89792 -0.75447,-27.35874 -0.69634,-28.48529 1.4712,-28.51454 1.24119,-0.0167 17.84058,1.71751 36.88754,3.8539 l 34.63084,3.88435 -0.81841,34.22482 c -0.92283,38.59144 -1.26678,42.09221 -4.11275,41.8604 -1.08095,-0.088 -16.35074,-2.37343 -33.93289,-5.07863 l 0,0 z"
     id="path26292"
     inkscape:connector-curvature="0" />
  <path
     style="fill:#5892d4;fill-opacity:1;fill-rule:nonzero;stroke:none"
     d="m 802.05039,342.61821 -31.18258,-4.9583 -0.74001,-13.79229 c -0.40701,-7.58576 -1.13081,-23.37195 -1.60844,-35.0804 -0.83256,-20.40921 -0.77447,-21.28811 1.40696,-21.28811 1.25145,0 16.51683,2.15879 33.92307,4.79732 17.40624,2.63852 31.8129,4.79732 32.01481,4.79732 0.2019,0 0.3671,15.9211 0.3671,35.38023 0,27.57869 -0.33057,35.34962 -1.49916,35.24138 -0.82454,-0.0764 -15.53133,-2.37009 -32.68175,-5.09715 l 0,0 z"
     id="path26294"
     inkscape:connector-curvature="0" />
  <path
     style="fill:#5892d4;fill-opacity:1;fill-rule:nonzero;stroke:none"
     d="m 805.13112,411.5244 c -16.97291,-2.78141 -27.08587,-4.95866 -27.39928,-5.89888 -0.27322,-0.81966 -1.95635,-16.04246 -3.74029,-33.82845 -2.67701,-26.68996 -2.95509,-32.33816 -1.59209,-32.33816 1.49348,0 50.59933,7.39045 59.88826,9.01321 4.90139,0.85626 4.83754,0.4371 5.79749,38.06049 l 0.75736,29.68342 -3.40446,-0.14152 c -1.87246,-0.0778 -15.5106,-2.12538 -30.30699,-4.55011 z"
     id="path26296"
     inkscape:connector-curvature="0" />
  <path
     style="fill:#5892d4;fill-opacity:1;fill-rule:nonzero;stroke:none"
     d="m 867.89644,421.25807 -27.70169,-4.2393 -0.77901,-22.28915 c -0.42845,-12.25902 -0.78053,-27.45602 -0.78239,-33.7711 l -0.003,-11.48195 31.09765,6.08497 c 17.10372,3.34673 31.42142,6.41549 31.81712,6.81945 0.39571,0.40397 0.34838,14.8409 -0.10517,32.08208 -0.81049,30.81032 -0.86762,31.34491 -3.33303,31.19095 -1.37962,-0.0862 -14.97416,-2.06434 -30.21009,-4.39595 l 0,0 z"
     id="path26298"
     inkscape:connector-curvature="0" />
  <path
     style="fill:#5892d4;fill-opacity:1;fill-rule:nonzero;stroke:none"
     d="m 866.81421,353.77817 c -15.83115,-3.18637 -28.91884,-5.82277 -29.08375,-5.85867 -0.16491,-0.0359 -0.29983,-15.71654 -0.29983,-34.84585 0,-34.69781 0.006,-34.78057 2.55673,-34.78057 3.81742,0 66.29054,12.1146 67.1191,13.01554 0.39289,0.42721 -0.52497,15.61846 -2.0397,33.75833 -1.51474,18.13986 -2.78067,33.38635 -2.81319,33.88107 -0.10554,1.60559 -6.17607,0.72002 -35.43936,-5.16985 z"
     id="path26300"
     inkscape:connector-curvature="0" />
  <path
     style="fill:#5892d4;fill-opacity:1;fill-rule:nonzero;stroke:none"
     d="m 934.61258,368.05094 c -16.37661,-3.82116 -30.05999,-7.2319 -30.40752,-7.57943 -0.5724,-0.57239 4.31349,-68.10258 4.98293,-68.87143 0.15636,-0.17957 15.74364,3.31397 34.63841,7.76344 33.89235,7.98121 34.35316,8.13068 34.28304,11.12048 -0.14506,6.18508 -11.45827,64.03654 -12.5686,64.27105 -0.63394,0.1339 -14.55166,-2.88296 -30.92826,-6.70411 z"
     id="path26304"
     inkscape:connector-curvature="0" />
  <path
     style="fill:#5892d4;fill-opacity:1;fill-rule:nonzero;stroke:none"
     d="m 928.43428,432.44248 -26.35929,-6.19093 0.30189,-24.58627 c 0.16604,-13.52244 0.62143,-27.95402 1.01198,-32.07018 0.67364,-7.09982 0.85326,-7.44798 3.49987,-6.78372 1.53438,0.3851 15.26124,3.55484 30.50414,7.04386 15.24289,3.48902 27.97735,6.60667 28.29879,6.92811 0.32144,0.32144 -1.20512,14.27738 -3.39236,31.01319 -3.11518,23.83603 -4.35909,30.47297 -5.74126,30.63282 -0.97045,0.11223 -13.62614,-2.58186 -28.12376,-5.98688 l 0,0 z"
     id="path26306"
     inkscape:connector-curvature="0" />
  <path
     style="fill:#5892d4;fill-opacity:1;fill-rule:nonzero;stroke:none"
     d="m 870.62048,282.51536 c -17.27142,-3.39903 -31.72203,-6.50856 -32.11246,-6.91005 -0.65618,-0.67478 1.63081,-74.39716 2.33209,-75.17585 0.4306,-0.47814 74.81764,13.58297 75.5076,14.27292 0.30437,0.30437 -1.43263,17.12971 -3.86001,37.38964 l -4.41341,36.83624 -3.02561,-0.11642 c -1.66409,-0.064 -17.15678,-2.89745 -34.4282,-6.29648 l 0,0 z"
     id="path26308"
     inkscape:connector-curvature="0" />
  <path
     style="fill:#5892d4;fill-opacity:1;fill-rule:nonzero;stroke:none"
     d="m 944.75507,298.33484 c -18.71381,-4.45255 -34.34317,-8.4136 -34.7319,-8.80233 -0.62475,-0.62475 7.71483,-73.68713 8.50057,-74.47287 0.3489,-0.3489 76.61285,16.06646 77.15314,16.60675 0.33403,0.33403 -15.53347,71.40511 -16.4417,73.64291 -0.25025,0.6166 -15.7663,-2.52191 -34.48011,-6.97446 z"
     id="path26310"
     inkscape:connector-curvature="0" />
  <path
     style="fill:#5892d4;fill-opacity:1;fill-rule:nonzero;stroke:none"
     d="m 997.3698,384.29233 c -20.7303,-6.15283 -29.316,-9.20552 -29.15409,-10.3659 0.61505,-4.40791 11.3451,-63.00098 11.76977,-64.27055 0.33633,-1.00549 10.25288,1.89129 31.85542,9.30547 17.2518,5.92101 31.7781,11.01956 32.2806,11.33012 0.7383,0.45627 -15.8861,61.36622 -17.036,62.41816 -0.1826,0.16712 -13.5547,-3.62066 -29.7157,-8.4173 z"
     id="path26312"
     inkscape:connector-curvature="0" />
  <path
     style="fill:#5892d4;fill-opacity:1;fill-rule:nonzero;stroke:none"
     d="m 985.67633,447.56314 c -24.70214,-7.63346 -25.48576,-7.97234 -25.48576,-11.02141 0,-3.11433 7.14404,-59.29281 7.57296,-59.55134 0.19134,-0.11533 16.56707,4.70382 50.70317,14.92124 l 8.5039,2.54535 -7.2525,30.58907 c -3.9889,16.824 -7.5459,30.5449 -7.9043,30.49089 -0.3584,-0.054 -12.1203,-3.64222 -26.13747,-7.9738 z"
     id="path26314"
     inkscape:connector-curvature="0" />
  <path
     style="fill:#5892d4;fill-opacity:1;fill-rule:nonzero;stroke:none"
     d="m 878.64684,205.91113 c -20.7725,-3.91109 -37.8474,-7.20585 -37.94423,-7.32168 -0.19489,-0.23314 10.51172,-79.25012 10.78035,-79.5612 0.23808,-0.2757 77.82136,13.88108 78.19383,14.26818 0.41785,0.43426 -12.24873,78.88011 -12.81272,79.35091 -0.24697,0.20618 -17.44473,-2.82512 -38.21723,-6.73621 z"
     id="path26316"
     inkscape:connector-curvature="0" />
  <path
     style="fill:#5892d4;fill-opacity:1;fill-rule:nonzero;stroke:none"
     d="m 956.18261,221.72228 c -20.34424,-4.49476 -37.14701,-8.34761 -37.33949,-8.56188 -0.23877,-0.26582 11.73921,-76.4903 12.52475,-79.70399 0.0213,-0.0873 9.88828,1.88242 21.92655,4.37703 12.03828,2.49462 30.29565,6.26929 40.57195,8.38816 l 18.68423,3.8525 -7.9461,39.73799 c -5.95386,29.77528 -8.38304,39.78118 -9.68918,39.91024 -0.95875,0.0947 -18.38847,-3.50528 -38.73271,-8.00005 z"
     id="path26318"
     inkscape:connector-curvature="0" />
  <path
     style="fill:#ff0000;fill-opacity:1;fill-rule:nonzero;stroke:none"
     d="m 576.79476,303.51456 c -21.88327,-5.05412 -40.02948,-9.45916 -40.32492,-9.78898 -0.65896,-0.73563 6.98653,-87.38417 7.78045,-88.17809 0.48074,-0.48073 38.10703,10.14484 72.3417,20.42912 l 9.6041,2.88512 -2.57453,41.72674 c -1.416,22.9497 -2.63458,41.86165 -2.70796,42.02656 -0.36864,0.82845 -7.47954,-0.63832 -44.11884,-9.10047 z"
     id="path26320"
     inkscape:connector-curvature="0" />
</svg>
