<?xml version="1.0" encoding="UTF-8" standalone="no"?>
<svg
   xmlns:dc="http://purl.org/dc/elements/1.1/"
   xmlns:cc="http://creativecommons.org/ns#"
   xmlns:rdf="http://www.w3.org/1999/02/22-rdf-syntax-ns#"
   xmlns:svg="http://www.w3.org/2000/svg"
   xmlns="http://www.w3.org/2000/svg"
   xmlns:sodipodi="http://sodipodi.sourceforge.net/DTD/sodipodi-0.dtd"
   xmlns:inkscape="http://www.inkscape.org/namespaces/inkscape"
   width="681.67798"
   height="428.94901"
   viewBox="0 0 681.67798 428.949"
   id="svg3720"
   version="1.1"
   inkscape:version="0.48.3.1 r9886"
   sodipodi:docname="compatible-blobs.svg">
  <metadata
     id="metadata4434">
    <rdf:RDF>
      <cc:Work
         rdf:about="">
        <dc:format>image/svg+xml</dc:format>
        <dc:type
           rdf:resource="http://purl.org/dc/dcmitype/StillImage" />
        <dc:title>compatible-blobs</dc:title>
      </cc:Work>
    </rdf:RDF>
  </metadata>
  <sodipodi:namedview
     pagecolor="#ffffff"
     bordercolor="#666666"
     borderopacity="1"
     objecttolerance="10"
     gridtolerance="10"
     guidetolerance="10"
     inkscape:pageopacity="0"
     inkscape:pageshadow="2"
     inkscape:window-width="1301"
     inkscape:window-height="744"
     id="namedview4432"
     showgrid="false"
     fit-margin-top="-140"
     fit-margin-left="-80"
     fit-margin-right="-10"
     fit-margin-bottom="-60"
     showborder="true"
     inkscape:zoom="0.83379888"
     inkscape:cx="476.88124"
     inkscape:cy="232.49231"
     inkscape:window-x="65"
     inkscape:window-y="24"
     inkscape:window-maximized="1"
     inkscape:current-layer="g3728"
     inkscape:showpageshadow="false" />
  <title
     id="title3722">compatible-blobs</title>
  <desc
     id="desc3724">
Creator: GL2PS 1.3.6, (C) 1999-2011 C. Geuzaine
For: Gmsh
CreationDate: Mon Jun  2 20:08:27 2014
</desc>
  <defs
     id="defs3726" />
  <g
     shape-rendering="crispEdges"
     id="g3728"
     transform="translate(-609.822,-139.5)">
    <polyline
       points="1297.21,553.245 1301,569.338"
       id="polyline3734"
       style="fill:none;stroke:#3e3e3e;stroke-width:1" />
    <polyline
       points="1301,552.486 1297.21,553.245 1284.23,499.898 1301,496.831"
       id="polyline3736"
       style="fill:none;stroke:#3e3e3e;stroke-width:1" />
    <polyline
       points="1270.14,442.916 1301,438.337"
       id="polyline3742"
       style="fill:none;stroke:#3e3e3e;stroke-width:1" />
    <polyline
       points="1295.1,197.821 1301,231.706"
       id="polyline3746"
       style="fill:none;stroke:#3e3e3e;stroke-width:1" />
    <polyline
       points="1295.1,197.821 1301,193.668"
       id="polyline3748"
       style="fill:none;stroke:#3e3e3e;stroke-width:1" />
    <polyline
       points="1247.19,568.567 1297.21,553.245"
       id="polyline3750"
       style="fill:none;stroke:#3e3e3e;stroke-width:1" />
    <polyline
       points="1270.14,442.916 1284.23,499.898"
       id="polyline3752"
       style="fill:none;stroke:#3e3e3e;stroke-width:1" />
    <polyline
       points="1294.62,108.121 1301,115.583"
       id="polyline3754"
       style="fill:none;stroke:#3e3e3e;stroke-width:1" />
    <polyline
       points="1301,102.874 1294.62,108.121"
       id="polyline3756"
       style="fill:none;stroke:#3e3e3e;stroke-width:1" />
    <polyline
       points="1256.65,383.396 1301,376.346"
       id="polyline3760"
       style="fill:none;stroke:#3e3e3e;stroke-width:1" />
    <polyline
       points="1264.63,619.071 1247.19,568.567"
       id="polyline3762"
       style="fill:none;stroke:#3e3e3e;stroke-width:1" />
    <polyline
       points="1301,310.255 1243.21,319.971"
       id="polyline3764"
       style="fill:none;stroke:#3e3e3e;stroke-width:1" />
    <polyline
       points="1284.23,499.898 1230.66,515.384"
       id="polyline3766"
       style="fill:none;stroke:#3e3e3e;stroke-width:1" />
    <polyline
       points="1270.14,442.916 1256.65,383.396"
       id="polyline3768"
       style="fill:none;stroke:#3e3e3e;stroke-width:1" />
    <polyline
       points="1234.17,256.3 1301,246.006"
       id="polyline3770"
       style="fill:none;stroke:#3e3e3e;stroke-width:1" />
    <polyline
       points="1230.66,515.384 1247.19,568.567"
       id="polyline3778"
       style="fill:none;stroke:#3e3e3e;stroke-width:1" />
    <polyline
       points="1228.6,179.223 1295.1,197.821"
       id="polyline3780"
       style="fill:none;stroke:#3e3e3e;stroke-width:1" />
    <polyline
       points="1243.21,319.971 1256.65,383.396"
       id="polyline3782"
       style="fill:none;stroke:#3e3e3e;stroke-width:1" />
    <polyline
       points="1294.62,108.121 1239.35,39.9156"
       id="polyline3784"
       style="fill:none;stroke:#3e3e3e;stroke-width:1" />
    <polyline
       points="1301,1.82269 1239.35,39.9156"
       id="polyline3786"
       style="fill:none;stroke:#3e3e3e;stroke-width:1" />
    <polyline
       points="1211.68,459.082 1270.14,442.916"
       id="polyline3788"
       style="fill:none;stroke:#3e3e3e;stroke-width:1" />
    <polyline
       points="1228.6,179.223 1294.62,108.121"
       id="polyline3790"
       style="fill:none;stroke:#3e3e3e;stroke-width:1" />
    <polyline
       points="1247.19,568.567 1199.36,586.222"
       id="polyline3796"
       style="fill:none;stroke:#3e3e3e;stroke-width:1" />
    <polyline
       points="1243.21,319.971 1234.17,256.3"
       id="polyline3798"
       style="fill:none;stroke:#3e3e3e;stroke-width:1" />
    <polyline
       points="1230.66,515.384 1211.68,459.082"
       id="polyline3802"
       style="fill:none;stroke:#3e3e3e;stroke-width:1" />
    <polyline
       points="1256.65,383.396 1190.48,399.127"
       id="polyline3806"
       style="fill:none;stroke:#3e3e3e;stroke-width:1" />
    <polyline
       points="1234.17,256.3 1228.6,179.223"
       id="polyline3810"
       style="fill:none;stroke:#3e3e3e;stroke-width:1" />
    <polyline
       points="1180.39,535.597 1230.66,515.384"
       id="polyline3812"
       style="fill:none;stroke:#3e3e3e;stroke-width:1" />
    <polyline
       points="1190.48,399.127 1211.68,459.082"
       id="polyline3816"
       style="fill:none;stroke:#3e3e3e;stroke-width:1" />
    <polyline
       points="1243.21,319.971 1172.01,333.136"
       id="polyline3818"
       style="fill:none;stroke:#3e3e3e;stroke-width:1" />
    <polyline
       points="1216.27,0 1239.35,39.9156"
       id="polyline3820"
       style="fill:none;stroke:#3e3e3e;stroke-width:1" />
    <polyline
       points="1199.36,586.222 1180.39,535.597"
       id="polyline3822"
       style="fill:none;stroke:#3e3e3e;stroke-width:1" />
    <polyline
       points="1165.07,264.487 1234.17,256.3"
       id="polyline3830"
       style="fill:none;stroke:#3e3e3e;stroke-width:1" />
    <polyline
       points="1211.68,459.082 1156.72,482.419"
       id="polyline3832"
       style="fill:none;stroke:#3e3e3e;stroke-width:1" />
    <polyline
       points="1228.6,179.223 1163.22,210.971"
       id="polyline3836"
       style="fill:none;stroke:#3e3e3e;stroke-width:1" />
    <polyline
       points="1190.48,399.127 1172.01,333.136"
       id="polyline3840"
       style="fill:none;stroke:#3e3e3e;stroke-width:1" />
    <polyline
       points="1156.72,482.419 1180.39,535.597"
       id="polyline3842"
       style="fill:none;stroke:#3e3e3e;stroke-width:1" />
    <polyline
       points="1239.35,39.9156 1145.19,105.146"
       id="polyline3846"
       style="fill:none;stroke:#3e3e3e;stroke-width:1" />
    <polyline
       points="1180.39,535.597 1138.53,565.989"
       id="polyline3848"
       style="fill:none;stroke:#3e3e3e;stroke-width:1" />
    <polyline
       points="1145.19,105.146 1228.6,179.223"
       id="polyline3850"
       style="fill:none;stroke:#3e3e3e;stroke-width:1" />
    <polyline
       points="1138.53,565.989 1164.18,598.291"
       id="polyline3852"
       style="fill:none;stroke:#3e3e3e;stroke-width:1" />
    <polyline
       points="1172.01,333.136 1165.07,264.487"
       id="polyline3854"
       style="fill:none;stroke:#3e3e3e;stroke-width:1" />
    <polyline
       points="1130.53,425.45 1190.48,399.127"
       id="polyline3856"
       style="fill:none;stroke:#3e3e3e;stroke-width:1" />
    <polyline
       points="1163.22,210.971 1165.07,264.487"
       id="polyline3858"
       style="fill:none;stroke:#3e3e3e;stroke-width:1" />
    <polyline
       points="1156.72,482.419 1130.53,425.45"
       id="polyline3860"
       style="fill:none;stroke:#3e3e3e;stroke-width:1" />
    <polyline
       points="1138.53,565.989 1106.28,608.088"
       id="polyline3866"
       style="fill:none;stroke:#3e3e3e;stroke-width:1" />
    <polyline
       points="1094.91,512.405 1156.72,482.419"
       id="polyline3870"
       style="fill:none;stroke:#3e3e3e;stroke-width:1" />
    <polyline
       points="1138.53,565.989 1094.91,512.405"
       id="polyline3872"
       style="fill:none;stroke:#3e3e3e;stroke-width:1" />
    <polyline
       points="1172.01,333.136 1086.25,355.446"
       id="polyline3874"
       style="fill:none;stroke:#3e3e3e;stroke-width:1" />
    <polyline
       points="1110.42,192.378 1163.22,210.971"
       id="polyline3876"
       style="fill:none;stroke:#3e3e3e;stroke-width:1" />
    <polyline
       points="1090.76,263.786 1165.07,264.487"
       id="polyline3878"
       style="fill:none;stroke:#3e3e3e;stroke-width:1" />
    <polyline
       points="1130.53,425.45 1089.5,450.803"
       id="polyline3880"
       style="fill:none;stroke:#3e3e3e;stroke-width:1" />
    <polyline
       points="1110.42,192.378 1145.19,105.146"
       id="polyline3884"
       style="fill:none;stroke:#3e3e3e;stroke-width:1" />
    <polyline
       points="1086.25,355.446 1130.53,425.45"
       id="polyline3886"
       style="fill:none;stroke:#3e3e3e;stroke-width:1" />
    <polyline
       points="1145.19,105.146 1099.11,5.03015"
       id="polyline3892"
       style="fill:none;stroke:#3e3e3e;stroke-width:1" />
    <polyline
       points="1094.91,512.405 1089.5,450.803"
       id="polyline3896"
       style="fill:none;stroke:#3e3e3e;stroke-width:1" />
    <polyline
       points="1094.91,512.405 1063.62,577.347"
       id="polyline3898"
       style="fill:none;stroke:#3e3e3e;stroke-width:1" />
    <polyline
       points="1090.76,263.786 1110.42,192.378"
       id="polyline3900"
       style="fill:none;stroke:#3e3e3e;stroke-width:1" />
    <polyline
       points="1145.19,105.146 1059.3,111.933"
       id="polyline3902"
       style="fill:none;stroke:#3e3e3e;stroke-width:1" />
    <polyline
       points="1090.76,263.786 1086.25,355.446"
       id="polyline3904"
       style="fill:none;stroke:#3e3e3e;stroke-width:1" />
    <polyline
       points="1099.11,5.03015 1108.43,0"
       id="polyline3906"
       style="fill:none;stroke:#3e3e3e;stroke-width:1" />
    <polyline
       points="1096.12,0 1099.11,5.03015"
       id="polyline3912"
       style="fill:none;stroke:#3e3e3e;stroke-width:1" />
    <polyline
       points="1089.5,450.803 1045.33,429.57"
       id="polyline3914"
       style="fill:none;stroke:#3e3e3e;stroke-width:1" />
    <polyline
       points="1027.21,493.438 1094.91,512.405"
       id="polyline3920"
       style="fill:none;stroke:#3e3e3e;stroke-width:1" />
    <polyline
       points="1045.33,429.57 1086.25,355.446"
       id="polyline3922"
       style="fill:none;stroke:#3e3e3e;stroke-width:1" />
    <polyline
       points="1034.52,169.919 1110.42,192.378"
       id="polyline3924"
       style="fill:none;stroke:#3e3e3e;stroke-width:1" />
    <polyline
       points="1063.62,577.347 1012.38,555.926"
       id="polyline3926"
       style="fill:none;stroke:#3e3e3e;stroke-width:1" />
    <polyline
       points="1012.71,249.026 1090.76,263.786"
       id="polyline3928"
       style="fill:none;stroke:#3e3e3e;stroke-width:1" />
    <polyline
       points="1045.33,429.57 1027.21,493.438"
       id="polyline3932"
       style="fill:none;stroke:#3e3e3e;stroke-width:1" />
    <polyline
       points="1086.25,355.446 996.368,330.536"
       id="polyline3934"
       style="fill:none;stroke:#3e3e3e;stroke-width:1" />
    <polyline
       points="1099.11,5.03015 1016.98,57.7802"
       id="polyline3938"
       style="fill:none;stroke:#3e3e3e;stroke-width:1" />
    <polyline
       points="1059.3,111.933 1034.52,169.919"
       id="polyline3942"
       style="fill:none;stroke:#3e3e3e;stroke-width:1" />
    <polyline
       points="1027.21,493.438 1012.38,555.926"
       id="polyline3944"
       style="fill:none;stroke:#3e3e3e;stroke-width:1" />
    <polyline
       points="1016.98,57.7802 1059.3,111.933"
       id="polyline3950"
       style="fill:none;stroke:#3e3e3e;stroke-width:1" />
    <polyline
       points="992.49,627.949 1012.38,555.926"
       id="polyline3952"
       style="fill:none;stroke:#3e3e3e;stroke-width:1" />
    <polyline
       points="979.198,406.73 1045.33,429.57"
       id="polyline3954"
       style="fill:none;stroke:#3e3e3e;stroke-width:1" />
    <polyline
       points="1012.71,249.026 1034.52,169.919"
       id="polyline3958"
       style="fill:none;stroke:#3e3e3e;stroke-width:1" />
    <polyline
       points="966.54,475.488 1027.21,493.438"
       id="polyline3962"
       style="fill:none;stroke:#3e3e3e;stroke-width:1" />
    <polyline
       points="996.368,330.536 1012.71,249.026"
       id="polyline3964"
       style="fill:none;stroke:#3e3e3e;stroke-width:1" />
    <polyline
       points="1012.38,555.926 958.249,539.389"
       id="polyline3966"
       style="fill:none;stroke:#3e3e3e;stroke-width:1" />
    <polyline
       points="996.368,330.536 979.198,406.73"
       id="polyline3970"
       style="fill:none;stroke:#3e3e3e;stroke-width:1" />
    <polyline
       points="979.198,406.73 966.54,475.488"
       id="polyline3974"
       style="fill:none;stroke:#3e3e3e;stroke-width:1" />
    <polyline
       points="1034.52,169.919 941.015,133.318"
       id="polyline3978"
       style="fill:none;stroke:#3e3e3e;stroke-width:1" />
    <polyline
       points="958.249,539.389 966.54,475.488"
       id="polyline3980"
       style="fill:none;stroke:#3e3e3e;stroke-width:1" />
    <polyline
       points="1016.98,57.7802 971.487,0"
       id="polyline3982"
       style="fill:none;stroke:#3e3e3e;stroke-width:1" />
    <polyline
       points="951.801,582.738 958.249,539.389"
       id="polyline3986"
       style="fill:none;stroke:#3e3e3e;stroke-width:1" />
    <polyline
       points="930.25,232.104 1012.71,249.026"
       id="polyline3988"
       style="fill:none;stroke:#3e3e3e;stroke-width:1" />
    <polyline
       points="941.015,133.318 1016.98,57.7802"
       id="polyline3990"
       style="fill:none;stroke:#3e3e3e;stroke-width:1" />
    <polyline
       points="917.239,313.358 996.368,330.536"
       id="polyline3994"
       style="fill:none;stroke:#3e3e3e;stroke-width:1" />
    <polyline
       points="907.957,389.836 979.198,406.73"
       id="polyline3998"
       style="fill:none;stroke:#3e3e3e;stroke-width:1" />
    <polyline
       points="902.35,460.798 966.54,475.488"
       id="polyline4002"
       style="fill:none;stroke:#3e3e3e;stroke-width:1" />
    <polyline
       points="958.249,539.389 900.716,526.228"
       id="polyline4004"
       style="fill:none;stroke:#3e3e3e;stroke-width:1" />
    <polyline
       points="941.015,133.318 930.25,232.104"
       id="polyline4010"
       style="fill:none;stroke:#3e3e3e;stroke-width:1" />
    <polyline
       points="900.716,526.228 909.409,586.639"
       id="polyline4014"
       style="fill:none;stroke:#3e3e3e;stroke-width:1" />
    <polyline
       points="930.25,232.104 917.239,313.358 907.957,389.836"
       id="polyline4016"
       style="fill:none;stroke:#3e3e3e;stroke-width:1" />
    <polyline
       points="900.716,526.228 902.35,460.798 907.957,389.836"
       id="polyline4018"
       style="fill:none;stroke:#3e3e3e;stroke-width:1" />
    <polyline
       points="941.015,133.318 875.218,45.7187"
       id="polyline4022"
       style="fill:none;stroke:#3e3e3e;stroke-width:1" />
    <polyline
       points="862.648,155.707 941.015,133.318"
       id="polyline4026"
       style="fill:none;stroke:#3e3e3e;stroke-width:1" />
    <polyline
       points="850.381,217.552 930.25,232.104"
       id="polyline4028"
       style="fill:none;stroke:#3e3e3e;stroke-width:1" />
    <polyline
       points="900.716,526.228 839.062,516.992"
       id="polyline4030"
       style="fill:none;stroke:#3e3e3e;stroke-width:1" />
    <polyline
       points="929.108,0 875.218,45.7187"
       id="polyline4032"
       style="fill:none;stroke:#3e3e3e;stroke-width:1" />
    <polyline
       points="902.35,460.798 836.834,448.124"
       id="polyline4034"
       style="fill:none;stroke:#3e3e3e;stroke-width:1" />
    <polyline
       points="839.352,298.694 917.239,313.358"
       id="polyline4036"
       style="fill:none;stroke:#3e3e3e;stroke-width:1" />
    <polyline
       points="907.957,389.836 836.754,376.221"
       id="polyline4040"
       style="fill:none;stroke:#3e3e3e;stroke-width:1" />
    <polyline
       points="839.062,516.992 839.262,588.365"
       id="polyline4044"
       style="fill:none;stroke:#3e3e3e;stroke-width:1" />
    <polyline
       points="839.062,516.992 836.834,448.124"
       id="polyline4046"
       style="fill:none;stroke:#3e3e3e;stroke-width:1" />
    <polyline
       points="850.381,217.552 862.648,155.707"
       id="polyline4048"
       style="fill:none;stroke:#3e3e3e;stroke-width:1" />
    <polyline
       points="836.834,448.124 836.754,376.221"
       id="polyline4050"
       style="fill:none;stroke:#3e3e3e;stroke-width:1" />
    <polyline
       points="839.352,298.694 850.381,217.552"
       id="polyline4052"
       style="fill:none;stroke:#3e3e3e;stroke-width:1" />
    <polyline
       points="836.754,376.221 839.352,298.694"
       id="polyline4054"
       style="fill:none;stroke:#3e3e3e;stroke-width:1" />
    <polyline
       points="875.218,45.7187 825.823,0"
       id="polyline4058"
       style="fill:none;stroke:#3e3e3e;stroke-width:1" />
    <polyline
       points="839.262,588.365 784.088,555.995"
       id="polyline4060"
       style="fill:none;stroke:#3e3e3e;stroke-width:1" />
    <polyline
       points="875.218,45.7187 813.371,113.028 862.648,155.707"
       id="polyline4062"
       style="fill:none;stroke:#3e3e3e;stroke-width:1" />
    <polyline
       points="839.062,516.992 776.39,506.989"
       id="polyline4064"
       style="fill:none;stroke:#3e3e3e;stroke-width:1" />
    <polyline
       points="769.475,437.688 836.834,448.124"
       id="polyline4068"
       style="fill:none;stroke:#3e3e3e;stroke-width:1" />
    <polyline
       points="766.456,365.617 836.754,376.221"
       id="polyline4070"
       style="fill:none;stroke:#3e3e3e;stroke-width:1" />
    <polyline
       points="839.352,298.694 763.883,290.073"
       id="polyline4076"
       style="fill:none;stroke:#3e3e3e;stroke-width:1" />
    <polyline
       points="756.01,192.664 850.381,217.552"
       id="polyline4078"
       style="fill:none;stroke:#3e3e3e;stroke-width:1" />
    <polyline
       points="784.088,555.995 776.39,506.989"
       id="polyline4080"
       style="fill:none;stroke:#3e3e3e;stroke-width:1" />
    <polyline
       points="776.39,506.989 769.475,437.688"
       id="polyline4086"
       style="fill:none;stroke:#3e3e3e;stroke-width:1" />
    <polyline
       points="738.547,581.051 784.088,555.995"
       id="polyline4088"
       style="fill:none;stroke:#3e3e3e;stroke-width:1" />
    <polyline
       points="756.01,192.664 813.371,113.028"
       id="polyline4090"
       style="fill:none;stroke:#3e3e3e;stroke-width:1" />
    <polyline
       points="769.475,437.688 766.456,365.617"
       id="polyline4092"
       style="fill:none;stroke:#3e3e3e;stroke-width:1" />
    <polyline
       points="763.883,290.073 766.456,365.617"
       id="polyline4098"
       style="fill:none;stroke:#3e3e3e;stroke-width:1" />
    <polyline
       points="813.371,113.028 743.119,64.2029"
       id="polyline4100"
       style="fill:none;stroke:#3e3e3e;stroke-width:1" />
    <polyline
       points="711.351,504.091 776.39,506.989"
       id="polyline4104"
       style="fill:none;stroke:#3e3e3e;stroke-width:1" />
    <polyline
       points="763.883,290.073 756.01,192.664"
       id="polyline4106"
       style="fill:none;stroke:#3e3e3e;stroke-width:1" />
    <polyline
       points="769.475,437.688 698.447,427.805"
       id="polyline4110"
       style="fill:none;stroke:#3e3e3e;stroke-width:1" />
    <polyline
       points="711.351,504.091 738.547,581.051"
       id="polyline4112"
       style="fill:none;stroke:#3e3e3e;stroke-width:1" />
    <polyline
       points="743.119,64.2029 770.923,0"
       id="polyline4114"
       style="fill:none;stroke:#3e3e3e;stroke-width:1" />
    <polyline
       points="766.456,365.617 698.476,350.802"
       id="polyline4118"
       style="fill:none;stroke:#3e3e3e;stroke-width:1" />
    <polyline
       points="763.883,290.073 708.151,292.959"
       id="polyline4120"
       style="fill:none;stroke:#3e3e3e;stroke-width:1" />
    <polyline
       points="709.436,124.093 756.01,192.664"
       id="polyline4124"
       style="fill:none;stroke:#3e3e3e;stroke-width:1" />
    <polyline
       points="698.447,427.805 711.351,504.091"
       id="polyline4128"
       style="fill:none;stroke:#3e3e3e;stroke-width:1" />
    <polyline
       points="709.436,124.093 743.119,64.2029"
       id="polyline4132"
       style="fill:none;stroke:#3e3e3e;stroke-width:1" />
    <polyline
       points="698.476,350.802 708.151,292.959"
       id="polyline4134"
       style="fill:none;stroke:#3e3e3e;stroke-width:1" />
    <polyline
       points="698.476,350.802 698.447,427.805"
       id="polyline4136"
       style="fill:none;stroke:#3e3e3e;stroke-width:1" />
    <polyline
       points="652.836,233.893 756.01,192.664"
       id="polyline4138"
       style="fill:none;stroke:#3e3e3e;stroke-width:1" />
    <polyline
       points="667.693,24.3024 743.119,64.2029"
       id="polyline4142"
       style="fill:none;stroke:#3e3e3e;stroke-width:1" />
    <polyline
       points="711.351,504.091 629.176,514.315"
       id="polyline4144"
       style="fill:none;stroke:#3e3e3e;stroke-width:1" />
    <polyline
       points="708.151,292.959 652.836,233.893"
       id="polyline4146"
       style="fill:none;stroke:#3e3e3e;stroke-width:1" />
    <path
       style="font-size:medium;font-style:normal;font-variant:normal;font-weight:normal;font-stretch:normal;text-indent:0;text-align:start;text-decoration:none;line-height:normal;letter-spacing:normal;word-spacing:normal;text-transform:none;direction:ltr;block-progression:tb;writing-mode:lr-tb;text-anchor:start;baseline-shift:baseline;color:#000000;fill:#3e3e3e;fill-opacity:1;stroke:none;stroke-width:1;marker:none;visibility:visible;display:inline;overflow:visible;enable-background:accumulate;font-family:Sans;-inkscape-font-specification:Sans"
       d="m 629.5625,514 -0.78125,0.625 -30.87453,72.7568 0.78125,-0.625 z"
       id="polyline4148"
       inkscape:connector-curvature="0"
       sodipodi:nodetypes="ccccc" />
    <polyline
       points="698.447,427.805 621.261,413.804"
       id="polyline4150"
       style="fill:none;stroke:#3e3e3e;stroke-width:1" />
    <polyline
       points="626.41,327.85 698.476,350.802"
       id="polyline4152"
       style="fill:none;stroke:#3e3e3e;stroke-width:1" />
    <polyline
       points="626.139,114.749 709.436,124.093"
       id="polyline4156"
       style="fill:none;stroke:#3e3e3e;stroke-width:1" />
    <polyline
       points="680.438,0 667.693,24.3024"
       id="polyline4158"
       style="fill:none;stroke:#3e3e3e;stroke-width:1" />
    <polyline
       points="652.836,233.893 626.41,327.85"
       id="polyline4164"
       style="fill:none;stroke:#3e3e3e;stroke-width:1" />
    <polyline
       points="629.176,514.315 621.261,413.804"
       id="polyline4166"
       style="fill:none;stroke:#3e3e3e;stroke-width:1" />
    <polyline
       points="667.693,24.3024 626.139,114.749"
       id="polyline4168"
       style="fill:none;stroke:#3e3e3e;stroke-width:1" />
    <polyline
       points="652.836,233.893 626.139,114.749"
       id="polyline4170"
       style="fill:none;stroke:#3e3e3e;stroke-width:1" />
    <polyline
       points="628.046,0 667.693,24.3024"
       id="polyline4172"
       style="fill:none;stroke:#3e3e3e;stroke-width:1" />
    <polyline
       points="621.261,413.804 626.41,327.85"
       id="polyline4174"
       style="fill:none;stroke:#3e3e3e;stroke-width:1" />
    <polyline
       points="552.306,215.637 652.836,233.893"
       id="polyline4182"
       style="fill:none;stroke:#3e3e3e;stroke-width:1" />
    <polyline
       points="530.322,483.365 629.176,514.315"
       id="polyline4184"
       style="fill:none;stroke:#3e3e3e;stroke-width:1" />
    <polyline
       points="542.751,303.387 626.41,327.85"
       id="polyline4190"
       style="fill:none;stroke:#3e3e3e;stroke-width:1" />
    <polyline
       points="621.261,413.804 534.691,394.076"
       id="polyline4192"
       style="fill:none;stroke:#3e3e3e;stroke-width:1" />
    <polyline
       points="626.139,114.749 556.762,150.561"
       id="polyline4194"
       style="fill:none;stroke:#3e3e3e;stroke-width:1" />
    <polyline
       points="626.139,114.749 543.2,45.9877"
       id="polyline4198"
       style="fill:none;stroke:#3e3e3e;stroke-width:1" />
  </g>
  <path
     style="fill:#5892d4;fill-opacity:1;fill-rule:nonzero;stroke:none"
     d="m 49.00813,280.61621 c -19.78895,-3.64566 -36.17987,-6.80924 -36.42428,-7.03017 -0.45513,-0.41143 2.89517,-62.02637 4.13631,-76.07018 0.67117,-7.59459 0.77642,-7.79565 4.0808,-7.79565 1.86552,0 3.08914,0.48979 2.71917,1.08842 -0.36998,0.59863 0.49185,0.78389 1.91518,0.41168 1.65827,-0.43364 2.30448,-0.21824 1.79899,0.59967 -0.50549,0.81791 0.14072,1.03331 1.79899,0.59966 1.65828,-0.43364 2.30449,-0.21824 1.799,0.59967 -0.50549,0.81791 0.14072,1.03331 1.79899,0.59966 1.65828,-0.43364 2.30449,-0.21824 1.799,0.59967 -0.50549,0.81791 0.14072,1.03331 1.79899,0.59966 1.65828,-0.43364 2.30449,-0.21824 1.799,0.59967 -0.50549,0.81791 0.14072,1.03331 1.79899,0.59966 1.42333,-0.3722 2.32707,-0.25476 2.00832,0.26098 -0.82938,1.34196 9.68684,4.07662 11.46076,2.98028 1.01378,-0.62656 1.17331,-0.41908 0.50687,0.65924 -0.72451,1.17229 -0.31258,1.40099 1.61534,0.89682 1.65828,-0.43364 2.30449,-0.21824 1.799,0.59967 -0.5055,0.81791 0.14072,1.03331 1.79899,0.59966 1.65828,-0.43364 2.30449,-0.21824 1.799,0.59967 -0.5055,0.81791 0.14072,1.03331 1.79899,0.59966 1.65828,-0.43364 2.30449,-0.21824 1.799,0.59967 -0.5055,0.81791 0.14072,1.03331 1.79899,0.59966 1.42333,-0.3722 2.32707,-0.25476 2.00832,0.26098 -0.82938,1.34196 9.68684,4.07662 11.46076,2.98028 1.01378,-0.62656 1.17331,-0.41908 0.50687,0.65924 -0.72451,1.17229 -0.31258,1.40099 1.61534,0.89682 1.65828,-0.43364 2.30449,-0.21824 1.799,0.59967 -0.50272,0.81341 0.12693,1.03692 1.73585,0.61618 l 2.52471,-0.66023 0.0906,38.84986 c 0.0717,30.77603 -0.22704,38.82691 -1.43767,38.7394 -0.84052,-0.0607 -17.71918,-3.09327 -37.50812,-6.73893 z"
     id="path26280"
     inkscape:connector-curvature="0" />
  <path
     style="fill:#5892d4;fill-opacity:1;fill-rule:nonzero;stroke:none"
     d="m 120.96793,292.21786 c -17.15042,-2.50565 -31.31751,-4.59995 -31.48242,-4.65399 -0.1649,-0.054 -0.29983,-17.13513 -0.29983,-37.95798 0,-35.5037 0.13061,-37.81946 2.09883,-37.21296 1.15435,0.35572 16.13099,3.6851 33.28141,7.39864 17.15041,3.71353 31.24484,6.83198 31.32095,6.92987 0.19883,0.25577 2.89415,63.0952 2.87552,67.04065 -0.0196,4.15211 1.66704,4.22103 -37.79446,-1.54423 z"
     id="path26286"
     inkscape:connector-curvature="0" />
  <path
     style="fill:#5892d4;fill-opacity:1;fill-rule:nonzero;stroke:none"
     d="m 129.36324,365.28398 c -10.55411,-0.5395 -21.06169,-1.13391 -23.35018,-1.32091 l -4.16089,-0.34001 -6.19946,-37.17923 c -3.4097,-20.44857 -6.12473,-37.22788 -6.03341,-37.28734 0.40116,-0.26121 68.5753,9.42652 68.98816,9.8034 0.25317,0.23111 1.71003,12.98592 3.23745,28.34403 1.52743,15.35811 3.0929,30.4874 3.47883,33.62065 l 0.70168,5.69682 -8.73645,-0.17826 c -4.80505,-0.098 -17.37163,-0.61966 -27.92573,-1.15915 z"
     id="path26288"
     inkscape:connector-curvature="0" />
  <path
     style="fill:#5892d4;fill-opacity:1;fill-rule:nonzero;stroke:none"
     d="m 189.74411,230.65571 -31.96753,-4.91854 -0.68625,-8.41384 c -0.37744,-4.62761 -1.03973,-21.23168 -1.47175,-36.89792 -0.75447,-27.35874 -0.69634,-28.48529 1.4712,-28.51454 1.24119,-0.0167 17.84058,1.71751 36.88754,3.8539 l 34.63084,3.88435 -0.81841,34.22482 c -0.92283,38.59144 -1.26678,42.09221 -4.11275,41.8604 -1.08095,-0.088 -16.35074,-2.37343 -33.93289,-5.07863 l 0,0 z"
     id="path26292"
     inkscape:connector-curvature="0" />
  <path
     style="fill:#5892d4;fill-opacity:1;fill-rule:nonzero;stroke:none"
     d="m 191.72839,302.61821 -31.18258,-4.9583 -0.74001,-13.79229 c -0.40701,-7.58576 -1.13081,-23.37195 -1.60844,-35.0804 -0.83256,-20.40921 -0.77447,-21.28811 1.40696,-21.28811 1.25145,0 16.51683,2.15879 33.92307,4.79732 17.40624,2.63852 31.8129,4.79732 32.01481,4.79732 0.2019,0 0.3671,15.9211 0.3671,35.38023 0,27.57869 -0.33057,35.34962 -1.49916,35.24138 -0.82454,-0.0764 -15.53133,-2.37009 -32.68175,-5.09715 l 0,0 z"
     id="path26294"
     inkscape:connector-curvature="0" />
  <path
     style="fill:#5892d4;fill-opacity:1;fill-rule:nonzero;stroke:none"
     d="m 194.80912,371.5244 c -16.97291,-2.78141 -27.08587,-4.95866 -27.39928,-5.89888 -0.27322,-0.81966 -1.95635,-16.04246 -3.74029,-33.82845 -2.67701,-26.68996 -2.95509,-32.33816 -1.59209,-32.33816 1.49348,0 50.59933,7.39045 59.88826,9.01321 4.90139,0.85626 4.83754,0.4371 5.79749,38.06049 l 0.75736,29.68342 -3.40446,-0.14152 c -1.87246,-0.0778 -15.5106,-2.12538 -30.30699,-4.55011 z"
     id="path26296"
     inkscape:connector-curvature="0" />
  <path
     style="fill:#5892d4;fill-opacity:1;fill-rule:nonzero;stroke:none"
     d="m 257.57444,381.25807 -27.70169,-4.2393 -0.77901,-22.28915 c -0.42845,-12.25902 -0.78053,-27.45602 -0.78239,-33.7711 l -0.003,-11.48195 31.09765,6.08497 c 17.10372,3.34673 31.42142,6.41549 31.81712,6.81945 0.39571,0.40397 0.34838,14.8409 -0.10517,32.08208 -0.81049,30.81032 -0.86762,31.34491 -3.33303,31.19095 -1.37962,-0.0862 -14.97416,-2.06434 -30.21009,-4.39595 l 0,0 z"
     id="path26298"
     inkscape:connector-curvature="0" />
  <path
     style="fill:#5892d4;fill-opacity:1;fill-rule:nonzero;stroke:none"
     d="m 256.49221,313.77817 c -15.83115,-3.18637 -28.91884,-5.82277 -29.08375,-5.85867 -0.16491,-0.0359 -0.29983,-15.71654 -0.29983,-34.84585 0,-34.69781 0.006,-34.78057 2.55673,-34.78057 3.81742,0 66.29054,12.1146 67.1191,13.01554 0.39289,0.42721 -0.52497,15.61846 -2.0397,33.75833 -1.51474,18.13986 -2.78067,33.38635 -2.81319,33.88107 -0.10554,1.60559 -6.17607,0.72002 -35.43936,-5.16985 z"
     id="path26300"
     inkscape:connector-curvature="0" />
  <path
     style="fill:#5892d4;fill-opacity:1;fill-rule:nonzero;stroke:none"
     d="m 324.29058,328.05094 c -16.37661,-3.82116 -30.05999,-7.2319 -30.40752,-7.57943 -0.5724,-0.57239 4.31349,-68.10258 4.98293,-68.87143 0.15636,-0.17957 15.74364,3.31397 34.63841,7.76344 33.89235,7.98121 34.35316,8.13068 34.28304,11.12048 -0.14506,6.18508 -11.45827,64.03654 -12.5686,64.27105 -0.63394,0.1339 -14.55166,-2.88296 -30.92826,-6.70411 z"
     id="path26304"
     inkscape:connector-curvature="0" />
  <path
     style="fill:#5892d4;fill-opacity:1;fill-rule:nonzero;stroke:none"
     d="m 318.11228,392.44248 -26.35929,-6.19093 0.30189,-24.58627 c 0.16604,-13.52244 0.62143,-27.95402 1.01198,-32.07018 0.67364,-7.09982 0.85326,-7.44798 3.49987,-6.78372 1.53438,0.3851 15.26124,3.55484 30.50414,7.04386 15.24289,3.48902 27.97735,6.60667 28.29879,6.92811 0.32144,0.32144 -1.20512,14.27738 -3.39236,31.01319 -3.11518,23.83603 -4.35909,30.47297 -5.74126,30.63282 -0.97045,0.11223 -13.62614,-2.58186 -28.12376,-5.98688 l 0,0 z"
     id="path26306"
     inkscape:connector-curvature="0" />
  <path
     style="fill:#5892d4;fill-opacity:1;fill-rule:nonzero;stroke:none"
     d="m 260.29848,242.51536 c -17.27142,-3.39903 -31.72203,-6.50856 -32.11246,-6.91005 -0.65618,-0.67478 1.63081,-74.39716 2.33209,-75.17585 0.4306,-0.47814 74.81764,13.58297 75.5076,14.27292 0.30437,0.30437 -1.43263,17.12971 -3.86001,37.38964 l -4.41341,36.83624 -3.02561,-0.11642 c -1.66409,-0.064 -17.15678,-2.89745 -34.4282,-6.29648 l 0,0 z"
     id="path26308"
     inkscape:connector-curvature="0" />
  <path
     style="fill:#5892d4;fill-opacity:1;fill-rule:nonzero;stroke:none"
     d="m 334.43307,258.33484 c -18.71381,-4.45255 -34.34317,-8.4136 -34.7319,-8.80233 -0.62475,-0.62475 7.71483,-73.68713 8.50057,-74.47287 0.3489,-0.3489 76.61285,16.06646 77.15314,16.60675 0.33403,0.33403 -15.53347,71.40511 -16.4417,73.64291 -0.25025,0.6166 -15.7663,-2.52191 -34.48011,-6.97446 z"
     id="path26310"
     inkscape:connector-curvature="0" />
  <path
     style="fill:#5892d4;fill-opacity:1;fill-rule:nonzero;stroke:none"
     d="m 387.0478,344.29233 c -20.7303,-6.15283 -29.316,-9.20552 -29.15409,-10.3659 0.61505,-4.40791 11.3451,-63.00098 11.76977,-64.27055 0.33633,-1.00549 10.25288,1.89129 31.85542,9.30547 17.2518,5.92101 31.7781,11.01956 32.2806,11.33012 0.7383,0.45627 -15.8861,61.36622 -17.036,62.41816 -0.1826,0.16712 -13.5547,-3.62066 -29.7157,-8.4173 z"
     id="path26312"
     inkscape:connector-curvature="0" />
  <path
     style="fill:#5892d4;fill-opacity:1;fill-rule:nonzero;stroke:none"
     d="m 375.35433,407.56314 c -24.70214,-7.63346 -25.48576,-7.97234 -25.48576,-11.02141 0,-3.11433 7.14404,-59.29281 7.57296,-59.55134 0.19134,-0.11533 16.56707,4.70382 50.70317,14.92124 l 8.5039,2.54535 -7.2525,30.58907 c -3.9889,16.824 -7.5459,30.5449 -7.9043,30.49089 -0.3584,-0.054 -12.1203,-3.64222 -26.13747,-7.9738 z"
     id="path26314"
     inkscape:connector-curvature="0" />
  <path
     style="fill:#5892d4;fill-opacity:1;fill-rule:nonzero;stroke:none"
     d="m 268.32484,165.91113 c -20.7725,-3.91109 -37.8474,-7.20585 -37.94423,-7.32168 -0.19489,-0.23314 10.51172,-79.250123 10.78035,-79.561203 0.23808,-0.2757 77.82136,13.88108 78.19383,14.26818 0.41785,0.43426 -12.24873,78.880113 -12.81272,79.350913 -0.24697,0.20618 -17.44473,-2.82512 -38.21723,-6.73621 z"
     id="path26316"
     inkscape:connector-curvature="0" />
  <path
     style="fill:#5892d4;fill-opacity:1;fill-rule:nonzero;stroke:none"
     d="m 345.86061,181.72228 c -20.34424,-4.49476 -37.14701,-8.34761 -37.33949,-8.56188 -0.23877,-0.26582 11.73921,-76.490303 12.52475,-79.703993 0.0213,-0.0873 9.88828,1.88242 21.92655,4.37703 12.03828,2.494623 30.29565,6.269293 40.57195,8.388163 l 18.68423,3.8525 -7.9461,39.73799 c -5.95386,29.77528 -8.38304,39.78118 -9.68918,39.91024 -0.95875,0.0947 -18.38847,-3.50528 -38.73271,-8.00005 z"
     id="path26318"
     inkscape:connector-curvature="0" />
  <path
     style="fill:#ff0000;fill-opacity:1;fill-rule:nonzero;stroke:none"
     d="m 562.3137,190.67734 c 0,-1.08735 -1.4113,-15.95689 -3.1363,-33.04342 -1.725,-17.08654 -2.8759,-31.32695 -2.5575,-31.64537 0.7266,-0.72661 66.0732,-8.62416 66.7742,-8.07009 0.2829,0.22354 2.4883,14.21303 4.901,31.08776 2.9842,20.87189 3.9702,30.81905 3.0838,31.1121 -1.6034,0.5301 -66.9137,12.54432 -68.1657,12.53949 -0.4947,-0.002 -0.8995,-0.89313 -0.8995,-1.98047 z"
     id="path21697"
     inkscape:connector-curvature="0" />
  <path
     style="fill:#ff0000;fill-opacity:1;fill-rule:nonzero;stroke:none"
     d="m 572.0564,226.78259 c -4.8658,-17.50416 -8.5937,-32.079 -8.2842,-32.38854 1.0125,-1.01246 68.034,-13.00215 68.7392,-12.29697 1.1916,1.19161 13.47937,60.29282 12.69977,61.08323 -0.6251,0.63387 -61.92737,15.49565 -63.70817,15.44505 -0.3298,-0.009 -4.5808,-14.33862 -9.4466,-31.84277 z"
     id="path21699"
     inkscape:connector-curvature="0" />
  <path
     style="fill:#ff0000;fill-opacity:1;fill-rule:nonzero;stroke:none"
     d="m 591.9063,289.5564 c -5.6737,-15.96517 -10.1801,-29.1632 -10.0144,-29.32895 0.1658,-0.16575 14.729,-3.74901 32.3627,-7.96281 31.34857,-7.49114 32.07447,-7.60567 32.65577,-5.15179 6.0825,25.67726 12.4506,55.17878 12.0065,55.62283 -0.5329,0.53292 -54.32497,15.73265 -55.96057,15.81247 -0.4039,0.0197 -5.3764,-13.02658 -11.05,-28.99175 l 0,0 z"
     id="path21701"
     inkscape:connector-curvature="0" />
  <path
     style="fill:#ff0000;fill-opacity:1;fill-rule:nonzero;stroke:none"
     d="m 545.5928,338.67276 c -0.5887,-1.48417 -6.2057,-13.76231 -12.4823,-27.28476 -6.2766,-13.52244 -11.0437,-24.9268 -10.5935,-25.34301 2.2563,-2.08605 57.0661,-25.0179 57.8196,-24.19112 1.2823,1.40712 20.6779,56.80767 20.093,57.39258 -0.8562,0.85615 -51.4625,22.1248 -52.6434,22.1248 -0.6177,0 -1.6048,-1.21432 -2.1934,-2.69849 z"
     id="path21703"
     inkscape:connector-curvature="0" />
  <path
     style="fill:#ff0000;fill-opacity:1;fill-rule:nonzero;stroke:none"
     d="m 569.0713,391.42281 c -0.909,-2.13255 -6.0633,-13.79307 -11.4539,-25.91229 -5.3906,-12.11921 -9.6424,-22.17829 -9.4485,-22.35351 1.3043,-1.17865 52.7663,-22.33125 53.2216,-21.8759 0.7403,0.74029 18.5459,54.01899 18.1737,54.38019 -0.2391,0.23209 -23.0297,9.4142 -43.1508,17.38508 l -5.6893,2.25377 -1.6528,-3.87734 0,0 z"
     id="path21705"
     inkscape:connector-curvature="0" />
  <path
     style="fill:#ff0000;fill-opacity:1;fill-rule:nonzero;stroke:none"
     d="m 612.0723,347.96625 c -5.1225,-14.8781 -9.0343,-27.3304 -8.6929,-27.67178 1.3085,-1.30851 55.51807,-15.8852 56.21247,-15.11525 0.709,0.78626 14.3343,54.6156 13.8837,54.8504 -0.1231,0.0641 -11.0178,3.21054 -24.2104,6.99198 -13.1927,3.78145 -24.86247,7.12744 -25.93297,7.43555 -1.5799,0.45473 -3.6997,-4.5325 -11.2599,-26.4909 z"
     id="path21707"
     inkscape:connector-curvature="0" />
  <path
     style="fill:#ff0000;fill-opacity:1;fill-rule:nonzero;stroke:none"
     d="m 637.50387,426.82351 c -1.6742,-2.95784 -15.48027,-49.61548 -14.86367,-50.23207 1.1571,-1.15714 49.14147,-14.92183 50.47207,-14.4783 0.6457,0.21526 3.9576,11.82122 7.3596,25.79103 l 6.1855,25.39965 -9.7011,2.9632 c -5.3357,1.62976 -15.9077,4.87243 -23.4935,7.20593 -15.0421,4.62718 -15.2156,4.66362 -15.9589,3.35056 z"
     id="path21709"
     inkscape:connector-curvature="0" />
</svg>
