<?xml version="1.0" encoding="UTF-8" standalone="no"?>
<!-- Created with Inkscape (http://www.inkscape.org/) -->

<svg
   xmlns:dc="http://purl.org/dc/elements/1.1/"
   xmlns:cc="http://creativecommons.org/ns#"
   xmlns:rdf="http://www.w3.org/1999/02/22-rdf-syntax-ns#"
   xmlns:svg="http://www.w3.org/2000/svg"
   xmlns="http://www.w3.org/2000/svg"
   xmlns:sodipodi="http://sodipodi.sourceforge.net/DTD/sodipodi-0.dtd"
   xmlns:inkscape="http://www.inkscape.org/namespaces/inkscape"
   width="177.16534"
   height="177.16534"
   id="svg2"
   version="1.1"
   inkscape:version="0.48.3.1 r9886"
   sodipodi:docname="plain-per-row.svg">
  <defs
     id="defs4" />
  <sodipodi:namedview
     id="base"
     pagecolor="#ffffff"
     bordercolor="#666666"
     borderopacity="1.0"
     inkscape:pageopacity="0.0"
     inkscape:pageshadow="2"
     inkscape:zoom="2.8"
     inkscape:cx="103.67149"
     inkscape:cy="104.59806"
     inkscape:document-units="px"
     inkscape:current-layer="layer3"
     showgrid="false"
     units="mm"
     inkscape:window-width="1301"
     inkscape:window-height="744"
     inkscape:window-x="65"
     inkscape:window-y="24"
     inkscape:window-maximized="1"
     showguides="true"
     inkscape:guide-bbox="true" />
  <metadata
     id="metadata7">
    <rdf:RDF>
      <cc:Work
         rdf:about="">
        <dc:format>image/svg+xml</dc:format>
        <dc:type
           rdf:resource="http://purl.org/dc/dcmitype/StillImage" />
        <dc:title></dc:title>
      </cc:Work>
    </rdf:RDF>
  </metadata>
  <g
     inkscape:label="Grid"
     inkscape:groupmode="layer"
     id="layer1"
     transform="translate(0,-875.19684)">
    <path
       d="m 2.0625,877.13436 0,177.16534 m 29,-177.16534 0,177.16534 m 29,-177.16534 0,177.16534 m 29,-177.16534 0,177.16534 m 29,-177.16534 0,177.16534 m 29,-177.16534 0,177.16534 m 29,-177.16534 0,177.16534 m -174,-177.16534 177.16534,0 m -177.16534,29 177.16534,0 m -177.16534,29 177.16534,0 m -177.16534,29 177.16534,0 m -177.16534,29 177.16534,0 M 2.0625,1022.1344 l 177.16534,0 m -177.16534,29 177.16534,0"
       style="fill:none;stroke:#000000;stroke-width:0.1pt;stroke-linecap:butt;stroke-linejoin:miter;stroke-opacity:1"
       id="path3016"
       inkscape:connector-curvature="0" />
  </g>
  <g
     inkscape:groupmode="layer"
     id="layer3"
     inkscape:label="Blocks">
    <path
       style="fill:#4d4d4d;fill-opacity:1"
       d="m 117.95329,103.36901 c 4e-5,-7.917075 0.032,-11.119375 0.0711,-7.116226 0.0391,4.003146 0.0391,10.480756 -6e-5,14.394676 -0.0391,3.91392 -0.0711,0.63862 -0.0711,-7.27845 z"
       id="path3190"
       inkscape:connector-curvature="0" />
    <path
       style="fill:#000000;fill-opacity:0"
       d="m 147.56147,16.369409 0,-13.9285712 13.92857,0 13.92858,0 0,13.9285712 0,13.928572 -13.92858,0 -13.92857,0 0,-13.928572 z"
       id="path3380"
       inkscape:connector-curvature="0" />
    <path
       style="fill:#4d4d4d;fill-opacity:1"
       d="m 2.385771,16.281568 0,-14.2857145 14.285714,0 14.285715,0 0,14.2857145 0,14.285714 -14.285715,0 -14.285714,0 0,-14.285714 z"
       id="path5093"
       inkscape:connector-curvature="0" />
    <path
       style="fill:#4d4d4d;fill-opacity:1"
       d="m 31.314342,16.281568 0,-14.2857145 14.285715,0 14.285714,0 0,14.2857145 0,14.285714 -14.285714,0 -14.285715,0 0,-14.285714 z"
       id="path5095"
       inkscape:connector-curvature="0" />
    <path
       style="fill:#4d4d4d;fill-opacity:1"
       d="m 2.385771,45.567282 0,-14.285714 14.285714,0 14.285715,0 0,14.285714 0,14.285714 -14.285715,0 -14.285714,0 0,-14.285714 z"
       id="path5097"
       inkscape:connector-curvature="0" />
    <path
       style="fill:#4d4d4d;fill-opacity:1"
       d="m 31.314342,45.567282 0,-14.285714 14.285715,0 14.285714,0 0,14.285714 0,14.285714 -14.285714,0 -14.285715,0 0,-14.285714 z"
       id="path5099"
       inkscape:connector-curvature="0" />
    <path
       style="fill:#4d4d4d;fill-opacity:1"
       d="m 147.38577,45.567282 0,-14.285714 14.28572,0 14.28571,0 0,14.285714 0,14.285714 -14.28571,0 -14.28572,0 0,-14.285714 z"
       id="path5101"
       inkscape:connector-curvature="0" />
    <path
       style="fill:#4d4d4d;fill-opacity:1"
       d="m 2.385771,103.42442 0,-14.285709 14.285714,0 14.285715,0 0,14.285709 0,14.28572 -14.285715,0 -14.285714,0 0,-14.28572 z"
       id="path5103"
       inkscape:connector-curvature="0" />
    <path
       style="fill:#4d4d4d;fill-opacity:1"
       d="m 2.385771,161.28157 0,-14.28572 14.285714,0 14.285715,0 0,14.28572 0,14.28571 -14.285715,0 -14.285714,0 0,-14.28571 z"
       id="path5105"
       inkscape:connector-curvature="0" />
    <path
       style="fill:#4d4d4d;fill-opacity:1"
       d="m 147.38577,161.28157 0,-14.28572 14.28572,0 14.28571,0 0,14.28572 0,14.28571 -14.28571,0 -14.28572,0 0,-14.28571 z"
       id="path5107"
       inkscape:connector-curvature="0" />
    <path
       style="fill:#4d4d4d;fill-opacity:1"
       d="m 118.4572,161.28157 0,-14.28572 14.10714,0 14.10715,0 0,14.28572 0,14.28571 -14.10715,0 -14.10714,0 0,-14.28571 z"
       id="path5115"
       inkscape:connector-curvature="0" />
    <path
       style="fill:#4d4d4d;fill-opacity:1"
       d="m 147.38577,74.495853 0,-14.285714 14.28572,0 14.28571,0 0,14.285714 0,14.285715 -14.28571,0 -14.28572,0 0,-14.285715 z"
       id="path5117"
       inkscape:connector-curvature="0" />
    <path
       style="fill:#4d4d4d;fill-opacity:1"
       d="m 118.4572,74.495853 0,-14.285714 14.10714,0 14.10715,0 0,14.285714 0,14.285715 -14.10715,0 -14.10714,0 0,-14.285715 z"
       id="path5119"
       inkscape:connector-curvature="0" />
    <path
       style="fill:#4d4d4d;fill-opacity:1"
       d="m 31.314342,161.28157 0,-14.28572 14.285715,0 14.285714,0 0,14.28572 0,14.28571 -14.285714,0 -14.285715,0 0,-14.28571 z"
       id="path5121"
       inkscape:connector-curvature="0" />
  </g>
  <g
     inkscape:groupmode="layer"
     id="layer2"
     inkscape:label="Arrow" />
</svg>
