<?xml version="1.0" encoding="UTF-8" standalone="no"?>
<!-- Created with Inkscape (http://www.inkscape.org/) -->

<svg
   xmlns:dc="http://purl.org/dc/elements/1.1/"
   xmlns:cc="http://creativecommons.org/ns#"
   xmlns:rdf="http://www.w3.org/1999/02/22-rdf-syntax-ns#"
   xmlns:svg="http://www.w3.org/2000/svg"
   xmlns="http://www.w3.org/2000/svg"
   xmlns:sodipodi="http://sodipodi.sourceforge.net/DTD/sodipodi-0.dtd"
   xmlns:inkscape="http://www.inkscape.org/namespaces/inkscape"
   width="177.16534"
   height="177.16534"
   id="svg2"
   version="1.1"
   inkscape:version="0.48.3.1 r9886"
   sodipodi:docname="disjoint2-bitmap.svg">
  <defs
     id="defs4" />
  <sodipodi:namedview
     id="base"
     pagecolor="#ffffff"
     bordercolor="#666666"
     borderopacity="1.0"
     inkscape:pageopacity="0.0"
     inkscape:pageshadow="2"
     inkscape:zoom="3.959798"
     inkscape:cx="89.552573"
     inkscape:cy="113.90044"
     inkscape:document-units="px"
     inkscape:current-layer="layer1"
     showgrid="false"
     units="mm"
     inkscape:window-width="1301"
     inkscape:window-height="744"
     inkscape:window-x="65"
     inkscape:window-y="24"
     inkscape:window-maximized="1"
     showguides="true"
     inkscape:guide-bbox="true" />
  <metadata
     id="metadata7">
    <rdf:RDF>
      <cc:Work
         rdf:about="">
        <dc:format>image/svg+xml</dc:format>
        <dc:type
           rdf:resource="http://purl.org/dc/dcmitype/StillImage" />
        <dc:title></dc:title>
      </cc:Work>
    </rdf:RDF>
  </metadata>
  <g
     inkscape:label="Grid"
     inkscape:groupmode="layer"
     id="layer1"
     transform="translate(0,-875.19684)">
    <path
       d="m 2.0625,905.67117 0,148.62853 m 29,-148.62853 0,148.62853 m 29,-148.62853 0,148.62853 m 29,-148.62853 0,148.62853 m 29,-148.62853 0,148.62853 m -116,-148.16534 116.30365,0 m -116.30365,29 116.30365,0 m -116.30365,29 116.30365,0 m -116.30365,29 116.30365,0 M 2.0625,1022.1344 l 116.30365,0 m -116.30365,29 116.30365,0"
       style="fill:none;stroke:#000000;stroke-width:0.1pt;stroke-linecap:butt;stroke-linejoin:miter;stroke-opacity:1"
       id="path3016"
       inkscape:connector-curvature="0"
       sodipodi:nodetypes="cccccccccccccccccccccc" />
  </g>
  <g
     inkscape:groupmode="layer"
     id="layer3"
     inkscape:label="Blocks"
     sodipodi:insensitive="true">
    <path
       style="fill:#4d4d4d"
       d="m 2.4224775,103.44238 0,-14.394669 14.1421355,0 14.142136,0 0,14.394669 0,14.39468 -14.142136,0 -14.1421355,0 0,-14.39468 z"
       id="path3136"
       inkscape:connector-curvature="0" />
    <path
       style="fill:#4d4d4d"
       d="m 2.4224775,132.48427 0,-14.14214 14.1421355,0 14.142136,0 0,14.14214 0,14.14214 -14.142136,0 -14.1421355,0 0,-14.14214 z"
       id="path3138"
       inkscape:connector-curvature="0" />
    <path
       style="fill:#4d4d4d"
       d="m 2.4224775,161.27362 0,-14.14214 14.1421355,0 14.142136,0 0,14.14214 0,14.14213 -14.142136,0 -14.1421355,0 0,-14.14213 z"
       id="path3140"
       inkscape:connector-curvature="0" />
    <path
       style="fill:#4d4d4d"
       d="m 31.211825,45.611152 0,-14.142136 14.394673,0 14.394674,0 0,14.142136 0,14.142136 -14.394674,0 -14.394673,0 0,-14.142136 z"
       id="path3142"
       inkscape:connector-curvature="0" />
    <path
       style="fill:#4d4d4d;fill-opacity:1"
       d="m 60.506248,132.48427 0,-14.14214 14.142136,0 14.142135,0 0,14.14214 0,14.14214 -14.142135,0 -14.142136,0 0,-14.14214 z"
       id="path3150"
       inkscape:connector-curvature="0" />
    <path
       style="fill:#4d4d4d;fill-opacity:1"
       d="m 60.506248,103.44238 0,-14.394669 14.142136,0 14.142135,0 0,14.394669 0,14.39468 -14.142135,0 -14.142136,0 0,-14.39468 z"
       id="path3152"
       inkscape:connector-curvature="0" />
    <path
       style="fill:#4d4d4d;fill-opacity:1"
       d="m 60.506248,74.400499 0,-14.142135 14.142136,0 14.142135,0 0,14.142135 0,14.142136 -14.142135,0 -14.142136,0 0,-14.142136 z"
       id="path3154"
       inkscape:connector-curvature="0" />
    <path
       style="fill:#4d4d4d;fill-opacity:1"
       d="m 60.506248,45.611152 0,-14.142136 14.142136,0 14.142135,0 0,14.142136 0,14.142136 -14.142135,0 -14.142136,0 0,-14.142136 z"
       id="path3156"
       inkscape:connector-curvature="0" />
    <path
       style="fill:#4d4d4d;fill-opacity:1"
       d="m 89.295596,103.44238 0,-14.394669 14.142134,0 14.14214,0 0,14.394669 0,14.39468 -14.14214,0 -14.142134,0 0,-14.39468 z"
       id="path3160"
       inkscape:connector-curvature="0" />
    <path
       style="fill:#4d4d4d;fill-opacity:1"
       d="m 117.95329,103.36901 c 4e-5,-7.917075 0.032,-11.119375 0.0711,-7.116226 0.0391,4.003146 0.0391,10.480756 -6e-5,14.394676 -0.0391,3.91392 -0.0711,0.63862 -0.0711,-7.27845 z"
       id="path3190"
       inkscape:connector-curvature="0" />
    <path
       style="fill:#000000;fill-opacity:0"
       d="m 147.56147,16.369409 0,-13.9285712 13.92857,0 13.92858,0 0,13.9285712 0,13.928572 -13.92858,0 -13.92857,0 0,-13.928572 z"
       id="path3380"
       inkscape:connector-curvature="0" />
    <path
       style="fill:#000000;fill-opacity:0"
       d="m 176.17404,99.129364 0,-10.038391 1.57836,0 c 0.96807,0 1.57837,-0.04882 1.57837,-0.126269 0,-0.07744 -0.6103,-0.126269 -1.57837,-0.126269 l -1.57836,0 0,-14.394674 0,-14.394673 1.57836,0 c 0.96807,0 1.57837,-0.04883 1.57837,-0.12627 0,-0.07745 -0.61063,-0.126269 -1.57933,-0.126269 l -1.57933,0 0.003,-14.394673 0.003,-14.394674 1.58378,0 c 1.03173,0 1.55638,-0.04435 1.50515,-0.127236 -0.0522,-0.08439 -5.33632,-0.126251 -15.68992,-0.12431 -13.85435,0.0026 -15.63304,-0.01884 -15.80468,-0.190473 -0.17369,-0.173689 0.5077,-0.894594 6.68536,-7.073029 l 6.87869,-6.879626 -6.85573,-6.8565997 -6.85573,-6.8565998 0.26467,-0.2395299 c 0.26437,-0.2392433 0.27278,-0.2314285 7.04601,6.5409271 3.72973,3.7292523 6.83776,6.7804573 6.90673,6.7804573 0.069,0 3.21087,-3.082544 6.98198,-6.8500972 l 6.85658,-6.8500969 0.31863,0.3647521 0.31864,0.3647522 -0.0862,-0.459454 -0.0862,-0.4594539 1.59242,0 c 0.97743,0 1.59242,-0.048765 1.59242,-0.1262691 0,-0.083833 -10.34392,-0.1264547 -30.77809,-0.1268234 -16.92795,-2.525e-4 -49.827353,-5.56e-5 -73.109791,5.051e-4 l -42.331705,0.00115 0,-8.6499839 0,-8.649983 92.870646,0 92.87065,0 0.0318,62.313785 0.0318,62.313794 -21.37104,0 -21.37104,0 0,-10.0384 z M 150.35201,28.734359 c 1.03999,-1.04172 1.86247,-1.894036 1.82775,-1.894036 -0.0347,0 -0.91403,0.852316 -1.95401,1.894036 -1.03999,1.041719 -1.86247,1.894036 -1.82775,1.894036 0.0347,0 0.91403,-0.852317 1.95401,-1.894036 z m 20.33336,-4.036562 c -2.77403,-2.774685 -5.0721,-5.016471 -5.10682,-4.981748 -0.0347,0.03472 2.1646,2.291391 4.88737,5.014821 2.72278,2.72343 4.9505,5.015494 4.9505,5.093474 0,0.07798 -0.0891,0.215714 -0.19795,0.306073 -0.17171,0.142501 -1.06764,-0.705273 -6.75539,-6.392239 -3.6066,-3.60609 -6.55745,-6.500115 -6.55745,-6.431166 0,0.06895 2.93985,3.065613 6.53299,6.659252 l 6.53298,6.533888 0.37873,-0.378739 0.37875,-0.378738 -5.04371,-5.044878 0,0 z m -8.90601,-7.389526 c 0,-0.06945 -2.13079,2.003953 -4.73509,4.607558 -2.60429,2.603605 -4.73509,4.790648 -4.73509,4.860096 0,0.06945 2.1308,-2.003953 4.73509,-4.607558 2.6043,-2.603605 4.73509,-4.790648 4.73509,-4.860096 z m 2.26782,0.751307 -1.44455,-1.448665 6.68551,-6.6864155 c 3.67704,-3.6775273 6.65711,-6.7148236 6.6224,-6.7495464 -0.0347,-0.034723 -3.10006,2.9741821 -6.81184,6.6864561 l -6.7487,6.7495878 1.50777,1.511715 c 0.82928,0.831444 1.53617,1.483324 1.57087,1.448624 0.0347,-0.0347 -0.58696,-0.714991 -1.38146,-1.511756 l 0,0 z"
       id="path3624"
       inkscape:connector-curvature="0" />
  </g>
</svg>
