<?xml version="1.0" encoding="UTF-8" standalone="no"?>
<!-- Created with Inkscape (http://www.inkscape.org/) -->

<svg
   xmlns:dc="http://purl.org/dc/elements/1.1/"
   xmlns:cc="http://creativecommons.org/ns#"
   xmlns:rdf="http://www.w3.org/1999/02/22-rdf-syntax-ns#"
   xmlns:svg="http://www.w3.org/2000/svg"
   xmlns="http://www.w3.org/2000/svg"
   xmlns:sodipodi="http://sodipodi.sourceforge.net/DTD/sodipodi-0.dtd"
   xmlns:inkscape="http://www.inkscape.org/namespaces/inkscape"
   width="177.16534"
   height="177.16534"
   id="svg2"
   version="1.1"
   inkscape:version="0.48.3.1 r9886"
   sodipodi:docname="plain-bitmap.svg">
  <defs
     id="defs4" />
  <sodipodi:namedview
     id="base"
     pagecolor="#ffffff"
     bordercolor="#666666"
     borderopacity="1.0"
     inkscape:pageopacity="0.0"
     inkscape:pageshadow="2"
     inkscape:zoom="1.979899"
     inkscape:cx="-49.719683"
     inkscape:cy="57.731772"
     inkscape:document-units="px"
     inkscape:current-layer="layer3"
     showgrid="false"
     units="mm"
     inkscape:window-width="1301"
     inkscape:window-height="744"
     inkscape:window-x="65"
     inkscape:window-y="24"
     inkscape:window-maximized="1" />
  <metadata
     id="metadata7">
    <rdf:RDF>
      <cc:Work
         rdf:about="">
        <dc:format>image/svg+xml</dc:format>
        <dc:type
           rdf:resource="http://purl.org/dc/dcmitype/StillImage" />
        <dc:title />
      </cc:Work>
    </rdf:RDF>
  </metadata>
  <g
     inkscape:label="Grid"
     inkscape:groupmode="layer"
     id="layer1"
     transform="translate(0,-875.19684)">
    <path
       d="m 2.0625,877.13436 0,177.16534 m 29,-177.16534 0,177.16534 m 29,-177.16534 0,177.16534 m 29,-177.16534 0,177.16534 m 29,-177.16534 0,177.16534 m 29,-177.16534 0,177.16534 m 29,-177.16534 0,177.16534 m -174,-177.16534 177.16534,0 m -177.16534,29 177.16534,0 m -177.16534,29 177.16534,0 m -177.16534,29 177.16534,0 m -177.16534,29 177.16534,0 M 2.0625,1022.1344 l 177.16534,0 m -177.16534,29 177.16534,0"
       style="fill:none;stroke:#000000;stroke-width:0.1pt;stroke-linecap:butt;stroke-linejoin:miter;stroke-opacity:1"
       id="path3016"
       inkscape:connector-curvature="0" />
  </g>
  <g
     inkscape:groupmode="layer"
     id="layer3"
     inkscape:label="Blocks">
    <path
       style="fill:#4d4d4d;fill-opacity:1"
       d="m 2.4041884,161.55693 0,-14.14213 14.1421356,0 14.142135,0 0,14.14213 0,14.14214 -14.142135,0 -14.1421356,0 0,-14.14214 z"
       id="path3256"
       inkscape:connector-curvature="0" />
    <path
       style="fill:#4d4d4d;fill-opacity:1"
       d="m 147.36108,132.26251 0,-14.14214 14.14213,0 14.14214,0 0,14.14214 0,14.14213 -14.14214,0 -14.14213,0 0,-14.14213 z"
       id="path3258"
       inkscape:connector-curvature="0" />
    <path
       style="fill:#4d4d4d;fill-opacity:1"
       d="m 147.36108,74.431277 0,-14.394674 14.14213,0 14.14214,0 0,14.394674 0,14.394673 -14.14214,0 -14.14213,0 0,-14.394673 z"
       id="path3260"
       inkscape:connector-curvature="0" />
    <path
       style="fill:#4d4d4d;fill-opacity:1"
       d="m 60.487959,74.431277 0,-14.394674 14.142136,0 14.142135,0 0,14.394674 0,14.394673 -14.142135,0 -14.142136,0 0,-14.394673 z"
       id="path3262"
       inkscape:connector-curvature="0" />
    <path
       style="fill:#4d4d4d;fill-opacity:1"
       d="m 60.487959,45.389391 0,-14.142135 14.142136,0 14.142135,0 0,14.142135 0,14.142136 -14.142135,0 -14.142136,0 0,-14.142136 z"
       id="path3264"
       inkscape:connector-curvature="0" />
    <path
       style="fill:#4d4d4d;fill-opacity:1"
       d="m 31.193536,45.389391 0,-14.142135 14.394673,0 14.394674,0 0,14.142135 0,14.142136 -14.394674,0 -14.394673,0 0,-14.142136 z"
       id="path3266"
       inkscape:connector-curvature="0" />
  </g>
</svg>
