<?xml version="1.0" encoding="UTF-8" standalone="no"?>
<!-- Created with Inkscape (http://www.inkscape.org/) -->

<svg
   xmlns:dc="http://purl.org/dc/elements/1.1/"
   xmlns:cc="http://creativecommons.org/ns#"
   xmlns:rdf="http://www.w3.org/1999/02/22-rdf-syntax-ns#"
   xmlns:svg="http://www.w3.org/2000/svg"
   xmlns="http://www.w3.org/2000/svg"
   xmlns:sodipodi="http://sodipodi.sourceforge.net/DTD/sodipodi-0.dtd"
   xmlns:inkscape="http://www.inkscape.org/namespaces/inkscape"
   width="337.64374"
   height="748.76874"
   id="svg5039"
   version="1.1"
   inkscape:version="0.48.3.1 r9886"
   sodipodi:docname="key.svg">
  <defs
     id="defs5041" />
  <sodipodi:namedview
     id="base"
     pagecolor="#ffffff"
     bordercolor="#666666"
     borderopacity="1.0"
     inkscape:pageopacity="0.0"
     inkscape:pageshadow="2"
     inkscape:zoom="0.7"
     inkscape:cx="51.358545"
     inkscape:cy="305.33868"
     inkscape:document-units="px"
     inkscape:current-layer="layer1"
     showgrid="false"
     inkscape:window-width="1301"
     inkscape:window-height="744"
     inkscape:window-x="65"
     inkscape:window-y="24"
     inkscape:window-maximized="1"
     fit-margin-top="2"
     fit-margin-left="2"
     fit-margin-right="2"
     fit-margin-bottom="2" />
  <metadata
     id="metadata5044">
    <rdf:RDF>
      <cc:Work
         rdf:about="">
        <dc:format>image/svg+xml</dc:format>
        <dc:type
           rdf:resource="http://purl.org/dc/dcmitype/StillImage" />
        <dc:title></dc:title>
      </cc:Work>
    </rdf:RDF>
  </metadata>
  <g
     inkscape:label="Layer 1"
     inkscape:groupmode="layer"
     id="layer1"
     transform="translate(-173.63125,-96.63125)">
    <path
       style="fill:#ffe700;fill-opacity:1;stroke:#000000;stroke-width:2;stroke-miterlimit:4;stroke-opacity:1;stroke-dasharray:none"
       d="m 342.4375,98.78125 c -92.05216,0 -166.65625,74.63534 -166.65625,166.6875 0,80.64503 57.25613,147.91404 133.34375,163.34375 l 0,414.4375 66.65625,0 116.9375,0 0,-38.40625 -116.9375,0 0,-127.125 116.9375,0 0,-38.375 -116.9375,0 0,-210.53125 C 451.85988,413.3712 509.125,346.10318 509.125,265.46875 c 0,-92.05216 -74.63534,-166.6875 -166.6875,-166.6875 z m 0,66.5625 c 34.08357,0 61.71875,22.66256 61.71875,50.625 0,27.96244 -27.63518,50.65625 -61.71875,50.65625 -34.08357,0 -61.71875,-22.69381 -61.71875,-50.65625 0,-27.96244 27.63518,-50.625 61.71875,-50.625 z"
       id="path5047"
       inkscape:connector-curvature="0" />
  </g>
</svg>
