<?xml version="1.0" encoding="UTF-8" standalone="no"?>
<!-- Created with Inkscape (http://www.inkscape.org/) -->

<svg
   xmlns:dc="http://purl.org/dc/elements/1.1/"
   xmlns:cc="http://creativecommons.org/ns#"
   xmlns:rdf="http://www.w3.org/1999/02/22-rdf-syntax-ns#"
   xmlns:svg="http://www.w3.org/2000/svg"
   xmlns="http://www.w3.org/2000/svg"
   xmlns:sodipodi="http://sodipodi.sourceforge.net/DTD/sodipodi-0.dtd"
   xmlns:inkscape="http://www.inkscape.org/namespaces/inkscape"
   width="661.89539"
   height="571.58704"
   id="svg2"
   version="1.1"
   inkscape:version="0.48.3.1 r9886"
   sodipodi:docname="same-topology.svg">
  <defs
     id="defs4">
    <inkscape:perspective
       sodipodi:type="inkscape:persp3d"
       inkscape:vp_x="515.1778 : 689.8258 : 1"
       inkscape:vp_y="0 : 1000 : 0"
       inkscape:vp_z="778.43967 : 257.48051 : 1"
       inkscape:persp3d-origin="167.99643 : 284.11732 : 1"
       id="perspective2985" />
    <inkscape:perspective
       sodipodi:type="inkscape:persp3d"
       inkscape:vp_x="832.40799 : 694.65071 : 1"
       inkscape:vp_y="0 : 1000 : 0"
       inkscape:vp_z="1095.6699 : 262.30542 : 1"
       inkscape:persp3d-origin="485.22662 : 288.94223 : 1"
       id="perspective2985-5" />
  </defs>
  <sodipodi:namedview
     id="base"
     pagecolor="#ffffff"
     bordercolor="#666666"
     borderopacity="1.0"
     inkscape:pageopacity="0.0"
     inkscape:pageshadow="2"
     inkscape:zoom="0.49497475"
     inkscape:cx="103.93097"
     inkscape:cy="214.26658"
     inkscape:document-units="px"
     inkscape:current-layer="g3789"
     showgrid="false"
     fit-margin-top="5"
     fit-margin-left="5"
     fit-margin-right="5"
     fit-margin-bottom="5"
     inkscape:window-width="1301"
     inkscape:window-height="744"
     inkscape:window-x="65"
     inkscape:window-y="24"
     inkscape:window-maximized="1" />
  <metadata
     id="metadata7">
    <rdf:RDF>
      <cc:Work
         rdf:about="">
        <dc:format>image/svg+xml</dc:format>
        <dc:type
           rdf:resource="http://purl.org/dc/dcmitype/StillImage" />
        <dc:title />
      </cc:Work>
    </rdf:RDF>
  </metadata>
  <g
     inkscape:label="Original"
     inkscape:groupmode="layer"
     id="layer1"
     transform="translate(-56.305204,-254.25648)"
     style="display:none">
    <g
       id="g3057"
       style="fill:#5bd4ab;fill-opacity:0.40639271;stroke:#000000;stroke-opacity:1"
       transform="translate(22.223356,2.0203051)">
      <path
         d="m 200.01021,341.59193 -127.279219,-8.45834 0,470.27935 127.279219,-126.8275 z"
         style="fill:#96fff7;fill-opacity:1;fill-rule:evenodd;stroke:#000000;stroke-opacity:1"
         id="path3922"
         inkscape:connector-curvature="0" />
      <path
         d="m 200.01021,341.59193 0,334.99351 106.99158,21.88115 0,-273.03006 z"
         style="fill:#96fff7;fill-opacity:1;fill-rule:evenodd;stroke:#000000;stroke-opacity:1"
         id="path3924"
         inkscape:connector-curvature="0" />
      <path
         d="M 200.01021,341.59193 72.730991,333.13359 243.24392,444.7009 307.00179,425.43653 z"
         style="fill:#5bd4ab;fill-opacity:0.40639271;fill-rule:evenodd;stroke:#000000;stroke-opacity:1"
         id="path3926"
         inkscape:connector-curvature="0" />
      <path
         d="m 555.62619,425.66044 -127.27955,60.23244 94.95468,48.03518 32.32487,226.72589 z"
         style="fill:#96fff7;fill-opacity:1;fill-rule:evenodd;stroke:#000000;stroke-opacity:1"
         id="path3922-6"
         inkscape:connector-curvature="0"
         sodipodi:nodetypes="ccccc" />
      <path
         d="m 555.62619,425.66044 4.5e-4,334.99351 26.17893,-220.55546 80.8122,-54.20561 z"
         style="fill:#96fff7;fill-opacity:1;fill-rule:evenodd;stroke:#000000;stroke-opacity:1"
         id="path3924-0"
         inkscape:connector-curvature="0"
         sodipodi:nodetypes="ccccc" />
      <path
         d="m 555.62619,425.66044 -127.27955,60.23244 c 75.86194,-47.60784 138.84914,-99.50726 166.47265,-163.19458 -15.97774,42.94979 24.6516,120.24478 67.79848,163.19458 z"
         style="fill:#a6efeb;fill-opacity:1;fill-rule:evenodd;stroke:#000000;stroke-opacity:1"
         id="path3926-9"
         inkscape:connector-curvature="0"
         sodipodi:nodetypes="ccccc" />
      <text
         xml:space="preserve"
         style="font-size:40px;font-style:normal;font-weight:normal;line-height:125%;letter-spacing:0px;word-spacing:0px;fill:#000000;fill-opacity:1;stroke:none;font-family:Sans"
         x="187.88837"
         y="710.93066"
         id="text4096"
         sodipodi:linespacing="125%"><tspan
           sodipodi:role="line"
           id="tspan4098"
           x="187.88837"
           y="710.93066">a</tspan></text>
      <text
         xml:space="preserve"
         style="font-size:40px;font-style:normal;font-weight:normal;line-height:125%;letter-spacing:0px;word-spacing:0px;fill:#000000;fill-opacity:1;stroke:none;font-family:Sans"
         x="562.16663"
         y="776.41718"
         id="text4096-6"
         sodipodi:linespacing="125%"><tspan
           sodipodi:role="line"
           id="tspan4098-2"
           x="562.16663"
           y="776.41718">a</tspan></text>
      <text
         xml:space="preserve"
         style="font-size:40px;font-style:normal;font-weight:normal;line-height:125%;letter-spacing:0px;word-spacing:0px;fill:#000000;fill-opacity:1;stroke:none;font-family:Sans"
         x="313.62848"
         y="721.84863"
         id="text4096-3"
         sodipodi:linespacing="125%"><tspan
           sodipodi:role="line"
           id="tspan4098-7"
           x="313.62848"
           y="721.84863">b</tspan></text>
      <text
         xml:space="preserve"
         style="font-size:40px;font-style:normal;font-weight:normal;line-height:125%;letter-spacing:0px;word-spacing:0px;fill:#000000;fill-opacity:1;stroke:none;font-family:Sans"
         x="586.61267"
         y="568.25891"
         id="text4096-3-2"
         sodipodi:linespacing="125%"><tspan
           sodipodi:role="line"
           id="tspan4098-7-6"
           x="586.61267"
           y="568.25891">b</tspan></text>
      <text
         xml:space="preserve"
         style="font-size:40px;font-style:normal;font-weight:normal;line-height:125%;letter-spacing:0px;word-spacing:0px;fill:#000000;fill-opacity:1;stroke:none;font-family:Sans"
         x="671.46552"
         y="499.56857"
         id="text4096-3-2-0"
         sodipodi:linespacing="125%"><tspan
           sodipodi:role="line"
           id="tspan4098-7-6-0"
           x="671.46552"
           y="499.56857">c</tspan></text>
      <text
         xml:space="preserve"
         style="font-size:40px;font-style:normal;font-weight:normal;line-height:125%;letter-spacing:0px;word-spacing:0px;fill:#000000;fill-opacity:1;stroke:none;font-family:Sans"
         x="316.45035"
         y="434.94498"
         id="text4096-3-2-0-5"
         sodipodi:linespacing="125%"><tspan
           sodipodi:role="line"
           id="tspan4098-7-6-0-8"
           x="316.45035"
           y="434.94498">c</tspan></text>
      <text
         xml:space="preserve"
         style="font-size:40px;font-style:normal;font-weight:normal;line-height:125%;letter-spacing:0px;word-spacing:0px;fill:#000000;fill-opacity:1;stroke:none;font-family:Sans"
         x="191.17113"
         y="331.92969"
         id="text4096-3-2-0-5-0"
         sodipodi:linespacing="125%"><tspan
           sodipodi:role="line"
           id="tspan4098-7-6-0-8-0"
           x="191.17113"
           y="331.92969">d</tspan></text>
      <text
         xml:space="preserve"
         style="font-size:40px;font-style:normal;font-weight:normal;line-height:125%;letter-spacing:0px;word-spacing:0px;fill:#000000;fill-opacity:1;stroke:none;font-family:Sans"
         x="521.37811"
         y="471.28427"
         id="text4096-3-2-0-5-0-9"
         sodipodi:linespacing="125%"><tspan
           sodipodi:role="line"
           id="tspan4098-7-6-0-8-0-1"
           x="521.37811"
           y="471.28427">d</tspan></text>
      <text
         xml:space="preserve"
         style="font-size:40px;font-style:normal;font-weight:normal;line-height:125%;letter-spacing:0px;word-spacing:0px;fill:#000000;fill-opacity:1;stroke:none;font-family:Sans"
         x="400.15982"
         y="505.62946"
         id="text4096-3-2-0-5-0-9-0"
         sodipodi:linespacing="125%"><tspan
           sodipodi:role="line"
           id="tspan4098-7-6-0-8-0-1-0"
           x="400.15982"
           y="505.62946">e</tspan></text>
      <text
         xml:space="preserve"
         style="font-size:40px;font-style:normal;font-weight:normal;line-height:125%;letter-spacing:0px;word-spacing:0px;fill:#000000;fill-opacity:1;stroke:none;font-family:Sans"
         x="42.204494"
         y="340.01093"
         id="text4096-3-2-0-5-0-9-0-1"
         sodipodi:linespacing="125%"><tspan
           sodipodi:role="line"
           id="tspan4098-7-6-0-8-0-1-0-2"
           x="42.204494"
           y="340.01093">e</tspan></text>
      <text
         xml:space="preserve"
         style="font-size:40px;font-style:normal;font-weight:normal;line-height:125%;letter-spacing:0px;word-spacing:0px;fill:#000000;fill-opacity:1;stroke:none;font-family:Sans"
         x="38.163879"
         y="818.82324"
         id="text4096-3-2-0-5-0-9-0-1-2"
         sodipodi:linespacing="125%"><tspan
           sodipodi:role="line"
           id="tspan4098-7-6-0-8-0-1-0-2-6"
           x="38.163879"
           y="818.82324">f</tspan></text>
      <text
         xml:space="preserve"
         style="font-size:40px;font-style:normal;font-weight:normal;line-height:125%;letter-spacing:0px;word-spacing:0px;fill:#000000;fill-opacity:1;stroke:none;font-family:Sans"
         x="495.17511"
         y="562.4812"
         id="text4096-3-2-0-5-0-9-0-1-2-7"
         sodipodi:linespacing="125%"><tspan
           sodipodi:role="line"
           id="tspan4098-7-6-0-8-0-1-0-2-6-9"
           x="495.17511"
           y="562.4812">f</tspan></text>
      <text
         xml:space="preserve"
         style="font-size:40px;font-style:normal;font-weight:normal;line-height:125%;letter-spacing:0px;word-spacing:0px;fill:#000000;fill-opacity:1;stroke:none;font-family:Sans"
         x="596.19037"
         y="307.92279"
         id="text4096-3-2-0-5-0-9-0-1-2-7-0"
         sodipodi:linespacing="125%"><tspan
           sodipodi:role="line"
           id="tspan4098-7-6-0-8-0-1-0-2-6-9-4"
           x="596.19037"
           y="307.92279">g</tspan></text>
      <text
         xml:space="preserve"
         style="font-size:40px;font-style:normal;font-weight:normal;line-height:125%;letter-spacing:0px;word-spacing:0px;fill:#000000;fill-opacity:1;stroke:none;font-family:Sans"
         x="230.45419"
         y="427.0477"
         id="text4096-3-2-0-5-0-9-0-1-2-7-0-3"
         sodipodi:linespacing="125%"><tspan
           sodipodi:role="line"
           id="tspan4098-7-6-0-8-0-1-0-2-6-9-4-1"
           x="230.45419"
           y="427.0477">g</tspan></text>
    </g>
  </g>
  <g
     transform="translate(-56.305204,-254.25648)"
     id="g3787"
     inkscape:groupmode="layer"
     inkscape:label="Original copy">
    <g
       transform="translate(22.223356,2.0203051)"
       style="fill:#5bd4ab;fill-opacity:0.40639271;stroke:#000000;stroke-opacity:1"
       id="g3789">
      <path
         inkscape:connector-curvature="0"
         id="path3791"
         style="fill:#96fff7;fill-opacity:1;fill-rule:evenodd;stroke:#000000;stroke-opacity:1"
         d="m 200.01021,341.59193 -127.279219,-8.45834 0,470.27935 127.279219,-126.8275 z" />
      <path
         inkscape:connector-curvature="0"
         id="path3793"
         style="fill:#96fff7;fill-opacity:1;fill-rule:evenodd;stroke:#000000;stroke-opacity:1"
         d="m 200.01021,341.59193 0,334.99351 106.99158,21.88115 0,-273.03006 z" />
      <path
         inkscape:connector-curvature="0"
         id="path3795"
         style="fill:#5bd4ab;fill-opacity:0.40639271;fill-rule:evenodd;stroke:#000000;stroke-opacity:1"
         d="M 200.01021,341.59193 72.730991,333.13359 243.24392,444.7009 307.00179,425.43653 z" />
      <path
         sodipodi:nodetypes="ccccc"
         inkscape:connector-curvature="0"
         id="path3797"
         style="fill:#96fff7;fill-opacity:1;fill-rule:evenodd;stroke:#000000;stroke-opacity:1"
         d="m 555.62619,425.66044 -127.27955,60.23244 94.95468,48.03518 32.32487,226.72589 z" />
      <path
         sodipodi:nodetypes="ccccc"
         inkscape:connector-curvature="0"
         id="path3799"
         style="fill:#96fff7;fill-opacity:1;fill-rule:evenodd;stroke:#000000;stroke-opacity:1"
         d="m 555.62619,425.66044 4.5e-4,334.99351 26.17893,-220.55546 80.8122,-54.20561 z" />
      <path
         sodipodi:nodetypes="ccccc"
         inkscape:connector-curvature="0"
         id="path3801"
         style="fill:#a6efeb;fill-opacity:1;fill-rule:evenodd;stroke:#000000;stroke-opacity:1"
         d="m 555.62619,425.66044 -127.27955,60.23244 c 75.86194,-47.60784 138.84914,-99.50726 166.47265,-163.19458 -15.97774,42.94979 24.6516,120.24478 67.79848,163.19458 z" />
      <g
         style="font-size:40px;font-style:normal;font-weight:normal;line-height:125%;letter-spacing:0px;word-spacing:0px;fill-opacity:1;stroke:none;font-family:Sans;fill:#000000"
         id="text3803">
        <path
           d="m 201.5993,699.93457 c -2.90365,10e-6 -4.91537,0.33204 -6.03515,0.99609 -1.1198,0.66408 -1.6797,1.79689 -1.67969,3.39844 -1e-5,1.27605 0.41666,2.29167 1.25,3.04688 0.84635,0.74219 1.99218,1.11328 3.4375,1.11328 1.99218,0 3.58723,-0.70312 4.78516,-2.10938 1.21092,-1.41926 1.81639,-3.30077 1.8164,-5.64453 l 0,-0.80078 -3.57422,0 m 7.16797,-1.48437 0,12.48046 -3.59375,0 0,-3.32031 c -0.82033,1.32813 -1.84246,2.3112 -3.0664,2.94922 -1.22397,0.625 -2.72137,0.9375 -4.49219,0.9375 -2.23959,0 -4.02344,-0.625 -5.35156,-1.875 -1.31511,-1.26302 -1.97266,-2.94921 -1.97266,-5.05859 0,-2.46093 0.82031,-4.3164 2.46094,-5.56641 1.65364,-1.24999 4.11457,-1.87499 7.38281,-1.875 l 5.03906,0 0,-0.35156 c -1e-5,-1.65363 -0.54689,-2.92967 -1.64062,-3.82813 -1.08075,-0.91144 -2.60418,-1.36717 -4.57031,-1.36718 -1.25001,10e-6 -2.46746,0.14975 -3.65235,0.44921 -1.1849,0.2995 -2.32422,0.74872 -3.41797,1.34766 l 0,-3.32031 c 1.3151,-0.50779 2.59114,-0.8854 3.82813,-1.13281 1.23697,-0.2604 2.44139,-0.39061 3.61328,-0.39063 3.16405,2e-5 5.52733,0.82033 7.08984,2.46094 1.56248,1.64064 2.34373,4.12762 2.34375,7.46094"
           style="fill:#000000;fill-opacity:1"
           id="path3860" />
      </g>
      <g
         style="font-size:40px;font-style:normal;font-weight:normal;line-height:125%;letter-spacing:0px;word-spacing:0px;fill-opacity:1;stroke:none;font-family:Sans;fill:#000000"
         id="text3807">
        <path
           d="m 575.87756,765.42108 c -2.90365,1e-5 -4.91537,0.33204 -6.03515,0.9961 -1.1198,0.66407 -1.6797,1.79688 -1.67969,3.39843 -1e-5,1.27605 0.41666,2.29167 1.25,3.04688 0.84635,0.74219 1.99218,1.11328 3.4375,1.11328 1.99217,0 3.58723,-0.70312 4.78516,-2.10938 1.21092,-1.41926 1.81638,-3.30077 1.8164,-5.64453 l 0,-0.80078 -3.57422,0 m 7.16797,-1.48437 0,12.48047 -3.59375,0 0,-3.32032 c -0.82033,1.32813 -1.84246,2.3112 -3.0664,2.94922 -1.22398,0.625 -2.72137,0.9375 -4.49219,0.9375 -2.23959,0 -4.02344,-0.625 -5.35156,-1.875 -1.31511,-1.26302 -1.97266,-2.94921 -1.97266,-5.05859 0,-2.46093 0.82031,-4.3164 2.46094,-5.56641 1.65364,-1.24999 4.11457,-1.87498 7.38281,-1.875 l 5.03906,0 0,-0.35156 c -2e-5,-1.65363 -0.54689,-2.92967 -1.64062,-3.82813 -1.08075,-0.91144 -2.60418,-1.36716 -4.57032,-1.36718 -1.25001,2e-5 -2.46745,0.14976 -3.65234,0.44922 -1.1849,0.29949 -2.32422,0.74871 -3.41797,1.34765 l 0,-3.32031 c 1.3151,-0.50779 2.59114,-0.8854 3.82813,-1.13281 1.23697,-0.2604 2.44139,-0.39061 3.61328,-0.39063 3.16405,2e-5 5.52733,0.82034 7.08984,2.46094 1.56248,1.64064 2.34373,4.12762 2.34375,7.46094"
           style="fill:#000000;fill-opacity:1"
           id="path3863" />
      </g>
      <g
         style="font-size:40px;font-style:normal;font-weight:normal;line-height:125%;letter-spacing:0px;word-spacing:0px;fill-opacity:1;stroke:none;font-family:Sans;fill:#000000"
         id="text3811">
        <path
           d="m 333.10114,710.93066 c -2e-5,-2.64321 -0.5469,-4.71352 -1.64063,-6.21093 -1.08075,-1.5104 -2.57163,-2.26561 -4.47266,-2.26563 -1.90105,2e-5 -3.39844,0.75523 -4.49218,2.26563 -1.08074,1.49741 -1.6211,3.56772 -1.6211,6.21093 0,2.64324 0.54036,4.72006 1.6211,6.23047 1.09374,1.4974 2.59113,2.2461 4.49218,2.2461 1.90103,0 3.39191,-0.7487 4.47266,-2.2461 1.09373,-1.51041 1.64061,-3.58723 1.64063,-6.23047 m -12.22657,-7.63671 c 0.7552,-1.30207 1.70572,-2.26561 2.85157,-2.89063 1.15884,-0.638 2.53905,-0.95701 4.14062,-0.95703 2.65623,2e-5 4.81118,1.05471 6.46484,3.16406 1.66665,2.10939 2.49998,4.88283 2.5,8.32031 -2e-5,3.43751 -0.83335,6.21095 -2.5,8.32032 -1.65366,2.10937 -3.80861,3.16406 -6.46484,3.16406 -1.60157,0 -2.98178,-0.3125 -4.14062,-0.9375 -1.14585,-0.63802 -2.09637,-1.60807 -2.85157,-2.91016 l 0,3.28125 -3.61328,0 0,-30.39062 3.61328,0 0,11.83594"
           style="fill:#000000;fill-opacity:1"
           id="path3866" />
      </g>
      <g
         style="font-size:40px;font-style:normal;font-weight:normal;line-height:125%;letter-spacing:0px;word-spacing:0px;fill-opacity:1;stroke:none;font-family:Sans;fill:#000000"
         id="text3815">
        <path
           d="m 606.08533,557.34094 c -2e-5,-2.64321 -0.5469,-4.71352 -1.64063,-6.21094 -1.08074,-1.51039 -2.57163,-2.2656 -4.47265,-2.26562 -1.90106,2e-5 -3.39845,0.75523 -4.49219,2.26562 -1.08074,1.49742 -1.6211,3.56773 -1.6211,6.21094 0,2.64324 0.54036,4.72006 1.6211,6.23047 1.09374,1.4974 2.59113,2.2461 4.49219,2.24609 1.90102,10e-6 3.39191,-0.74869 4.47265,-2.24609 1.09373,-1.51041 1.64061,-3.58723 1.64063,-6.23047 m -12.22657,-7.63672 c 0.7552,-1.30206 1.70572,-2.2656 2.85157,-2.89062 1.15884,-0.638 2.53905,-0.95701 4.14062,-0.95703 2.65624,2e-5 4.81118,1.05471 6.46485,3.16406 1.66664,2.10939 2.49997,4.88283 2.5,8.32031 -3e-5,3.43751 -0.83336,6.21094 -2.5,8.32031 -1.65367,2.10938 -3.80861,3.16407 -6.46485,3.16407 -1.60157,0 -2.98178,-0.3125 -4.14062,-0.9375 -1.14585,-0.63802 -2.09637,-1.60807 -2.85157,-2.91016 l 0,3.28125 -3.61328,0 0,-30.39062 3.61328,0 0,11.83593"
           style="fill:#000000;fill-opacity:1"
           id="path3869" />
      </g>
      <g
         style="font-size:40px;font-style:normal;font-weight:normal;line-height:125%;letter-spacing:0px;word-spacing:0px;fill-opacity:1;stroke:none;font-family:Sans;fill:#000000"
         id="text3819">
        <path
           d="m 690.97723,478.53342 0,3.35937 c -1.01564,-0.55988 -2.03777,-0.97654 -3.0664,-1.25 -1.01564,-0.28644 -2.04429,-0.42967 -3.08594,-0.42969 -2.33074,2e-5 -4.14063,0.74221 -5.42969,2.22657 -1.28907,1.47137 -1.9336,3.54168 -1.93359,6.21093 -10e-6,2.66928 0.64452,4.7461 1.93359,6.23047 1.28906,1.47136 3.09895,2.20704 5.42969,2.20703 1.04165,10e-6 2.0703,-0.13671 3.08594,-0.41015 1.02863,-0.28646 2.05076,-0.70963 3.0664,-1.26953 l 0,3.32031 c -1.00262,0.46875 -2.04428,0.82031 -3.125,1.05469 -1.06772,0.23437 -2.20704,0.35156 -3.41796,0.35156 -3.29429,0 -5.91147,-1.03516 -7.85157,-3.10547 -1.9401,-2.07031 -2.91016,-4.86327 -2.91015,-8.37891 -10e-6,-3.56769 0.97656,-6.37368 2.92968,-8.41796 1.96614,-2.04425 4.65494,-3.06639 8.06641,-3.06641 1.10676,2e-5 2.18748,0.11721 3.24219,0.35156 1.05467,0.22138 2.0768,0.55992 3.0664,1.01563"
           style="fill:#000000;fill-opacity:1"
           id="path3872" />
      </g>
      <g
         style="font-size:40px;font-style:normal;font-weight:normal;line-height:125%;letter-spacing:0px;word-spacing:0px;fill-opacity:1;stroke:none;font-family:Sans;fill:#000000"
         id="text3823">
        <path
           d="m 335.96207,413.90982 0,3.35938 c -1.01565,-0.55988 -2.03778,-0.97655 -3.06641,-1.25 -1.01564,-0.28644 -2.04428,-0.42967 -3.08594,-0.42969 -2.33074,2e-5 -4.14063,0.7422 -5.42968,2.22656 -1.28907,1.47137 -1.9336,3.54168 -1.9336,6.21094 0,2.66928 0.64453,4.7461 1.9336,6.23047 1.28905,1.47135 3.09894,2.20703 5.42968,2.20703 1.04166,0 2.0703,-0.13672 3.08594,-0.41016 1.02863,-0.28645 2.05076,-0.70963 3.06641,-1.26953 l 0,3.32031 c -1.00263,0.46875 -2.04429,0.82032 -3.125,1.05469 -1.06773,0.23438 -2.20705,0.35156 -3.41797,0.35156 -3.29428,0 -5.91147,-1.03515 -7.85156,-3.10547 -1.94011,-2.0703 -2.91016,-4.86327 -2.91016,-8.3789 0,-3.5677 0.97656,-6.37368 2.92969,-8.41797 1.96614,-2.04425 4.65493,-3.06638 8.0664,-3.06641 1.10676,3e-5 2.18749,0.11721 3.24219,0.35157 1.05467,0.22137 2.0768,0.55991 3.06641,1.01562"
           style="fill:#000000;fill-opacity:1"
           id="path3875" />
      </g>
      <g
         style="font-size:40px;font-style:normal;font-weight:normal;line-height:125%;letter-spacing:0px;word-spacing:0px;fill-opacity:1;stroke:none;font-family:Sans;fill:#000000"
         id="text3827">
        <path
           d="m 209.33519,313.375 0,-11.83594 3.59375,0 0,30.39063 -3.59375,0 0,-3.28125 c -0.75523,1.30208 -1.71226,2.27213 -2.87109,2.91015 -1.14585,0.625 -2.52606,0.9375 -4.14063,0.9375 -2.64324,0 -4.79818,-1.05468 -6.46484,-3.16406 -1.65365,-2.10937 -2.48047,-4.8828 -2.48047,-8.32031 0,-3.43749 0.82682,-6.21092 2.48047,-8.32031 1.66666,-2.10936 3.8216,-3.16404 6.46484,-3.16407 1.61457,3e-5 2.99478,0.31904 4.14063,0.95703 1.15883,0.62503 2.11586,1.58857 2.87109,2.89063 m -12.24609,7.63672 c -1e-5,2.64324 0.54035,4.72006 1.62109,6.23047 1.09374,1.4974 2.59114,2.24609 4.49219,2.24609 1.90103,0 3.39842,-0.74869 4.49218,-2.24609 1.09374,-1.51041 1.64061,-3.58723 1.64063,-6.23047 -2e-5,-2.64322 -0.54689,-4.71353 -1.64063,-6.21094 -1.09376,-1.5104 -2.59115,-2.2656 -4.49218,-2.26562 -1.90105,2e-5 -3.39845,0.75522 -4.49219,2.26562 -1.08074,1.49741 -1.6211,3.56772 -1.62109,6.21094"
           style="fill:#000000;fill-opacity:1"
           id="path3878" />
      </g>
      <g
         style="font-size:40px;font-style:normal;font-weight:normal;line-height:125%;letter-spacing:0px;word-spacing:0px;fill-opacity:1;stroke:none;font-family:Sans;fill:#000000"
         id="text3831">
        <path
           d="m 539.54218,452.72958 0,-11.83593 3.59375,0 0,30.39062 -3.59375,0 0,-3.28125 c -0.75523,1.30209 -1.71226,2.27214 -2.8711,2.91016 -1.14585,0.625 -2.52605,0.9375 -4.14062,0.9375 -2.64324,0 -4.79819,-1.05469 -6.46485,-3.16407 -1.65365,-2.10937 -2.48047,-4.8828 -2.48047,-8.32031 0,-3.43748 0.82682,-6.21092 2.48047,-8.32031 1.66666,-2.10935 3.82161,-3.16404 6.46485,-3.16406 1.61457,2e-5 2.99477,0.31903 4.14062,0.95703 1.15884,0.62502 2.11587,1.58856 2.8711,2.89062 m -12.2461,7.63672 c 0,2.64324 0.54036,4.72006 1.6211,6.23047 1.09374,1.4974 2.59113,2.2461 4.49218,2.24609 1.90103,1e-5 3.39842,-0.74869 4.49219,-2.24609 1.09373,-1.51041 1.64061,-3.58723 1.64063,-6.23047 -2e-5,-2.64321 -0.5469,-4.71352 -1.64063,-6.21094 -1.09377,-1.51039 -2.59116,-2.2656 -4.49219,-2.26562 -1.90105,2e-5 -3.39844,0.75523 -4.49218,2.26562 -1.08074,1.49742 -1.6211,3.56773 -1.6211,6.21094"
           style="fill:#000000;fill-opacity:1"
           id="path3881" />
      </g>
      <g
         style="font-size:40px;font-style:normal;font-weight:normal;line-height:125%;letter-spacing:0px;word-spacing:0px;fill-opacity:1;stroke:none;font-family:Sans;fill:#000000"
         id="text3835">
        <path
           d="m 422.64029,493.79352 0,1.75781 -16.52344,0 c 0.15625,2.47397 0.89843,4.36199 2.22656,5.66406 1.34114,1.28907 3.20312,1.9336 5.58594,1.9336 1.38019,0 2.71483,-0.16927 4.00391,-0.50782 1.30206,-0.33853 2.59112,-0.84635 3.86719,-1.52343 l 0,3.39843 c -1.28909,0.54688 -2.6107,0.96355 -3.96485,1.25 -1.35418,0.28646 -2.72788,0.42969 -4.12109,0.42969 -3.4896,0 -6.25652,-1.01562 -8.30078,-3.04687 -2.03126,-2.03125 -3.04688,-4.77864 -3.04688,-8.24219 0,-3.58072 0.96354,-6.41925 2.89063,-8.51563 1.94009,-2.10935 4.55077,-3.16404 7.83203,-3.16406 2.94269,2e-5 5.26691,0.95054 6.97265,2.85156 1.71873,1.88804 2.57811,4.45965 2.57813,7.71485 m -3.59375,-1.05469 c -0.0261,-1.96613 -0.57945,-3.53514 -1.66016,-4.70703 -1.06772,-1.17186 -2.48699,-1.75779 -4.25781,-1.75781 -2.00522,2e-5 -3.61329,0.56642 -4.82422,1.69922 -1.19792,1.13282 -1.88803,2.72788 -2.07031,4.78515 l 12.8125,-0.0195"
           style="fill:#000000;fill-opacity:1"
           id="path3884" />
      </g>
      <g
         style="font-size:40px;font-style:normal;font-weight:normal;line-height:125%;letter-spacing:0px;word-spacing:0px;fill-opacity:1;stroke:none;font-family:Sans;fill:#000000"
         id="text3839">
        <path
           d="m 64.684963,328.17499 0,1.75781 -16.523437,0 c 0.156244,2.47397 0.89843,4.36199 2.226562,5.66406 1.341137,1.28907 3.203114,1.9336 5.585938,1.9336 1.380193,0 2.714827,-0.16927 4.003906,-0.50782 1.302064,-0.33853 2.591125,-0.84635 3.867187,-1.52343 l 0,3.39843 c -1.289082,0.54688 -2.610696,0.96355 -3.964843,1.25 -1.354183,0.28646 -2.72788,0.42969 -4.121094,0.42969 -3.489593,0 -6.256518,-1.01562 -8.300781,-3.04687 -2.031253,-2.03125 -3.046877,-4.77864 -3.046875,-8.24219 -2e-6,-3.58072 0.963538,-6.41925 2.890625,-8.51563 1.940097,-2.10935 4.550771,-3.16404 7.832031,-3.16406 2.942692,2e-5 5.266909,0.95054 6.972656,2.85156 1.718729,1.88804 2.578103,4.45965 2.578125,7.71485 m -3.59375,-1.05469 c -0.02606,-1.96613 -0.579445,-3.53514 -1.660156,-4.70703 -1.067725,-1.17186 -2.486994,-1.75779 -4.257813,-1.75781 -2.005219,2e-5 -3.61329,0.56642 -4.824218,1.69922 -1.197924,1.13282 -1.888027,2.72787 -2.070313,4.78515 l 12.8125,-0.0195"
           style="fill:#000000;fill-opacity:1"
           id="path3887" />
      </g>
      <g
         style="font-size:40px;font-style:normal;font-weight:normal;line-height:125%;letter-spacing:0px;word-spacing:0px;fill-opacity:1;stroke:none;font-family:Sans;fill:#000000"
         id="text3843">
        <path
           d="m 53.007629,788.43262 0,2.98828 -3.4375,0 c -1.289072,3e-5 -2.187509,0.26044 -2.695312,0.78125 -0.4948,0.52086 -0.742196,1.45836 -0.742188,2.8125 l 0,1.93359 5.917969,0 0,2.79297 -5.917969,0 0,19.08203 -3.613281,0 0,-19.08203 -3.4375,0 0,-2.79297 3.4375,0 0,-1.52344 c -4e-6,-2.43487 0.566401,-4.2057 1.699219,-5.3125 1.132805,-1.11976 2.929678,-1.67965 5.390625,-1.67968 l 3.398437,0"
           style="fill:#000000;fill-opacity:1"
           id="path3890" />
      </g>
      <g
         style="font-size:40px;font-style:normal;font-weight:normal;line-height:125%;letter-spacing:0px;word-spacing:0px;fill-opacity:1;stroke:none;font-family:Sans;fill:#000000"
         id="text3847">
        <path
           d="m 510.01886,532.09058 0,2.98828 -3.4375,0 c -1.28907,2e-5 -2.18751,0.26044 -2.69531,0.78125 -0.4948,0.52086 -0.7422,1.45836 -0.74219,2.8125 l 0,1.93359 5.91797,0 0,2.79297 -5.91797,0 0,19.08203 -3.61328,0 0,-19.08203 -3.4375,0 0,-2.79297 3.4375,0 0,-1.52344 c -10e-6,-2.43487 0.5664,-4.2057 1.69922,-5.3125 1.1328,-1.11976 2.92968,-1.67965 5.39062,-1.67968 l 3.39844,0"
           style="fill:#000000;fill-opacity:1"
           id="path3893" />
      </g>
      <g
         style="font-size:40px;font-style:normal;font-weight:normal;line-height:125%;letter-spacing:0px;word-spacing:0px;fill-opacity:1;stroke:none;font-family:Sans;fill:#000000"
         id="text3851">
        <path
           d="m 614.35443,296.73138 c -2e-5,-2.60415 -0.54038,-4.62238 -1.62109,-6.05468 -1.06773,-1.43228 -2.57163,-2.14842 -4.51172,-2.14844 -1.92709,2e-5 -3.431,0.71616 -4.51172,2.14844 -1.06771,1.4323 -1.60157,3.45053 -1.60156,6.05468 -10e-6,2.59116 0.53385,4.60288 1.60156,6.03516 1.08072,1.4323 2.58463,2.14844 4.51172,2.14844 1.94009,0 3.44399,-0.71614 4.51172,-2.14844 1.08071,-1.43228 1.62107,-3.444 1.62109,-6.03516 m 3.59375,8.47657 c -2e-5,3.72395 -0.82684,6.49088 -2.48047,8.30078 -1.65366,1.82291 -4.18621,2.73436 -7.59765,2.73437 -1.26304,-1e-5 -2.45444,-0.0977 -3.57422,-0.29297 -1.1198,-0.1823 -2.20704,-0.46875 -3.26172,-0.85937 l 0,-3.49609 c 1.05468,0.57291 2.09635,0.99608 3.125,1.26953 1.02864,0.27343 2.07681,0.41015 3.14453,0.41015 2.35676,0 4.12108,-0.61849 5.29297,-1.85547 1.17186,-1.22396 1.75779,-3.07942 1.75781,-5.5664 l 0,-1.77735 c -0.7422,1.28907 -1.69272,2.25261 -2.85156,2.89063 -1.15887,0.63802 -2.54559,0.95703 -4.16016,0.95703 -2.6823,0 -4.84375,-1.02213 -6.48437,-3.06641 -1.64063,-2.04426 -2.46094,-4.75259 -2.46094,-8.125 0,-3.3854 0.82031,-6.10024 2.46094,-8.14453 1.64062,-2.04425 3.80207,-3.06638 6.48437,-3.0664 1.61457,2e-5 3.00129,0.31903 4.16016,0.95703 1.15884,0.63804 2.10936,1.60158 2.85156,2.89062 l 0,-3.32031 3.59375,0 0,19.16016"
           style="fill:#000000;fill-opacity:1"
           id="path3896" />
      </g>
      <g
         style="font-size:40px;font-style:normal;font-weight:normal;line-height:125%;letter-spacing:0px;word-spacing:0px;fill-opacity:1;stroke:none;font-family:Sans;fill:#000000"
         id="text3855">
        <path
           d="m 248.61826,415.85629 c -2e-5,-2.60415 -0.54039,-4.62238 -1.6211,-6.05468 -1.06772,-1.43228 -2.57163,-2.14842 -4.51172,-2.14844 -1.92709,2e-5 -3.431,0.71616 -4.51172,2.14844 -1.06771,1.4323 -1.60156,3.45053 -1.60156,6.05468 0,2.59116 0.53385,4.60287 1.60156,6.03516 1.08072,1.43229 2.58463,2.14844 4.51172,2.14844 1.94009,0 3.444,-0.71615 4.51172,-2.14844 1.08071,-1.43229 1.62108,-3.444 1.6211,-6.03516 m 3.59375,8.47657 c -3e-5,3.72395 -0.82685,6.49088 -2.48047,8.30078 -1.65367,1.82291 -4.18622,2.73436 -7.59766,2.73437 -1.26303,-1e-5 -2.45444,-0.0977 -3.57422,-0.29297 -1.1198,-0.1823 -2.20704,-0.46875 -3.26172,-0.85937 l 0,-3.4961 c 1.05468,0.57292 2.09635,0.99609 3.125,1.26954 1.02864,0.27343 2.07682,0.41015 3.14453,0.41015 2.35676,0 4.12108,-0.61849 5.29297,-1.85547 1.17186,-1.22396 1.7578,-3.07942 1.75782,-5.5664 l 0,-1.77735 c -0.74221,1.28907 -1.69273,2.25261 -2.85157,2.89063 -1.15887,0.63802 -2.54558,0.95703 -4.16015,0.95703 -2.6823,0 -4.84376,-1.02214 -6.48438,-3.06641 -1.64063,-2.04426 -2.46094,-4.75259 -2.46094,-8.125 0,-3.3854 0.82031,-6.10024 2.46094,-8.14453 1.64062,-2.04425 3.80208,-3.06638 6.48438,-3.0664 1.61457,2e-5 3.00128,0.31903 4.16015,0.95703 1.15884,0.63804 2.10936,1.60158 2.85157,2.89062 l 0,-3.32031 3.59375,0 0,19.16016"
           style="fill:#000000;fill-opacity:1"
           id="path3899" />
      </g>
    </g>
  </g>
</svg>
